<?xml version="1.0" standalone="no"?>
<!DOCTYPE svg PUBLIC "-//W3C//DTD SVG 20010904//EN"
 "http://www.w3.org/TR/2001/REC-SVG-20010904/DTD/svg10.dtd">
<svg version="1.0" xmlns="http://www.w3.org/2000/svg"
 width="4096.000000pt" height="4096.000000pt" viewBox="0 0 4096.000000 4096.000000"
 preserveAspectRatio="xMidYMid meet">

<g transform="translate(0.000000,4096.000000) scale(0.100000,-0.100000)"
fill="#000000" stroke="none">
<path d="M0 20480 l0 -20480 20480 0 20480 0 0 20480 0 20480 -20480 0 -20480
0 0 -20480z m13265 14120 c369 -268 904 -654 1270 -918 187 -135 588 -425 890
-646 303 -220 656 -476 785 -570 129 -93 368 -267 530 -386 266 -195 1038
-756 1150 -835 219 -155 655 -471 780 -565 85 -64 193 -143 240 -176 196 -136
503 -359 603 -439 l107 -85 -3 -5193 -3 -5192 -21 -150 c-52 -353 -119 -596
-248 -895 -75 -175 -191 -359 -346 -553 -98 -121 -170 -191 -439 -422 -1021
-879 -1711 -1470 -1924 -1650 -104 -88 -291 -248 -415 -355 -124 -107 -300
-258 -391 -335 -91 -76 -199 -169 -240 -205 -41 -37 -123 -107 -181 -156 -58
-49 -226 -192 -374 -319 -539 -461 -625 -534 -885 -755 -146 -123 -391 -333
-545 -465 -154 -133 -325 -279 -379 -325 -55 -47 -154 -132 -220 -190 -107
-94 -797 -685 -949 -813 -32 -27 -63 -47 -70 -44 -12 5 -89 62 -627 469 -140
107 -451 342 -690 523 -239 181 -559 424 -710 540 -151 116 -375 286 -497 378
-227 171 -811 613 -939 712 -172 133 -443 438 -596 671 -328 498 -562 1105
-638 1654 -38 269 -40 371 -40 1908 l0 1502 2031 -2 2030 -3 3 -1035 c2 -1115
1 -1088 57 -1365 79 -395 270 -809 507 -1099 93 -114 260 -276 372 -362 58
-44 242 -186 410 -315 435 -335 712 -544 737 -557 23 -13 119 64 1218 978 779
648 891 748 1027 910 291 346 455 731 535 1250 16 108 18 366 20 4401 l3 4285
-147 106 c-82 58 -323 226 -538 373 -214 147 -443 305 -507 351 -64 46 -285
198 -490 337 -205 140 -562 383 -793 540 -231 157 -487 332 -570 389 l-150
103 -3 2575 c-1 1416 0 2581 3 2588 6 17 -10 27 260 -168z m14685 -2414 l0
-2584 -32 -24 c-18 -14 -193 -133 -388 -265 -195 -131 -445 -302 -555 -379
-235 -165 -386 -267 -745 -509 -146 -98 -344 -233 -440 -300 -302 -210 -861
-597 -947 -655 l-82 -55 -1 -6321 0 -6320 -707 -535 c-389 -294 -804 -608
-923 -699 -118 -91 -381 -292 -585 -446 -428 -324 -1174 -892 -1192 -906 -10
-8 -13 1772 -13 8894 l0 8905 211 154 c116 85 342 251 503 369 160 119 365
269 456 335 91 65 352 255 580 420 228 166 498 362 600 435 186 134 1310 950
1710 1240 119 86 359 260 535 387 176 126 545 393 820 593 980 713 1171 850
1186 850 5 0 9 -1109 9 -2584z m5768 -13251 c3 -1654 -1 -1786 -72 -2187 -113
-630 -385 -1235 -777 -1723 -123 -153 -343 -368 -529 -516 -214 -171 -848
-653 -1935 -1471 -308 -232 -598 -452 -645 -488 -47 -36 -375 -285 -730 -553
-1113 -839 -1834 -1384 -2165 -1637 -176 -134 -435 -330 -575 -435 -370 -277
-1497 -1131 -1860 -1409 -113 -86 -398 -303 -635 -481 -236 -178 -558 -422
-715 -541 -157 -119 -438 -332 -625 -474 -386 -291 -875 -661 -1014 -768 -51
-40 -96 -72 -100 -72 -3 0 -4 1044 -1 2319 l5 2319 240 179 c132 99 371 280
530 402 563 432 1250 958 1510 1156 536 407 784 596 940 716 215 166 480 368
927 709 205 156 459 350 563 430 105 81 498 382 875 670 1700 1300 1883 1443
2028 1594 281 293 489 668 597 1079 92 350 95 394 95 1563 0 545 3 993 6 996
3 3 917 5 2032 5 l2027 -2 3 -1380z m-14098 -7315 c0 -2986 -3 -5430 -7 -5430
-5 0 -78 54 -163 120 -85 66 -508 386 -940 712 -432 326 -870 658 -975 738
-104 81 -374 286 -600 456 -225 171 -543 411 -705 534 -162 123 -412 312 -555
420 -143 109 -379 288 -525 399 -792 602 -1849 1402 -2118 1601 -77 58 -140
110 -139 117 1 6 99 94 217 195 538 460 979 837 1020 872 192 165 1317 1128
2014 1725 468 399 1180 1010 1585 1356 404 347 785 673 846 725 405 345 789
674 900 773 72 64 133 116 138 116 4 1 7 -2442 7 -5429z"/>
</g>
</svg>
