<?xml version="1.0" standalone="no"?>
<!DOCTYPE svg PUBLIC "-//W3C//DTD SVG 20010904//EN"
 "http://www.w3.org/TR/2001/REC-SVG-20010904/DTD/svg10.dtd">
<svg version="1.0" xmlns="http://www.w3.org/2000/svg"
 width="4096.000000pt" height="4096.000000pt" viewBox="0 0 4096.000000 4096.000000"
 preserveAspectRatio="xMidYMid meet">

<g transform="translate(0.000000,4096.000000) scale(0.100000,-0.100000)"
fill="#000000" stroke="none">
<path d="M13000 32197 l0 -2586 108 -74 c59 -40 215 -148 347 -239 132 -90
323 -222 425 -291 102 -70 266 -183 365 -252 99 -68 301 -207 449 -309 148
-102 366 -253 485 -336 119 -82 347 -241 506 -351 160 -111 338 -236 397 -278
l108 -76 -3 -4310 -2 -4310 -22 -125 c-56 -323 -98 -458 -213 -694 -99 -204
-208 -375 -327 -516 -98 -117 -161 -176 -429 -405 -169 -146 -1641 -1380
-1743 -1462 l-27 -21 -265 200 c-145 111 -402 306 -571 433 -170 128 -360 277
-424 331 -249 212 -422 438 -579 759 -118 241 -187 452 -236 716 -23 124 -23
125 -27 1222 l-3 1097 -2045 0 -2045 0 4 -1472 c4 -1524 6 -1593 48 -1908 99
-738 458 -1528 941 -2070 137 -154 316 -306 688 -585 102 -76 246 -187 320
-245 74 -58 245 -189 378 -290 649 -492 1067 -810 1532 -1165 107 -82 296
-226 420 -320 124 -94 271 -207 328 -250 l102 -78 53 44 c28 24 120 102 202
174 201 173 360 310 1145 982 1240 1061 1635 1398 1835 1568 110 93 341 291
514 440 305 262 609 522 1295 1109 340 290 441 376 712 606 87 74 256 218 374
320 118 102 258 221 310 265 275 229 515 464 638 623 274 357 457 837 539
1422 17 118 18 407 18 5290 1 2841 -2 5174 -6 5185 -7 20 -347 278 -755 571
-120 87 -367 266 -549 398 -181 132 -377 274 -435 316 -58 42 -192 141 -299
219 -107 79 -273 200 -370 270 -282 204 -567 411 -686 498 -186 136 -720 522
-925 669 -107 77 -406 295 -665 484 -258 189 -515 376 -570 415 -55 39 -168
121 -250 182 -352 258 -1084 783 -1102 790 -11 4 -13 -443 -13 -2580z"/>
<path d="M27815 34679 c-66 -49 -199 -144 -295 -211 -96 -67 -321 -230 -500
-362 -179 -132 -497 -362 -707 -513 -211 -150 -433 -310 -495 -356 -62 -46
-167 -122 -233 -169 -66 -46 -172 -122 -235 -168 -63 -46 -227 -165 -365 -263
-137 -99 -322 -233 -410 -298 -214 -159 -431 -318 -595 -436 -144 -103 -707
-514 -801 -585 -31 -24 -160 -116 -285 -206 -126 -90 -416 -300 -644 -468
-228 -168 -528 -387 -667 -487 l-252 -182 1 -8705 c1 -4788 4 -8792 5 -8897 2
-106 7 -193 11 -193 4 1 174 127 377 282 204 155 600 455 880 667 281 211 643
487 805 611 162 124 535 407 828 629 l532 404 -1 6316 -1 6316 99 69 c108 76
308 215 993 686 250 172 556 384 680 470 124 86 297 205 385 265 88 60 225
154 305 210 80 56 274 190 431 299 l286 197 6 82 c4 45 7 1208 7 2585 0 2025
-2 2502 -12 2501 -7 0 -67 -41 -133 -90z"/>
<path d="M29637 19233 c-3 -962 -5 -1100 -20 -1192 -60 -370 -203 -747 -394
-1036 -153 -231 -297 -388 -513 -558 -245 -192 -987 -762 -1538 -1182 -1090
-831 -1531 -1168 -2052 -1570 -184 -142 -456 -351 -605 -464 -148 -113 -376
-286 -505 -386 -129 -100 -424 -325 -655 -500 -380 -289 -811 -619 -1205 -924
-80 -61 -296 -225 -480 -364 l-335 -253 -3 -2317 c-1 -1274 1 -2317 6 -2317
16 0 293 207 1010 753 114 86 360 273 547 415 187 142 417 316 510 388 374
284 1077 818 1370 1039 171 130 457 346 636 483 299 226 760 575 1797 1359
213 161 581 439 817 617 237 179 575 434 752 568 177 134 494 373 705 533 211
159 525 397 698 529 271 206 1080 820 1619 1227 740 559 890 693 1131 1014
245 326 393 602 552 1030 138 370 210 700 238 1085 6 89 10 720 10 1628 l0
1482 -2045 0 -2044 0 -4 -1087z"/>
<path d="M19315 16784 c-165 -141 -469 -402 -675 -579 -206 -177 -508 -434
-670 -570 -162 -137 -394 -334 -515 -439 -560 -483 -1336 -1149 -1423 -1220
-209 -172 -1580 -1344 -2252 -1926 -118 -103 -303 -260 -410 -350 -107 -90
-247 -209 -310 -264 -63 -56 -131 -114 -150 -129 l-35 -28 25 -17 c22 -15 903
-681 1874 -1416 209 -158 451 -341 536 -405 236 -178 576 -436 865 -656 143
-108 355 -269 470 -356 116 -87 377 -285 580 -439 204 -154 564 -427 800 -605
237 -179 525 -398 640 -486 116 -89 309 -236 430 -327 121 -91 286 -216 367
-279 80 -62 151 -113 157 -113 8 0 11 1534 11 5430 0 2987 -3 5430 -8 5430 -4
0 -142 -115 -307 -256z"/>
</g>
</svg>
