<?xml version="1.0" standalone="no"?>
<!DOCTYPE svg PUBLIC "-//W3C//DTD SVG 20010904//EN"
 "http://www.w3.org/TR/2001/REC-SVG-20010904/DTD/svg10.dtd">
<svg version="1.0" xmlns="http://www.w3.org/2000/svg"
 width="690.000000pt" height="690.000000pt" viewBox="0 0 690.000000 690.000000"
 preserveAspectRatio="xMidYMid meet">
<metadata>
Created by potrace 1.14, written by Peter Selinger 2001-2017
</metadata>
<g transform="translate(0.000000,690.000000) scale(0.100000,-0.100000)"
fill="#000000" stroke="none">
<path d="M4546 5463 c-1 -1 -54 -9 -117 -18 -149 -20 -155 -21 -251 -51 -152
-48 -239 -99 -318 -185 -38 -41 -52 -50 -90 -55 -55 -7 -143 -34 -151 -46 -3
-5 -9 -9 -13 -8 -8 2 -128 -97 -124 -102 2 -2 -8 -15 -20 -28 -23 -24 -41 -58
-38 -72 0 -3 -24 -26 -54 -50 -118 -93 -174 -166 -154 -200 6 -10 5 -11 -7 -1
-12 10 -15 7 -14 -17 0 -16 4 -32 8 -36 4 -4 1 -14 -6 -22 -9 -13 -9 -14 1 -8
7 4 12 1 12 -9 0 -9 -4 -14 -9 -10 -5 3 -13 0 -17 -6 -4 -7 -3 -9 3 -6 6 4 18
-4 27 -18 11 -16 12 -26 5 -31 -6 -3 -9 -14 -6 -24 2 -9 0 -26 -5 -36 -9 -18
-8 -18 5 -2 8 10 18 14 23 10 4 -4 2 1 -5 10 -7 9 -10 22 -6 28 11 18 25 0 21
-30 -2 -22 0 -27 13 -23 13 3 12 2 -2 -7 -9 -6 -21 -9 -26 -5 -5 3 -12 2 -15
-3 -2 -4 -18 -9 -36 -10 -17 -1 -57 -9 -90 -16 -33 -8 -60 -12 -60 -9 0 3 -7
0 -15 -7 -8 -7 -22 -10 -30 -6 -10 3 -15 -1 -15 -12 0 -15 -2 -15 -10 -2 -6
10 -10 11 -10 2 0 -6 -3 -11 -7 -11 -5 1 -10 0 -13 -1 -13 -4 -47 -12 -62 -13
-10 -1 -18 -5 -18 -10 0 -4 -4 -5 -10 -2 -5 3 -10 1 -10 -5 0 -8 -7 -9 -17 -5
-30 12 -54 14 -48 6 8 -14 -32 -20 -46 -7 -11 9 -11 8 -1 -6 14 -18 33 -18 55
0 10 9 17 10 22 2 3 -5 4 -11 1 -11 -16 -4 -26 -7 -31 -9 -3 -1 -9 -3 -14 -4
-5 0 -13 -4 -17 -8 -4 -5 -12 -8 -18 -8 -6 0 -5 4 2 9 11 7 11 9 -2 14 -9 4
-16 2 -16 -4 0 -6 -5 -7 -10 -4 -6 4 -7 11 -4 17 4 7 2 8 -4 4 -6 -4 -8 -14
-5 -23 4 -11 2 -14 -8 -11 -8 3 -19 -1 -26 -8 -15 -15 -17 -28 -4 -19 5 3 12
1 15 -4 7 -10 -13 -9 -30 2 -6 3 -20 -3 -30 -16 l-19 -22 23 19 c12 11 22 14
22 8 0 -23 -36 -32 -61 -15 -21 15 -22 15 -11 1 7 -9 9 -18 5 -20 -4 -3 -2 -3
5 -2 17 5 15 -13 -3 -20 -18 -7 -31 -4 -27 7 1 4 -3 7 -8 7 -6 0 -8 -11 -4
-26 4 -17 3 -25 -3 -21 -6 4 -18 -2 -28 -13 -18 -20 -45 -27 -45 -12 0 5 -6 9
-13 9 -8 0 -14 -6 -14 -13 0 -7 6 -10 14 -7 7 3 13 0 13 -6 0 -6 -6 -11 -13
-11 -7 0 -18 -9 -25 -20 -7 -11 -19 -20 -27 -20 -8 0 -15 -4 -15 -10 0 -5 -5
-10 -11 -10 -6 0 -8 7 -5 16 3 9 2 12 -5 9 -5 -4 -7 -15 -4 -26 6 -17 -3 -24
-28 -20 -4 0 -6 -5 -5 -11 2 -7 -3 -12 -10 -10 -8 1 -11 -1 -8 -6 3 -5 -14
-27 -37 -49 -23 -22 -58 -59 -77 -81 -26 -31 -40 -40 -55 -36 l-20 6 20 -16
c18 -14 19 -15 2 -16 -10 0 -15 -4 -12 -10 3 -5 3 -10 -2 -11 -24 -2 -46 -8
-51 -15 -4 -4 1 -4 11 -1 21 8 22 -6 2 -27 -8 -8 -15 -17 -15 -21 0 -3 -5 -11
-10 -18 -26 -31 -58 -86 -52 -91 5 -6 -14 -10 -31 -7 -5 1 -6 -3 -2 -9 4 -6
-2 -28 -14 -49 -11 -22 -17 -42 -14 -45 4 -3 1 -6 -5 -6 -7 0 -12 -7 -12 -15
0 -8 -10 -24 -22 -36 -13 -12 -17 -18 -10 -14 11 6 12 3 2 -14 -6 -13 -16 -19
-23 -14 -8 4 -8 1 1 -9 11 -14 11 -20 0 -37 -7 -12 -16 -21 -20 -21 -4 0 -5
-6 -2 -14 3 -8 0 -17 -5 -21 -6 -3 -9 -10 -6 -15 3 -5 -2 -26 -11 -47 -16 -36
-18 -46 -22 -86 -1 -11 -7 -16 -14 -11 -10 5 -10 4 -1 -6 9 -9 9 -19 2 -32 -6
-11 -8 -26 -5 -34 3 -8 1 -14 -3 -14 -5 0 -7 -10 -3 -22 3 -14 2 -19 -6 -14
-7 4 -12 2 -12 -3 0 -6 5 -11 10 -11 7 0 7 -6 1 -19 -6 -10 -7 -22 -3 -26 4
-5 0 -6 -8 -3 -11 4 -16 -1 -17 -16 0 -11 1 -15 4 -8 3 6 8 12 12 12 11 0 0
-64 -13 -72 -8 -6 -8 -8 0 -8 9 0 11 -34 5 -82 -1 -4 -9 -5 -18 -2 -13 3 -12
1 2 -6 15 -8 20 -21 20 -51 0 -21 -4 -39 -9 -39 -6 0 -5 -5 2 -12 7 -7 12 -27
12 -46 0 -27 -3 -33 -16 -28 -8 3 -12 2 -9 -4 3 -6 12 -10 18 -10 7 0 13 -9
14 -20 1 -13 -2 -18 -10 -13 -9 5 -9 3 -1 -8 16 -21 26 -51 14 -44 -6 3 -10 1
-10 -4 0 -6 5 -11 11 -11 5 0 7 -4 4 -10 -3 -5 -1 -10 6 -10 7 0 4 -6 -7 -14
-10 -8 -16 -18 -11 -22 4 -4 7 -2 7 4 0 7 4 12 9 12 5 0 8 -11 5 -25 -2 -14 0
-25 5 -25 5 0 11 -14 13 -30 4 -23 1 -30 -9 -26 -8 3 -11 1 -8 -4 3 -6 12 -10
18 -10 7 0 14 -11 15 -26 1 -14 6 -33 11 -42 4 -9 7 -25 6 -34 -2 -9 4 -19 12
-22 8 -4 13 -13 9 -21 -3 -8 -1 -15 5 -15 6 0 7 -5 4 -10 -4 -6 -10 -8 -14 -6
-3 3 -7 -4 -7 -15 0 -18 2 -18 12 -5 6 9 14 16 18 16 11 0 6 -28 -6 -33 -7 -3
-4 -6 8 -6 11 -1 21 -7 22 -13 6 -49 10 -60 27 -72 10 -7 15 -18 12 -23 -4 -6
0 -14 8 -17 13 -4 14 -10 5 -26 -9 -16 -8 -19 6 -13 10 3 15 2 12 -3 -8 -12
17 -35 28 -26 4 4 4 2 1 -4 -4 -6 7 -30 23 -53 17 -22 28 -41 25 -41 -6 0 7
-17 41 -53 13 -15 20 -33 18 -52 -3 -22 -1 -25 5 -11 7 18 8 18 22 2 8 -10 22
-25 32 -34 9 -9 17 -22 17 -28 0 -7 7 -15 16 -18 8 -3 12 -10 9 -16 -4 -6 1
-7 11 -3 12 4 15 3 10 -5 -4 -7 -2 -12 4 -12 6 0 8 -5 5 -10 -3 -6 0 -10 7
-10 17 -1 58 -35 58 -49 0 -6 7 -11 16 -11 11 0 14 -6 9 -22 -5 -18 -4 -19 4
-8 8 12 14 11 35 -9 14 -13 23 -27 21 -32 -3 -4 0 -11 6 -15 8 -4 9 -3 5 4
-10 17 13 15 30 -2 19 -20 18 -26 -6 -21 -11 2 -23 -2 -26 -8 -4 -7 -4 -9 1
-5 4 4 15 -1 24 -10 9 -10 13 -13 9 -8 -19 24 0 28 50 11 15 -5 21 -13 18 -22
-3 -8 -6 -17 -6 -19 0 -3 -5 -2 -10 1 -6 4 -7 12 -4 18 4 7 3 8 -1 4 -5 -4
-10 -15 -11 -23 -1 -9 0 -13 3 -10 4 3 16 -2 27 -11 14 -12 17 -13 9 -3 -7 10
-8 21 -3 30 7 11 11 11 24 1 9 -8 16 -10 16 -5 0 5 5 1 11 -9 6 -10 15 -14 22
-10 7 4 6 -1 -2 -10 -8 -10 -11 -20 -7 -24 3 -3 6 -1 6 5 0 7 7 12 16 12 13 0
14 -3 5 -13 -8 -11 -5 -13 19 -9 24 3 30 1 30 -14 0 -16 2 -17 10 -4 7 11 10
11 10 2 0 -7 5 -10 10 -7 6 3 10 1 10 -4 0 -6 7 -11 15 -11 11 0 14 -7 10 -27
-5 -26 -5 -26 5 -5 9 20 12 21 32 10 13 -7 27 -11 32 -10 5 2 6 -4 2 -13 -4
-13 -2 -14 13 -5 13 7 20 7 23 -1 2 -5 13 -11 26 -12 12 0 22 -5 22 -9 0 -4 9
-8 20 -8 11 0 20 -4 20 -8 0 -5 6 -9 13 -10 6 0 21 -3 32 -6 11 -3 36 -10 55
-15 19 -5 49 -14 65 -19 17 -5 36 -7 43 -5 6 3 12 -3 12 -12 0 -9 5 -13 10
-10 6 4 7 11 4 17 -4 6 0 6 13 -1 11 -6 23 -7 27 -4 3 3 6 2 6 -3 0 -5 15 -11
33 -12 17 0 41 -3 52 -6 11 -2 28 -5 38 -5 12 -1 16 -5 11 -13 -6 -10 -4 -10
7 -3 28 21 66 17 84 -7 l17 -23 -7 25 c-6 24 -5 24 9 6 14 -17 16 -18 16 -3 0
9 5 17 10 17 6 0 10 -8 10 -17 0 -11 3 -14 8 -7 8 13 14 14 100 17 43 1 61 -1
58 -9 -3 -7 3 -10 16 -6 15 4 17 7 6 13 -7 5 -8 9 -2 9 5 0 16 -6 23 -12 11
-10 13 -10 7 0 -5 8 4 12 31 14 38 1 64 4 73 8 3 1 18 4 33 6 21 4 27 2 22 -8
-4 -7 0 -5 8 4 14 18 33 25 23 10 -2 -4 0 -14 6 -22 8 -13 9 -12 5 2 -6 17 15
42 26 31 4 -3 7 0 7 8 1 10 5 8 15 -5 14 -19 15 -19 15 -1 0 10 2 16 6 13 3
-3 28 3 56 14 39 14 53 16 64 7 12 -10 13 -8 8 7 -7 18 -6 18 17 -1 13 -11 18
-13 12 -5 -17 18 -16 27 2 27 8 0 12 -5 9 -11 -3 -6 0 -4 8 5 14 16 53 35 44
21 -2 -4 0 -14 6 -22 8 -13 9 -13 5 1 -8 24 3 33 66 58 31 13 57 28 57 35 0 6
5 4 10 -4 6 -9 10 -10 10 -3 0 13 86 64 112 66 9 1 14 5 11 10 -3 4 4 11 16
14 12 3 21 9 21 14 0 4 9 6 19 4 15 -3 18 0 14 13 -6 15 -5 15 10 3 10 -8 20
-11 24 -7 3 3 1 6 -5 6 -7 0 -12 7 -12 16 0 14 2 14 16 3 23 -19 44 -20 37 -2
-4 11 -8 11 -13 3 -5 -8 -10 -9 -14 -2 -3 6 6 20 21 31 16 11 34 26 41 32 7 6
23 9 35 5 20 -5 21 -4 4 8 -16 13 -16 15 10 31 15 10 37 28 50 41 13 13 31 21
43 19 12 -2 18 0 15 6 -4 5 -11 7 -16 4 -17 -11 -9 8 14 30 12 12 39 40 61 64
32 35 41 40 55 29 13 -10 14 -10 4 2 -17 19 -16 33 1 27 10 -4 13 -1 10 8 -7
16 20 48 30 37 4 -3 4 1 1 10 -4 9 0 18 10 22 9 3 14 10 10 15 -3 6 1 13 9 18
14 7 16 12 16 31 0 4 5 0 11 -8 9 -12 10 -11 6 7 -3 13 1 24 10 27 8 3 12 10
9 15 -4 5 1 17 10 25 8 9 12 16 7 16 -4 0 -3 4 2 8 6 4 16 20 23 35 10 24 15
26 34 17 23 -11 23 -11 3 6 -12 10 -16 18 -9 21 7 2 10 13 7 23 -7 25 14 27
21 3 3 -10 4 -5 2 11 -5 37 3 58 18 49 6 -4 4 2 -4 12 -12 15 -12 17 -1 10 11
-6 13 -4 8 8 -3 10 -3 17 1 17 4 0 8 10 9 22 1 11 6 24 10 27 9 7 16 28 17 54
0 9 3 17 6 17 5 0 9 18 12 58 1 6 5 12 10 12 5 0 6 5 3 10 -3 6 -1 10 5 10 6
0 8 5 5 10 -3 6 0 10 7 10 10 0 10 2 0 9 -18 11 -17 20 5 38 10 8 11 11 3 7
-13 -7 -13 -5 -1 9 11 14 11 17 0 17 -9 0 -10 3 -4 8 6 4 11 30 13 57 2 28 7
52 12 53 6 2 10 8 10 13 0 6 -5 7 -10 4 -9 -6 -10 9 -1 55 1 3 6 -2 11 -10 6
-9 10 -10 10 -3 0 6 -7 18 -15 26 -17 17 -10 28 13 21 10 -3 7 1 -5 7 -18 10
-20 15 -12 38 7 17 7 27 0 29 -6 2 -7 12 -1 27 5 12 6 26 2 30 -3 3 0 10 8 15
13 9 13 10 0 10 -11 0 -15 14 -17 55 -1 31 1 53 6 51 4 -3 7 6 7 19 0 13 -4
21 -8 19 -5 -3 -6 -10 -3 -15 4 -5 2 -9 -3 -9 -6 0 -9 10 -9 23 1 12 -2 36 -6
52 -7 28 -6 29 8 11 8 -11 17 -17 20 -14 3 3 -6 17 -21 31 -14 14 -23 31 -19
37 4 6 2 17 -5 25 -9 10 -7 16 7 25 14 9 15 10 1 6 -10 -3 -18 2 -21 15 -4 16
-1 19 16 15 12 -3 16 -3 9 0 -6 3 -10 10 -7 15 4 5 -2 6 -12 2 -10 -3 -15 -3
-11 2 4 4 0 14 -8 22 -12 12 -12 18 -3 30 10 11 10 13 -1 11 -7 -2 -14 2 -17
9 -3 8 3 11 16 8 11 -2 23 0 26 5 3 5 -3 7 -14 5 -11 -2 -24 2 -28 8 -16 22
-43 88 -34 83 11 -7 23 22 14 37 -4 6 0 8 10 4 9 -3 19 -2 23 4 3 6 12 8 20 5
8 -3 11 0 8 8 -3 7 -11 13 -19 13 -8 0 -11 -5 -8 -11 3 -6 3 -8 -2 -4 -4 4
-16 3 -26 -3 -14 -7 -17 -6 -13 4 3 8 -1 17 -9 20 -7 3 -14 -1 -14 -9 0 -7 4
-11 9 -8 4 3 5 -2 2 -10 -7 -18 -27 -10 -21 7 2 7 0 20 -5 30 -8 16 -7 17 10
8 11 -6 22 -7 26 -4 3 3 6 1 6 -4 0 -12 25 -12 36 -1 3 4 12 4 19 2 7 -3 16 0
20 6 5 8 13 6 28 -7 13 -10 17 -12 10 -3 -9 12 -7 20 12 36 13 12 27 19 31 15
4 -3 4 0 0 7 -4 7 -2 19 4 27 7 8 9 15 5 15 -4 0 -3 6 1 13 8 11 10 32 4 47
-5 13 -10 49 -12 87 -2 24 -6 43 -9 43 -6 0 -35 102 -31 113 1 4 -2 7 -7 7 -5
0 -11 9 -14 19 -3 15 2 20 25 25 17 3 40 6 53 6 12 0 33 9 46 21 13 11 29 24
35 27 27 17 57 87 59 136 6 141 -136 246 -268 200 -23 -8 -38 -12 -34 -8 6 7
-46 118 -67 140 -64 69 -94 100 -102 104 -5 3 -8 8 -7 11 1 3 -3 6 -10 6 -23
2 -88 41 -75 46 7 2 2 4 -12 4 -14 0 -49 10 -79 21 -29 12 -56 21 -60 20 -18
-2 -32 3 -27 10 3 5 -3 8 -12 8 -46 0 -73 5 -69 12 3 4 -16 8 -41 9 -26 1 -48
6 -50 11 -2 6 -12 7 -24 4 -13 -3 -19 -1 -15 5 4 6 -4 8 -20 5 -19 -4 -24 -2
-18 8 5 8 4 11 -3 7 -15 -10 -43 3 -35 16 3 6 1 7 -5 3 -7 -4 -22 3 -34 15
-18 17 -19 20 -4 12 11 -6 31 -7 47 -3 17 5 32 4 39 -3 10 -9 11 -9 7 -1 -4 7
0 14 8 18 8 3 15 0 15 -7 0 -8 3 -8 8 -2 4 6 16 11 27 10 11 0 26 7 33 15 12
13 13 12 7 -4 -6 -20 -6 -20 15 -1 18 16 23 17 30 5 8 -12 10 -12 10 3 0 10 4
16 9 12 5 -3 13 -1 16 5 5 8 11 7 21 -1 12 -10 15 -10 12 2 -2 9 5 14 20 13
12 -1 22 3 22 8 0 6 7 7 16 4 10 -4 13 -2 8 6 -5 7 1 9 20 6 23 -5 24 -3 14
10 -11 13 -11 14 0 8 8 -5 21 -1 32 9 10 9 24 14 29 10 6 -3 11 1 11 10 0 11
5 15 15 12 8 -4 17 -1 21 5 5 7 2 8 -7 3 -8 -5 3 8 24 29 74 75 34 125 -138
173 -5 1 -35 10 -65 18 -30 9 -91 23 -135 32 -44 9 -82 17 -84 19 -2 2 21 36
51 76 85 112 112 163 98 187 -6 12 -14 22 -18 22 -17 3 -63 5 -66 2z m584
-2083 c0 -5 -7 -10 -16 -10 -8 0 -12 5 -9 10 3 6 10 10 16 10 5 0 9 -4 9 -10z
m-3320 -714 c0 -2 -7 -7 -16 -10 -8 -3 -12 -2 -9 4 6 10 25 14 25 6z m320
-122 c0 -8 -19 -13 -24 -6 -3 5 1 9 9 9 8 0 15 -2 15 -3z m-7 -79 c-3 -9 -8
-14 -10 -11 -3 3 -2 9 2 15 9 16 15 13 8 -4z m242 -554 c3 -5 2 -12 -3 -15 -5
-3 -9 1 -9 9 0 17 3 19 12 6z"/>
<path d="M3197 4496 c-4 -10 -1 -13 8 -9 8 3 12 9 9 14 -7 12 -11 11 -17 -5z"/>
<path d="M3113 4475 c0 -8 4 -12 9 -9 5 3 6 10 3 15 -9 13 -12 11 -12 -6z"/>
<path d="M3020 4440 c-12 -7 -10 -9 7 -7 12 0 19 5 17 9 -6 10 -6 10 -24 -2z"/>
<path d="M3156 4419 c3 -5 9 -7 14 -4 4 3 11 0 13 -5 3 -6 4 -5 3 1 -1 7 -10
13 -19 15 -9 1 -15 -2 -11 -7z"/>
<path d="M2985 4400 c-3 -6 1 -7 9 -4 18 7 21 14 7 14 -6 0 -13 -4 -16 -10z"/>
<path d="M3066 4397 c3 -10 9 -15 12 -12 3 3 0 11 -7 18 -10 9 -11 8 -5 -6z"/>
<path d="M2926 4378 c3 -5 10 -6 15 -3 13 9 11 12 -6 12 -8 0 -12 -4 -9 -9z"/>
<path d="M2884 4359 c-3 -6 -2 -15 3 -20 5 -5 9 -1 9 11 0 23 -2 24 -12 9z"/>
<path d="M2797 4335 c-4 -8 -3 -16 1 -19 4 -3 9 4 9 15 2 23 -3 25 -10 4z"/>
<path d="M2825 4339 c-4 -6 -4 -13 -1 -16 3 -4 6 -1 6 6 0 7 5 9 12 5 7 -4 8
-3 4 4 -9 15 -13 15 -21 1z"/>
<path d="M2693 4315 c0 -8 4 -12 9 -9 5 3 6 10 3 15 -9 13 -12 11 -12 -6z"/>
<path d="M2634 4268 l-19 -23 23 19 c12 11 22 21 22 23 0 8 -8 2 -26 -19z"/>
<path d="M2566 4218 c3 -5 10 -6 15 -3 13 9 11 12 -6 12 -8 0 -12 -4 -9 -9z"/>
<path d="M2516 4197 c3 -10 9 -15 12 -12 3 3 0 11 -7 18 -10 9 -11 8 -5 -6z"/>
<path d="M2447 4179 c7 -7 15 -10 18 -7 3 3 -2 9 -12 12 -14 6 -15 5 -6 -5z"/>
<path d="M2350 4140 c0 -5 5 -10 11 -10 5 0 7 5 4 10 -3 6 -8 10 -11 10 -2 0
-4 -4 -4 -10z"/>
<path d="M2418 4131 c-11 -14 -11 -14 2 -4 16 12 37 12 56 0 7 -4 14 -1 17 6
7 19 -60 18 -75 -2z"/>
<path d="M2354 4098 c-4 -7 -4 -10 1 -6 4 4 15 2 24 -5 14 -11 14 -10 2 6 -16
20 -18 21 -27 5z"/>
<path d="M2355 4070 c-4 -6 -10 -8 -14 -6 -4 3 -13 0 -21 -5 -11 -7 -10 -8 8
-6 20 3 56 27 40 27 -4 0 -10 -5 -13 -10z"/>
<path d="M2386 4053 c-6 -14 -5 -15 5 -6 7 7 10 15 7 18 -3 3 -9 -2 -12 -12z"/>
<path d="M2250 4040 c0 -5 5 -10 11 -10 5 0 7 5 4 10 -3 6 -8 10 -11 10 -2 0
-4 -4 -4 -10z"/>
<path d="M2220 4026 c0 -2 8 -10 18 -17 15 -13 16 -12 3 4 -13 16 -21 21 -21
13z"/>
<path d="M2233 3972 c0 -12 5 -22 9 -22 11 0 10 12 -2 30 -7 12 -9 10 -7 -8z"/>
<path d="M2115 3949 c-4 -6 -5 -12 -2 -15 2 -3 7 2 10 11 7 17 1 20 -8 4z"/>
<path d="M2176 3933 c-6 -14 -5 -15 5 -6 7 7 10 15 7 18 -3 3 -9 -2 -12 -12z"/>
<path d="M2133 3915 c0 -8 4 -12 9 -9 5 3 6 10 3 15 -9 13 -12 11 -12 -6z"/>
<path d="M2215 3920 c3 -5 -1 -10 -9 -10 -9 0 -16 -5 -16 -10 0 -7 7 -7 20 0
17 9 20 30 4 30 -3 0 -2 -4 1 -10z"/>
<path d="M2133 3854 c0 -11 3 -11 16 -1 12 10 14 9 8 -6 -4 -11 -3 -16 4 -12
5 4 8 12 6 18 -5 16 -34 17 -34 1z"/>
<path d="M2095 3829 c-4 -6 -5 -12 -2 -15 2 -3 7 2 10 11 7 17 1 20 -8 4z"/>
<path d="M2055 3820 c3 -5 8 -10 11 -10 2 0 4 5 4 10 0 6 -5 10 -11 10 -5 0
-7 -4 -4 -10z"/>
<path d="M1999 3773 c-13 -16 -12 -17 4 -4 9 7 17 15 17 17 0 8 -8 3 -21 -13z"/>
<path d="M2030 3776 c0 -2 8 -10 18 -17 15 -13 16 -12 3 4 -13 16 -21 21 -21
13z"/>
<path d="M2013 3703 c0 -8 6 -9 19 -2 10 5 18 11 18 12 0 2 -8 3 -18 3 -10 0
-19 -6 -19 -13z"/>
<path d="M1995 3650 c3 -5 8 -10 11 -10 2 0 4 5 4 10 0 6 -5 10 -11 10 -5 0
-7 -4 -4 -10z"/>
<path d="M1860 3586 c0 -2 8 -10 18 -17 15 -13 16 -12 3 4 -13 16 -21 21 -21
13z"/>
<path d="M1930 3551 c0 -7 -4 -10 -8 -7 -4 2 -9 -5 -9 -16 -2 -21 -2 -21 14 1
8 12 12 25 9 28 -3 4 -6 1 -6 -6z"/>
<path d="M1871 3474 c6 -7 8 -18 5 -23 -4 -5 -1 -13 5 -17 7 -4 9 -3 6 3 -4 6
0 13 8 17 8 3 15 11 15 18 0 9 -3 8 -10 -2 -8 -13 -14 -8 -12 11 1 3 -6 6 -13
6 -11 0 -12 -4 -4 -13z"/>
<path d="M5275 3469 c-4 -6 -5 -12 -2 -15 2 -3 7 2 10 11 7 17 1 20 -8 4z"/>
<path d="M5205 3439 c-4 -6 -5 -12 -2 -15 2 -3 7 2 10 11 7 17 1 20 -8 4z"/>
<path d="M1835 3420 c-3 -5 -1 -10 4 -10 6 0 11 5 11 10 0 6 -2 10 -4 10 -3 0
-8 -4 -11 -10z"/>
<path d="M5230 3356 c0 -2 8 -10 18 -17 15 -13 16 -12 3 4 -13 16 -21 21 -21
13z"/>
<path d="M5148 3333 c6 -2 9 -10 6 -15 -4 -7 -2 -8 5 -4 13 9 5 26 -12 25 -9
0 -8 -2 1 -6z"/>
<path d="M5177 3315 c-4 -8 -3 -16 1 -19 4 -3 9 4 9 15 2 23 -3 25 -10 4z"/>
<path d="M1788 3275 c3 -5 7 -20 8 -33 0 -12 4 -25 8 -29 3 -4 5 4 3 18 -3 13
-1 31 3 39 6 11 3 16 -10 16 -10 0 -16 -5 -12 -11z"/>
<path d="M5196 3242 c-2 -4 -1 -14 4 -22 7 -11 9 -9 7 8 -1 24 -3 26 -11 14z"/>
<path d="M5256 3238 c3 -5 10 -6 15 -3 13 9 11 12 -6 12 -8 0 -12 -4 -9 -9z"/>
<path d="M1735 3200 c-3 -5 -1 -10 4 -10 6 0 11 5 11 10 0 6 -2 10 -4 10 -3 0
-8 -4 -11 -10z"/>
<path d="M5233 3185 c0 -8 4 -12 9 -9 5 3 6 10 3 15 -9 13 -12 11 -12 -6z"/>
<path d="M1746 3121 c-4 -5 3 -7 14 -4 23 6 26 13 6 13 -8 0 -17 -4 -20 -9z"/>
<path d="M5233 3109 c-1 -10 3 -22 9 -25 7 -4 8 -2 4 5 -4 6 -3 18 3 25 8 9 7
13 -2 13 -7 0 -14 -8 -14 -18z"/>
<path d="M1696 3078 c3 -5 10 -6 15 -3 13 9 11 12 -6 12 -8 0 -12 -4 -9 -9z"/>
<path d="M5266 3078 c3 -5 10 -6 15 -3 13 9 11 12 -6 12 -8 0 -12 -4 -9 -9z"/>
<path d="M1730 3076 c0 -2 8 -10 18 -17 15 -13 16 -12 3 4 -13 16 -21 21 -21
13z"/>
<path d="M5235 3060 c-3 -5 -1 -10 4 -10 6 0 11 5 11 10 0 6 -2 10 -4 10 -3 0
-8 -4 -11 -10z"/>
<path d="M1731 3026 c-9 -10 -8 -15 2 -19 8 -3 13 3 13 14 0 23 0 23 -15 5z"/>
<path d="M5250 2978 c0 -4 4 -8 9 -8 6 0 12 4 15 8 3 5 -1 9 -9 9 -8 0 -15 -4
-15 -9z"/>
<path d="M1736 2957 c3 -10 9 -15 12 -12 3 3 0 11 -7 18 -10 9 -11 8 -5 -6z"/>
<path d="M5286 2918 c3 -5 10 -6 15 -3 13 9 11 12 -6 12 -8 0 -12 -4 -9 -9z"/>
<path d="M5254 2899 c-3 -6 -3 -13 0 -16 3 -4 6 -1 6 5 0 6 7 9 15 6 8 -4 15
-4 15 -1 0 11 -30 16 -36 6z"/>
<path d="M1715 2870 c-3 -6 1 -7 9 -4 18 7 21 14 7 14 -6 0 -13 -4 -16 -10z"/>
<path d="M1714 2813 c2 -10 -2 -25 -8 -33 -9 -13 -9 -13 6 -2 16 12 18 35 6
48 -4 3 -5 -2 -4 -13z"/>
<path d="M5270 2820 c0 -5 9 -8 20 -7 21 1 18 10 -5 13 -8 1 -15 -2 -15 -6z"/>
<path d="M1657 2775 c-4 -8 -3 -16 1 -19 4 -3 9 4 9 15 2 23 -3 25 -10 4z"/>
<path d="M5254 2759 c-3 -6 -1 -16 5 -22 9 -9 10 -7 5 7 -6 15 -4 17 6 11 9
-5 11 -4 6 3 -9 15 -13 15 -22 1z"/>
<path d="M1704 2703 c-1 -13 -1 -23 0 -21 1 2 7 10 14 19 10 13 10 18 0 22 -8
3 -14 -5 -14 -20z"/>
<path d="M5267 2696 c5 -14 3 -17 -7 -11 -8 5 -11 4 -7 -3 8 -11 33 -11 42 1
3 4 2 5 -2 2 -3 -3 -12 3 -20 13 -12 16 -13 16 -6 -2z"/>
<path d="M5315 2680 c-3 -5 -1 -10 4 -10 6 0 11 5 11 10 0 6 -2 10 -4 10 -3 0
-8 -4 -11 -10z"/>
<path d="M1675 2660 c-5 -8 42 -7 49 1 3 3 -6 5 -20 5 -14 0 -27 -3 -29 -6z"/>
<path d="M1696 2626 c3 -8 13 -17 21 -20 25 -10 23 -3 -3 17 -18 13 -22 14
-18 3z"/>
<path d="M1694 2580 c0 -13 4 -16 10 -10 7 7 7 13 0 20 -6 6 -10 3 -10 -10z"/>
<path d="M1694 2543 c4 -4 16 -8 28 -10 28 -4 18 6 -12 12 -12 2 -20 1 -16 -2z"/>
<path d="M5267 2539 c7 -7 15 -10 18 -7 3 3 -2 9 -12 12 -14 6 -15 5 -6 -5z"/>
<path d="M5267 2479 c7 -7 15 -10 18 -7 3 3 -2 9 -12 12 -14 6 -15 5 -6 -5z"/>
<path d="M1670 2477 c0 -2 6 -10 14 -16 11 -9 16 -9 22 1 4 7 4 10 -1 6 -4 -4
-14 -3 -22 3 -7 6 -13 9 -13 6z"/>
<path d="M5251 2454 c0 -11 3 -14 6 -6 3 7 2 16 -1 19 -3 4 -6 -2 -5 -13z"/>
<path d="M1733 2435 c0 -8 4 -12 9 -9 5 3 6 10 3 15 -9 13 -12 11 -12 -6z"/>
<path d="M5253 2413 c0 -9 4 -10 14 -2 7 6 13 12 13 14 0 1 -6 2 -13 2 -8 0
-14 -6 -14 -14z"/>
<path d="M1761 2343 c7 -12 15 -20 18 -17 3 2 -3 12 -13 22 -17 16 -18 16 -5
-5z"/>
<path d="M1730 2341 c0 -6 4 -13 10 -16 6 -3 7 1 4 9 -7 18 -14 21 -14 7z"/>
<path d="M5228 2308 c2 -10 6 -18 7 -18 1 0 5 8 7 18 3 11 0 19 -7 19 -7 0
-10 -8 -7 -19z"/>
<path d="M5194 2275 c-3 -8 -4 -20 -1 -27 3 -7 6 -3 6 10 1 15 5 21 13 16 7
-4 8 -3 4 4 -10 16 -15 15 -22 -3z"/>
<path d="M1757 2255 c-4 -8 -3 -16 1 -19 4 -3 9 4 9 15 2 23 -3 25 -10 4z"/>
<path d="M5201 2216 c-9 -11 -9 -16 1 -22 7 -4 10 -4 6 1 -4 4 -3 14 3 22 6 7
9 13 6 13 -2 0 -10 -6 -16 -14z"/>
<path d="M1795 2201 c-3 -5 -2 -12 3 -15 5 -3 9 1 9 9 0 17 -3 19 -12 6z"/>
<path d="M1751 2187 c2 -1 13 -9 24 -17 19 -14 19 -14 6 3 -7 9 -18 17 -24 17
-6 0 -8 -1 -6 -3z"/>
<path d="M1798 2132 c-3 -11 0 -19 7 -19 7 0 10 8 7 19 -2 10 -6 18 -7 18 -1
0 -5 -8 -7 -18z"/>
<path d="M5156 2119 c2 -4 -2 -10 -8 -12 -8 -4 -9 -6 -2 -6 6 -1 17 5 23 12 8
10 7 14 -4 14 -8 0 -12 -4 -9 -8z"/>
<path d="M1776 2073 c-6 -14 -5 -15 5 -6 7 7 10 15 7 18 -3 3 -9 -2 -12 -12z"/>
<path d="M1810 2081 c0 -6 4 -13 10 -16 6 -3 7 1 4 9 -7 18 -14 21 -14 7z"/>
<path d="M5134 2058 c-4 -5 -3 -12 0 -15 3 -4 6 -1 6 7 0 9 3 10 13 1 10 -8
14 -7 14 2 0 15 -25 18 -33 5z"/>
<path d="M5150 1999 c0 -5 5 -7 10 -4 6 3 10 8 10 11 0 2 -4 4 -10 4 -5 0 -10
-5 -10 -11z"/>
<path d="M1853 1987 c0 -7 13 -13 29 -14 28 -1 33 7 6 11 -7 1 -18 5 -24 8 -6
4 -11 2 -11 -5z"/>
<path d="M5104 1982 c4 -3 14 -7 22 -8 9 -1 13 0 10 4 -4 3 -14 7 -22 8 -9 1
-13 0 -10 -4z"/>
<path d="M1829 1943 c-13 -16 -12 -17 4 -4 9 7 17 15 17 17 0 8 -8 3 -21 -13z"/>
<path d="M1896 1932 c-2 -4 4 -8 14 -8 10 0 16 4 14 8 -3 4 -9 8 -14 8 -5 0
-11 -4 -14 -8z"/>
<path d="M1896 1902 c-3 -5 1 -9 9 -9 8 0 12 4 9 9 -3 4 -7 8 -9 8 -2 0 -6 -4
-9 -8z"/>
<path d="M5046 1902 c-3 -5 1 -9 9 -9 8 0 15 4 15 9 0 4 -4 8 -9 8 -6 0 -12
-4 -15 -8z"/>
<path d="M1933 1883 c4 -3 1 -13 -6 -22 -11 -14 -10 -14 5 -2 16 12 16 31 1
31 -4 0 -3 -3 0 -7z"/>
<path d="M1955 1850 c-3 -6 1 -7 9 -4 18 7 21 14 7 14 -6 0 -13 -4 -16 -10z"/>
<path d="M5030 1832 c9 -19 30 -23 30 -5 0 4 -3 3 -7 0 -3 -4 -12 1 -20 11
-13 15 -13 15 -3 -6z"/>
<path d="M5011 1814 c0 -11 3 -14 6 -6 3 7 2 16 -1 19 -3 4 -6 -2 -5 -13z"/>
<path d="M2011 1784 c0 -11 3 -14 6 -6 3 7 2 16 -1 19 -3 4 -6 -2 -5 -13z"/>
<path d="M4951 1747 c-8 -10 -7 -14 2 -14 8 0 14 6 14 14 0 7 -1 13 -2 13 -2
0 -8 -6 -14 -13z"/>
<path d="M2030 1715 c5 -7 7 -14 4 -18 -3 -3 2 -4 12 -3 10 2 20 9 22 17 3 11
1 11 -7 -1 -9 -13 -15 -8 -13 11 1 3 -6 6 -13 6 -10 0 -12 -4 -5 -12z"/>
<path d="M4930 1710 c-9 -6 -10 -10 -3 -10 6 0 15 5 18 10 8 12 4 12 -15 0z"/>
<path d="M4916 1673 c-6 -14 -5 -15 5 -6 7 7 10 15 7 18 -3 3 -9 -2 -12 -12z"/>
<path d="M2116 1635 c4 -8 1 -21 -5 -28 -8 -10 -7 -14 4 -14 8 0 11 5 8 10 -4
6 0 8 10 4 16 -6 16 -5 1 18 -18 28 -26 32 -18 10z"/>
<path d="M4900 1646 c0 -2 8 -10 18 -17 15 -13 16 -12 3 4 -13 16 -21 21 -21
13z"/>
<path d="M4956 1627 c3 -10 9 -15 12 -12 3 3 0 11 -7 18 -10 9 -11 8 -5 -6z"/>
<path d="M1996 1622 c-3 -5 1 -9 9 -9 8 0 12 4 9 9 -3 4 -7 8 -9 8 -2 0 -6 -4
-9 -8z"/>
<path d="M2053 1615 c0 -8 4 -12 9 -9 5 3 6 10 3 15 -9 13 -12 11 -12 -6z"/>
<path d="M4834 1619 c-3 -6 -1 -16 5 -22 9 -9 10 -7 5 8 -7 18 -6 19 12 5 18
-14 18 -14 5 3 -16 20 -18 20 -27 6z"/>
<path d="M4796 1581 c-3 -4 6 -7 19 -7 14 0 22 2 19 5 -8 8 -34 10 -38 2z"/>
<path d="M4784 1545 c-19 -15 -19 -15 1 -8 18 6 19 5 5 -13 -11 -15 -11 -16 0
-7 11 11 24 43 16 43 -1 0 -11 -7 -22 -15z"/>
<path d="M2156 1539 c4 -8 30 -6 38 2 3 3 -5 5 -19 5 -13 0 -22 -3 -19 -7z"/>
<path d="M2240 1500 c-9 -6 -10 -10 -3 -10 6 0 15 5 18 10 8 12 4 12 -15 0z"/>
<path d="M2175 1491 c-3 -5 -2 -12 3 -15 5 -3 9 1 9 9 0 17 -3 19 -12 6z"/>
<path d="M4760 1480 c-9 -6 -10 -10 -3 -10 6 0 15 5 18 10 8 12 4 12 -15 0z"/>
<path d="M4668 1448 c-7 -17 15 -19 29 -3 4 4 3 5 -4 2 -6 -4 -13 -2 -15 5 -3
8 -6 6 -10 -4z"/>
<path d="M2333 1422 c1 -12 6 -18 15 -15 7 3 10 9 5 12 -4 3 -11 10 -15 15 -4
4 -6 -1 -5 -12z"/>
<path d="M2311 1387 c2 -1 13 -9 24 -17 19 -14 19 -14 6 3 -7 9 -18 17 -24 17
-6 0 -8 -1 -6 -3z"/>
<path d="M4600 1380 c-12 -7 -10 -9 8 -7 12 0 22 5 22 9 0 11 -12 10 -30 -2z"/>
<path d="M4670 1376 c7 -7 13 -7 20 0 6 6 3 10 -10 10 -13 0 -16 -4 -10 -10z"/>
<path d="M4526 1298 c3 -5 10 -6 15 -3 13 9 11 12 -6 12 -8 0 -12 -4 -9 -9z"/>
<path d="M2515 1280 c-3 -5 -1 -10 4 -10 6 0 11 5 11 10 0 6 -2 10 -4 10 -3 0
-8 -4 -11 -10z"/>
<path d="M4440 1260 c-12 -7 -10 -9 7 -7 12 0 19 5 17 9 -6 10 -6 10 -24 -2z"/>
<path d="M2456 1247 c3 -10 9 -15 12 -12 3 3 0 11 -7 18 -10 9 -11 8 -5 -6z"/>
<path d="M4391 1255 c0 -5 3 -16 8 -23 7 -11 9 -10 14 3 4 9 3 14 -2 10 -5 -3
-12 1 -14 7 -3 7 -6 9 -6 3z"/>
<path d="M2554 1226 c1 -8 5 -18 8 -22 4 -3 5 1 4 10 -1 8 -5 18 -8 22 -4 3
-5 -1 -4 -10z"/>
<path d="M2610 1221 c0 -6 4 -13 10 -16 6 -3 7 1 4 9 -7 18 -14 21 -14 7z"/>
<path d="M4350 1222 c0 -4 9 -8 20 -9 11 -1 20 2 20 5 0 4 -9 8 -20 9 -11 1
-20 -2 -20 -5z"/>
<path d="M4325 1199 c-4 -6 -5 -12 -2 -15 2 -3 7 2 10 11 7 17 1 20 -8 4z"/>
<path d="M2580 1185 c0 -2 6 -8 13 -14 10 -8 14 -7 14 2 0 8 -6 14 -14 14 -7
0 -13 -1 -13 -2z"/>
<path d="M2650 1181 c0 -6 4 -12 8 -15 5 -3 9 1 9 9 0 8 -4 15 -9 15 -4 0 -8
-4 -8 -9z"/>
<path d="M4276 1181 c9 -9 34 -9 34 -1 0 5 -9 8 -20 7 -10 -1 -17 -3 -14 -6z"/>
<path d="M2720 1155 c-9 -11 -10 -19 -3 -26 8 -8 11 -6 10 7 -1 11 4 18 11 16
8 -1 11 2 7 8 -8 13 -10 13 -25 -5z"/>
<path d="M4236 1153 c-6 -14 -5 -15 5 -6 7 7 10 15 7 18 -3 3 -9 -2 -12 -12z"/>
<path d="M2680 1140 c-9 -6 -10 -10 -3 -10 6 0 15 5 18 10 8 12 4 12 -15 0z"/>
<path d="M4135 1123 c3 -3 -3 -12 -13 -20 -13 -10 -14 -13 -2 -11 8 2 14 -3
12 -10 -1 -8 1 -11 6 -8 10 6 9 43 -1 51 -4 3 -5 2 -2 -2z"/>
<path d="M2666 1098 c3 -5 10 -6 15 -3 13 9 11 12 -6 12 -8 0 -12 -4 -9 -9z"/>
<path d="M2874 1085 c0 -13 3 -22 7 -19 8 4 6 30 -2 38 -3 3 -5 -5 -5 -19z"/>
<path d="M2906 1083 c-6 -14 -5 -15 5 -6 7 7 10 15 7 18 -3 3 -9 -2 -12 -12z"/>
<path d="M4036 1091 c-3 -5 1 -11 9 -14 9 -4 12 -1 8 9 -6 16 -10 17 -17 5z"/>
<path d="M2840 1080 c-9 -6 -10 -10 -3 -10 6 0 15 5 18 10 8 12 4 12 -15 0z"/>
<path d="M2954 1069 c-3 -6 -2 -15 3 -20 5 -5 9 -1 10 11 2 22 -2 25 -13 9z"/>
<path d="M3980 1057 c-11 -19 -11 -20 1 -10 16 13 36 12 59 -2 13 -8 13 -7 1
8 -8 10 -16 15 -19 12 -3 -3 -10 -1 -16 5 -8 6 -16 2 -26 -13z"/>
<path d="M2920 1060 c-9 -6 -10 -10 -3 -10 6 0 15 5 18 10 8 12 4 12 -15 0z"/>
<path d="M2991 1047 c-13 -21 -12 -21 5 -5 10 10 16 20 13 22 -3 3 -11 -5 -18
-17z"/>
<path d="M3021 1054 c0 -11 3 -14 6 -6 3 7 2 16 -1 19 -3 4 -6 -2 -5 -13z"/>
<path d="M4099 1068 c-5 -18 -6 -38 -1 -34 7 8 12 36 6 36 -2 0 -4 -1 -5 -2z"/>
<path d="M3153 1025 c0 -8 4 -15 9 -15 4 0 8 7 8 15 0 8 -4 15 -8 15 -5 0 -9
-7 -9 -15z"/>
<path d="M4013 1025 c0 -8 4 -12 9 -9 5 3 6 10 3 15 -9 13 -12 11 -12 -6z"/>
<path d="M2926 1018 c3 -5 10 -6 15 -3 13 9 11 12 -6 12 -8 0 -12 -4 -9 -9z"/>
<path d="M3056 1018 c3 -4 11 -5 19 -1 21 7 19 12 -4 10 -11 0 -18 -5 -15 -9z"/>
<path d="M3221 1021 c-10 -7 -7 -9 12 -8 14 1 23 5 20 10 -6 9 -15 9 -32 -2z"/>
<path d="M3795 1021 c-3 -5 -2 -12 3 -15 5 -3 9 1 9 9 0 17 -3 19 -12 6z"/>
<path d="M3946 1018 c3 -5 10 -6 15 -3 13 9 11 12 -6 12 -8 0 -12 -4 -9 -9z"/>
<path d="M3505 1007 c-15 -12 -16 -15 -4 -22 8 -5 11 -5 7 0 -4 4 0 14 10 21
23 18 11 18 -13 1z"/>
<path d="M2976 1001 c-3 -5 2 -15 12 -22 15 -12 16 -12 5 2 -7 9 -10 19 -6 22
3 4 4 7 0 7 -3 0 -8 -4 -11 -9z"/>
<path d="M3106 998 c3 -4 9 -8 15 -8 5 0 9 4 9 8 0 5 -7 9 -15 9 -8 0 -12 -4
-9 -9z"/>
<path d="M3347 989 c6 -22 20 -26 20 -4 0 8 -6 16 -13 19 -7 3 -10 -2 -7 -15z"/>
<path d="M3535 1000 c-3 -6 1 -7 9 -4 18 7 21 14 7 14 -6 0 -13 -4 -16 -10z"/>
<path d="M3594 981 c0 -16 4 -27 8 -25 4 2 5 14 3 26 -7 32 -13 32 -11 -1z"/>
<path d="M3679 1008 c-6 -18 -3 -46 3 -42 5 4 7 12 4 19 -3 8 0 16 7 19 9 3 9
5 0 5 -7 1 -13 0 -14 -1z"/>
<path d="M3824 1002 c4 -3 14 -7 22 -8 9 -1 13 0 10 4 -4 3 -14 7 -22 8 -9 1
-13 0 -10 -4z"/>
<path d="M3959 998 c-5 -18 -6 -38 -1 -34 7 8 12 36 6 36 -2 0 -4 -1 -5 -2z"/>
<path d="M3436 974 c-3 -9 -11 -12 -18 -8 -7 4 -9 3 -5 -1 14 -16 33 -13 34 6
2 23 -3 24 -11 3z"/>
<path d="M3550 980 c0 -5 5 -10 11 -10 5 0 7 5 4 10 -3 6 -8 10 -11 10 -2 0
-4 -4 -4 -10z"/>
<path d="M3700 986 c0 -2 8 -10 18 -17 15 -13 16 -12 3 4 -13 16 -21 21 -21
13z"/>
<path d="M3173 965 c0 -8 4 -12 9 -9 5 3 6 10 3 15 -9 13 -12 11 -12 -6z"/>
<path d="M3210 959 c0 -5 5 -7 10 -4 6 3 10 8 10 11 0 2 -4 4 -10 4 -5 0 -10
-5 -10 -11z"/>
<path d="M3295 960 c3 -5 8 -10 11 -10 2 0 4 5 4 10 0 6 -5 10 -11 10 -5 0 -7
-4 -4 -10z"/>
</g>
</svg>
