<svg version="1.0" xmlns="http://www.w3.org/2000/svg" width="920" height="920" viewBox="0 0 690 690"><path d="M454.6 143.7c-.1.1-5.4.9-11.7 1.8-14.9 2-15.5 2.1-25.1 5.1-15.2 4.8-23.9 9.9-31.8 18.5-3.8 4.1-5.2 5-9 5.5-5.5.7-14.3 3.4-15.1 4.6-.3.5-.9.9-1.3.8-.8-.2-12.8 9.7-12.4 10.2.2.2-.8 1.5-2 2.8-2.3 2.4-4.1 5.8-3.8 7.2 0 .3-2.4 2.6-5.4 5-11.8 9.3-17.4 16.6-15.4 20 .6 1 .5 1.1-.7.1s-1.5-.7-1.4 1.7c0 1.6.4 3.2.8 3.6.4.4.1 1.4-.6 2.2-.9 1.3-.9 1.4.1.8.7-.4 1.2-.1 1.2.9 0 .9-.4 1.4-.9 1-.5-.3-1.3 0-1.7.6-.4.7-.3.9.3.6.6-.4 1.8.4 2.7 1.8 1.1 1.6 1.2 2.6.5 3.1-.6.3-.9 1.4-.6 2.4.2.9 0 2.6-.5 3.6-.9 1.8-.8 1.8.5.2.8-1 1.8-1.4 2.3-1 .4.4.2-.1-.5-1s-1-2.2-.6-2.8c1.1-1.8 2.5 0 2.1 3-.2 2.2 0 2.7 1.3 2.3 1.3-.3 1.2-.2-.2.7-.9.6-2.1.9-2.6.5-.5-.3-1.2-.2-1.5.3-.2.4-1.8.9-3.6 1-1.7.1-5.7.9-9 1.6-3.3.8-6 1.2-6 .9 0-.3-.7 0-1.5.7s-2.2 1-3 .6c-1-.3-1.5.1-1.5 1.2 0 1.5-.2 1.5-1 .2-.6-1-1-1.1-1-.2 0 .6-.3 1.1-.7 1.1-.5-.1-1 0-1.3.1-1.3.4-4.7 1.2-6.2 1.3-1 .1-1.8.5-1.8 1 0 .4-.4.5-1 .2-.5-.3-1-.1-1 .5 0 .8-.7.9-1.7.5-3-1.2-5.4-1.4-4.8-.6.8 1.4-3.2 2-4.6.7-1.1-.9-1.1-.8-.1.6 1.4 1.8 3.3 1.8 5.5 0 1-.9 1.7-1 2.2-.2.3.5.4 1.1.1 1.1-1.6.4-2.6.7-3.1.9-.3.1-.9.3-1.4.4-.5 0-1.3.4-1.7.8-.4.5-1.2.8-1.8.8-.6 0-.5-.4.2-.9 1.1-.7 1.1-.9-.2-1.4-.9-.4-1.6-.2-1.6.4 0 .6-.5.7-1 .4-.6-.4-.7-1.1-.4-1.7.4-.7.2-.8-.4-.4-.6.4-.8 1.4-.5 2.3.4 1.1.2 1.4-.8 1.1-.8-.3-1.9.1-2.6.8-1.5 1.5-1.7 2.8-.4 1.9.5-.3 1.2-.1 1.5.4.7 1-1.3.9-3-.2-.6-.3-2 .3-3 1.6l-1.9 2.2 2.3-1.9c1.2-1.1 2.2-1.4 2.2-.8 0 2.3-3.6 3.2-6.1 1.5-2.1-1.5-2.2-1.5-1.1-.1.7.9.9 1.8.5 2-.4.3-.2.3.5.2 1.7-.5 1.5 1.3-.3 2s-3.1.4-2.7-.7c.1-.4-.3-.7-.8-.7-.6 0-.8 1.1-.4 2.6.4 1.7.3 2.5-.3 2.1-.6-.4-1.8.2-2.8 1.3-1.8 2-4.5 2.7-4.5 1.2 0-.5-.6-.9-1.3-.9-.8 0-1.4.6-1.4 1.3 0 .7.6 1 1.4.7.7-.3 1.3 0 1.3.6s-.6 1.1-1.3 1.1c-.7 0-1.8.9-2.5 2s-1.9 2-2.7 2c-.8 0-1.5.4-1.5 1 0 .5-.5 1-1.1 1-.6 0-.8-.7-.5-1.6.3-.9.2-1.2-.5-.9-.5.4-.7 1.5-.4 2.6.6 1.7-.3 2.4-2.8 2-.4 0-.6.5-.5 1.1.2.7-.3 1.2-1 1-.8-.1-1.1.1-.8.6.3.5-1.4 2.7-3.7 4.9-2.3 2.2-5.8 5.9-7.7 8.1-2.6 3.1-4 4-5.5 3.6l-2-.6 2 1.6c1.8 1.4 1.9 1.5.2 1.6-1 0-1.5.4-1.2 1 .3.5.3 1-.2 1.1-2.4.2-4.6.8-5.1 1.5-.4.4.1.4 1.1.1 2.1-.8 2.2.6.2 2.7-.8.8-1.5 1.7-1.5 2.1 0 .3-.5 1.1-1 1.8-2.6 3.1-5.8 8.6-5.2 9.1.5.6-1.4 1-3.1.7-.5-.1-.6.3-.2.9.4.6-.2 2.8-1.4 4.9-1.1 2.2-1.7 4.2-1.4 4.5.4.3.1.6-.5.6-.7 0-1.2.7-1.2 1.5s-1 2.4-2.2 3.6c-1.3 1.2-1.7 1.8-1 1.4 1.1-.6 1.2-.3.2 1.4-.6 1.3-1.6 1.9-2.3 1.4-.8-.4-.8-.1.1.9 1.1 1.4 1.1 2 0 3.7-.7 1.2-1.6 2.1-2 2.1-.4 0-.5.6-.2 1.4.3.8 0 1.7-.5 2.1-.6.3-.9 1-.6 1.5.3.5-.2 2.6-1.1 4.7-1.6 3.6-1.8 4.6-2.2 8.6-.1 1.1-.7 1.6-1.4 1.1-1-.5-1-.4-.1.6.9.9.9 1.9.2 3.2-.6 1.1-.8 2.6-.5 3.4.3.8.1 1.4-.3 1.4-.5 0-.7 1-.3 2.2.3 1.4.2 1.9-.6 1.4-.7-.4-1.2-.2-1.2.3 0 .6.5 1.1 1 1.1.7 0 .7.6.1 1.9-.6 1-.7 2.2-.3 2.6.4.5 0 .6-.8.3-1.1-.4-1.6.1-1.7 1.6 0 1.1.1 1.5.4.8.3-.6.8-1.2 1.2-1.2 1.1 0 0 6.4-1.3 7.2-.8.6-.8.8 0 .8.9 0 1.1 3.4.5 8.2-.1.4-.9.5-1.8.2-1.3-.3-1.2-.1.2.6 1.5.8 2 2.1 2 5.1 0 2.1-.4 3.9-.9 3.9-.6 0-.5.5.2 1.2s1.2 2.7 1.2 4.6c0 2.7-.3 3.3-1.6 2.8-.8-.3-1.2-.2-.9.4.3.6 1.2 1 1.8 1 .7 0 1.3.9 1.4 2 .1 1.3-.2 1.8-1 1.3-.9-.5-.9-.3-.1.8 1.6 2.1 2.6 5.1 1.4 4.4-.6-.3-1-.1-1 .4 0 .6.5 1.1 1.1 1.1.5 0 .7.4.4 1-.3.5-.1 1 .6 1s.4.6-.7 1.4c-1 .8-1.6 1.8-1.1 2.2.4.4.7.2.7-.4 0-.7.4-1.2.9-1.2s.8 1.1.5 2.5c-.2 1.4 0 2.5.5 2.5s1.1 1.4 1.3 3c.4 2.3.1 3-.9 2.6-.8-.3-1.1-.1-.8.4.3.6 1.2 1 1.8 1 .7 0 1.4 1.1 1.5 2.6.1 1.4.6 3.3 1.1 4.2.4.9.7 2.5.6 3.4-.2.9.4 1.9 1.2 2.2.8.4 1.3 1.3.9 2.1-.3.8-.1 1.5.5 1.5s.7.5.4 1c-.4.6-1 .8-1.4.6-.3-.3-.7.4-.7 1.5 0 1.8.2 1.8 1.2.5.6-.9 1.4-1.6 1.8-1.6 1.1 0 .6 2.8-.6 3.3-.7.3-.4.6.8.6 1.1.1 2.1.7 2.2 1.3.6 4.9 1 6 2.7 7.2 1 .7 1.5 1.8 1.2 2.3-.4.6 0 1.4.8 1.7 1.3.4 1.4 1 .5 2.6-.9 1.6-.8 1.9.6 1.3 1-.3 1.5-.2 1.2.3-.8 1.2 1.7 3.5 2.8 2.6.4-.4.4-.2.1.4-.4.6.7 3 2.3 5.3 1.7 2.2 2.8 4.1 2.5 4.1-.6 0 .7 1.7 4.1 5.3 1.3 1.5 2 3.3 1.8 5.2-.3 2.2-.1 2.5.5 1.1.7-1.8.8-1.8 2.2-.2.8 1 2.2 2.5 3.2 3.4.9.9 1.7 2.2 1.7 2.8 0 .7.7 1.5 1.6 1.8.8.3 1.2 1 .9 1.6-.4.6.1.7 1.1.3 1.2-.4 1.5-.3 1 .5-.4.7-.2 1.2.4 1.2.6 0 .8.5.5 1-.3.6 0 1 .7 1 1.7.1 5.8 3.5 5.8 4.9 0 .6.7 1.1 1.6 1.1 1.1 0 1.4.6.9 2.2-.5 1.8-.4 1.9.4.8.8-1.2 1.4-1.1 3.5.9 1.4 1.3 2.3 2.7 2.1 3.2-.3.4 0 1.1.6 1.5.8.4.9.3.5-.4-1-1.7 1.3-1.5 3 .2 1.9 2 1.8 2.6-.6 2.1-1.1-.2-2.3.2-2.6.8-.4.7-.4.9.1.5.4-.4 1.5.1 2.4 1 .9 1 1.3 1.3.9.8-1.9-2.4 0-2.8 5-1.1 1.5.5 2.1 1.3 1.8 2.2-.3.8-.6 1.7-.6 1.9 0 .3-.5.2-1-.1-.6-.4-.7-1.2-.4-1.8.4-.7.3-.8-.1-.4-.5.4-1 1.5-1.1 2.3-.1.9 0 1.3.3 1 .4-.3 1.6.2 2.7 1.1 1.4 1.2 1.7 1.3.9.3-.7-1-.8-2.1-.3-3 .7-1.1 1.1-1.1 2.4-.1.9.8 1.6 1 1.6.5s.5-.1 1.1.9c.6 1 1.5 1.4 2.2 1 .7-.4.6.1-.2 1-.8 1-1.1 2-.7 2.4.3.3.6.1.6-.5 0-.7.7-1.2 1.6-1.2 1.3 0 1.4.3.5 1.3-.8 1.1-.5 1.3 1.9.9 2.4-.3 3-.1 3 1.4 0 1.6.2 1.7 1 .4.7-1.1 1-1.1 1-.2 0 .7.5 1 1 .7.6-.3 1-.1 1 .4 0 .6.7 1.1 1.5 1.1 1.1 0 1.4.7 1 2.7-.5 2.6-.5 2.6.5.5.9-2 1.2-2.1 3.2-1 1.3.7 2.7 1.1 3.2 1 .5-.2.6.4.2 1.3-.4 1.3-.2 1.4 1.3.5 1.3-.7 2-.7 2.3.1.2.5 1.3 1.1 2.6 1.2 1.2 0 2.2.5 2.2.9s.9.8 2 .8 2 .4 2 .8c0 .5.6.9 1.3 1 .6 0 2.1.3 3.2.6s3.6 1 5.5 1.5 4.9 1.4 6.5 1.9c1.7.5 3.6.7 4.3.5.6-.3 1.2.3 1.2 1.2 0 .9.5 1.3 1 1 .6-.4.7-1.1.4-1.7-.4-.6 0-.6 1.3.1 1.1.6 2.3.7 2.7.4.3-.3.6-.2.6.3s1.5 1.1 3.3 1.2c1.7 0 4.1.3 5.2.6 1.1.2 2.8.5 3.8.5 1.2.1 1.6.5 1.1 1.3-.6 1-.4 1 .7.3 2.8-2.1 6.6-1.7 8.4.7l1.7 2.3-.7-2.5c-.6-2.4-.5-2.4.9-.6 1.4 1.7 1.6 1.8 1.6.3 0-.9.5-1.7 1-1.7.6 0 1 .8 1 1.7 0 1.1.3 1.4.8.7.8-1.3 1.4-1.4 10-1.7 4.3-.1 6.1.1 5.8.9-.3.7.3 1 1.6.6 1.5-.4 1.7-.7.6-1.3-.7-.5-.8-.9-.2-.9.5 0 1.6.6 2.3 1.2 1.1 1 1.3 1 .7 0-.5-.8.4-1.2 3.1-1.4 3.8-.1 6.4-.4 7.3-.8.3-.1 1.8-.4 3.3-.6 2.1-.4 2.7-.2 2.2.8-.4.7 0 .5.8-.4 1.4-1.8 3.3-2.5 2.3-1-.2.4 0 1.4.6 2.2.8 1.3.9 1.2.5-.2-.6-1.7 1.5-4.2 2.6-3.1.4.3.7 0 .7-.8.1-1 .5-.8 1.5.5 1.4 1.9 1.5 1.9 1.5.1 0-1 .2-1.6.6-1.3.3.3 2.8-.3 5.6-1.4 3.9-1.4 5.3-1.6 6.4-.7 1.2 1 1.3.8.8-.7-.7-1.8-.6-1.8 1.7.1 1.3 1.1 1.8 1.3 1.2.5-1.7-1.8-1.6-2.7.2-2.7.8 0 1.2.5.9 1.1-.3.6 0 .4.8-.5 1.4-1.6 5.3-3.5 4.4-2.1-.2.4 0 1.4.6 2.2.8 1.3.9 1.3.5-.1-.8-2.4.3-3.3 6.6-5.8 3.1-1.3 5.7-2.8 5.7-3.5 0-.6.5-.4 1 .4.6.9 1 1 1 .3 0-1.3 8.6-6.4 11.2-6.6.9-.1 1.4-.5 1.1-1-.3-.4.4-1.1 1.6-1.4 1.2-.3 2.1-.9 2.1-1.4 0-.4.9-.6 1.9-.4 1.5.3 1.8 0 1.4-1.3-.6-1.5-.5-1.5 1-.3 1 .8 2 1.1 2.4.7.3-.3.1-.6-.5-.6-.7 0-1.2-.7-1.2-1.6 0-1.4.2-1.4 1.6-.3 2.3 1.9 4.4 2 3.7.2-.4-1.1-.8-1.1-1.3-.3s-1 .9-1.4.2c-.3-.6.6-2 2.1-3.1 1.6-1.1 3.4-2.6 4.1-3.2.7-.6 2.3-.9 3.5-.5 2 .5 2.1.4.4-.8-1.6-1.3-1.6-1.5 1-3.1 1.5-1 3.7-2.8 5-4.1 1.3-1.3 3.1-2.1 4.3-1.9 1.2.2 1.8 0 1.5-.6-.4-.5-1.1-.7-1.6-.4-1.7 1.1-.9-.8 1.4-3 1.2-1.2 3.9-4 6.1-6.4 3.2-3.5 4.1-4 5.5-2.9 1.3 1 1.4 1 .4-.2-1.7-1.9-1.6-3.3.1-2.7 1 .4 1.3.1 1-.8-.7-1.6 2-4.8 3-3.7.4.3.4-.1.1-1-.4-.9 0-1.8 1-2.2.9-.3 1.4-1 1-1.5-.3-.6.1-1.3.9-1.8 1.4-.7 1.6-1.2 1.6-3.1 0-.4.5 0 1.1.8.9 1.2 1 1.1.6-.7-.3-1.3.1-2.4 1-2.7.8-.3 1.2-1 .9-1.5-.4-.5.1-1.7 1-2.5.8-.9 1.2-1.6.7-1.6-.4 0-.3-.4.2-.8.6-.4 1.6-2 2.3-3.5 1-2.4 1.5-2.6 3.4-1.7 2.3 1.1 2.3 1.1.3-.6-1.2-1-1.6-1.8-.9-2.1.7-.2 1-1.3.7-2.3-.7-2.5 1.4-2.7 2.1-.3.3 1 .4.5.2-1.1-.5-3.7.3-5.8 1.8-4.9.6.4.4-.2-.4-1.2-1.2-1.5-1.2-1.7-.1-1 1.1.6 1.3.4.8-.8-.3-1-.3-1.7.1-1.7s.8-1 .9-2.2c.1-1.1.6-2.4 1-2.7.9-.7 1.6-2.8 1.7-5.4 0-.9.3-1.7.6-1.7.5 0 .9-1.8 1.2-5.8.1-.6.5-1.2 1-1.2s.6-.5.3-1c-.3-.6-.1-1 .5-1s.8-.5.5-1c-.3-.6 0-1 .7-1 1 0 1-.2 0-.9-1.8-1.1-1.7-2 .5-3.8 1-.8 1.1-1.1.3-.7-1.3.7-1.3.5-.1-.9 1.1-1.4 1.1-1.7 0-1.7-.9 0-1-.3-.4-.8.6-.4 1.1-3 1.3-5.7.2-2.8.7-5.2 1.2-5.3.6-.2 1-.8 1-1.3 0-.6-.5-.7-1-.4-.9.6-1-.9-.1-5.5.1-.3.6.2 1.1 1 .6.9 1 1 1 .3 0-.6-.7-1.8-1.5-2.6-1.7-1.7-1-2.8 1.3-2.1 1 .3.7-.1-.5-.7-1.8-1-2-1.5-1.2-3.8.7-1.7.7-2.7 0-2.9-.6-.2-.7-1.2-.1-2.7.5-1.2.6-2.6.2-3-.3-.3 0-1 .8-1.5 1.3-.9 1.3-1 0-1-1.1 0-1.5-1.4-1.7-5.5-.1-3.1.1-5.3.6-5.1.4.3.7-.6.7-1.9 0-1.3-.4-2.1-.8-1.9-.5.3-.6 1-.3 1.5.4.5.2.9-.3.9-.6 0-.9-1-.9-2.3.1-1.2-.2-3.6-.6-5.2-.7-2.8-.6-2.9.8-1.1.8 1.1 1.7 1.7 2 1.4.3-.3-.6-1.7-2.1-3.1-1.4-1.4-2.3-3.1-1.9-3.7.4-.6.2-1.7-.5-2.5-.9-1-.7-1.6.7-2.5 1.4-.9 1.5-1 .1-.6-1 .3-1.8-.2-2.1-1.5-.4-1.6-.1-1.9 1.6-1.5 1.2.3 1.6.3.9 0-.6-.3-1-1-.7-1.5.4-.5-.2-.6-1.2-.2-1 .3-1.5.3-1.1-.2.4-.4 0-1.4-.8-2.2-1.2-1.2-1.2-1.8-.3-3 1-1.1 1-1.3-.1-1.1-.7.2-1.4-.2-1.7-.9-.3-.8.3-1.1 1.6-.8 1.1.2 2.3 0 2.6-.5.3-.5-.3-.7-1.4-.5-1.1.2-2.4-.2-2.8-.8-1.6-2.2-4.3-8.8-3.4-8.3 1.1.7 2.3-2.2 1.4-3.7-.4-.6 0-.8 1-.4.9.3 1.9.2 2.3-.4.3-.6 1.2-.8 2-.5.8.3 1.1 0 .8-.8-.3-.7-1.1-1.3-1.9-1.3-.8 0-1.1.5-.8 1.1.3.6.3.8-.2.4-.4-.4-1.6-.3-2.6.3-1.4.7-1.7.6-1.3-.4.3-.8-.1-1.7-.9-2-.7-.3-1.4.1-1.4.9 0 .7.4 1.1.9.8.4-.3.5.2.2 1-.7 1.8-2.7 1-2.1-.7.2-.7 0-2-.5-3-.8-1.6-.7-1.7 1-.8 1.1.6 2.2.7 2.6.4.3-.3.6-.1.6.4 0 1.2 2.5 1.2 3.6.1.3-.4 1.2-.4 1.9-.2.7.3 1.6 0 2-.6.5-.8 1.3-.6 2.8.7 1.3 1 1.7 1.2 1 .3-.9-1.2-.7-2 1.2-3.6 1.3-1.2 2.7-1.9 3.1-1.5.4.3.4 0 0-.7s-.2-1.9.4-2.7c.7-.8.9-1.5.5-1.5s-.3-.6.1-1.3c.8-1.1 1-3.2.4-4.7-.5-1.3-1-4.9-1.2-8.7-.2-2.4-.6-4.3-.9-4.3-.6 0-3.5-10.2-3.1-11.3.1-.4-.2-.7-.7-.7-.5 0-1.1-.9-1.4-1.9-.3-1.5.2-2 2.5-2.5 1.7-.3 4-.6 5.3-.6 1.2 0 3.3-.9 4.6-2.1 1.3-1.1 2.9-2.4 3.5-2.7 2.7-1.7 5.7-8.7 5.9-13.6.6-14.1-13.6-24.6-26.8-20-2.3.8-3.8 1.2-3.4.8.6-.7-4.6-11.8-6.7-14-6.4-6.9-9.4-10-10.2-10.4-.5-.3-.8-.8-.7-1.1.1-.3-.3-.6-1-.6-2.3-.2-8.8-4.1-7.5-4.6.7-.2.2-.4-1.2-.4s-4.9-1-7.9-2.1c-2.9-1.2-5.6-2.1-6-2-1.8.2-3.2-.3-2.7-1 .3-.5-.3-.8-1.2-.8-4.6 0-7.3-.5-6.9-1.2.3-.4-1.6-.8-4.1-.9-2.6-.1-4.8-.6-5-1.1-.2-.6-1.2-.7-2.4-.4-1.3.3-1.9.1-1.5-.5.4-.6-.4-.8-2-.5-1.9.4-2.4.2-1.8-.8.5-.8.4-1.1-.3-.7-1.5 1-4.3-.3-3.5-1.6.3-.6.1-.7-.5-.3-.7.4-2.2-.3-3.4-1.5-1.8-1.7-1.9-2-.4-1.2 1.1.6 3.1.7 4.7.3 1.7-.5 3.2-.4 3.9.3 1 .9 1.1.9.7.1-.4-.7 0-1.4.8-1.8.8-.3 1.5 0 1.5.7 0 .8.3.8.8.2.4-.6 1.6-1.1 2.7-1 1.1 0 2.6-.7 3.3-1.5 1.2-1.3 1.3-1.2.7.4-.6 2-.6 2 1.5.1 1.8-1.6 2.3-1.7 3-.5.8 1.2 1 1.2 1-.3 0-1 .4-1.6.9-1.2.5.3 1.3.1 1.6-.5.5-.8 1.1-.7 2.1.1 1.2 1 1.5 1 1.2-.2-.2-.9.5-1.4 2-1.3 1.2.1 2.2-.3 2.2-.8 0-.6.7-.7 1.6-.4 1 .4 1.3.2.8-.6-.5-.7.1-.9 2-.6 2.3.5 2.4.3 1.4-1-1.1-1.3-1.1-1.4 0-.8.8.5 2.1.1 3.2-.9 1-.9 2.4-1.4 2.9-1 .6.3 1.1-.1 1.1-1 0-1.1.5-1.5 1.5-1.2.8.4 1.7.1 2.1-.5.5-.7.2-.8-.7-.3-.8.5.3-.8 2.4-2.9 7.4-7.5 3.4-12.5-13.8-17.3-.5-.1-3.5-1-6.5-1.8-3-.9-9.1-2.3-13.5-3.2-4.4-.9-8.2-1.7-8.4-1.9-.2-.2 2.1-3.6 5.1-7.6 8.5-11.2 11.2-16.3 9.8-18.7-.6-1.2-1.4-2.2-1.8-2.2-1.7-.3-6.3-.5-6.6-.2zM513 352c0 .5-.7 1-1.6 1-.8 0-1.2-.5-.9-1 .3-.6 1-1 1.6-1 .5 0 .9.4.9 1zm-332 71.4c0 .2-.7.7-1.6 1-.8.3-1.2.2-.9-.4.6-1 2.5-1.4 2.5-.6zm32 12.2c0 .8-1.9 1.3-2.4.6-.3-.5.1-.9.9-.9s1.5.2 1.5.3zm-.7 7.9c-.3.9-.8 1.4-1 1.1-.3-.3-.2-.9.2-1.5.9-1.6 1.5-1.3.8.4zm24.2 55.4c.3.5.2 1.2-.3 1.5-.5.3-.9-.1-.9-.9 0-1.7.3-1.9 1.2-.6z"/><path d="M319.7 240.4c-.4 1-.1 1.3.8.9.8-.3 1.2-.9.9-1.4-.7-1.2-1.1-1.1-1.7.5zM311.3 242.5c0 .8.4 1.2.9.9.5-.3.6-1 .3-1.5-.9-1.3-1.2-1.1-1.2.6zM302 246c-1.2.7-1 .9.7.7 1.2 0 1.9-.5 1.7-.9-.6-1-.6-1-2.4.2zM315.6 248.1c.3.5.9.7 1.4.4.4-.3 1.1 0 1.3.5.3.6.4.5.3-.1-.1-.7-1-1.3-1.9-1.5-.9-.1-1.5.2-1.1.7zM298.5 250c-.3.6.1.7.9.4 1.8-.7 2.1-1.4.7-1.4-.6 0-1.3.4-1.6 1zM306.6 250.3c.3 1 .9 1.5 1.2 1.2.3-.3 0-1.1-.7-1.8-1-.9-1.1-.8-.5.6zM292.6 252.2c.3.5 1 .6 1.5.3 1.3-.9 1.1-1.2-.6-1.2-.8 0-1.2.4-.9.9zM288.4 254.1c-.3.6-.2 1.5.3 2s.9.1.9-1.1c0-2.3-.2-2.4-1.2-.9zM279.7 256.5c-.4.8-.3 1.6.1 1.9.4.3.9-.4.9-1.5.2-2.3-.3-2.5-1-.4zM282.5 256.1c-.4.6-.4 1.3-.1 1.6.3.4.6.1.6-.6s.5-.9 1.2-.5.8.3.4-.4c-.9-1.5-1.3-1.5-2.1-.1zM269.3 258.5c0 .8.4 1.2.9.9.5-.3.6-1 .3-1.5-.9-1.3-1.2-1.1-1.2.6zM263.4 263.2l-1.9 2.3 2.3-1.9c1.2-1.1 2.2-2.1 2.2-2.3 0-.8-.8-.2-2.6 1.9zM256.6 268.2c.3.5 1 .6 1.5.3 1.3-.9 1.1-1.2-.6-1.2-.8 0-1.2.4-.9.9zM251.6 270.3c.3 1 .9 1.5 1.2 1.2.3-.3 0-1.1-.7-1.8-1-.9-1.1-.8-.5.6zM244.7 272.1c.7.7 1.5 1 1.8.7.3-.3-.2-.9-1.2-1.2-1.4-.6-1.5-.5-.6.5zM235 276c0 .5.5 1 1.1 1 .5 0 .7-.5.4-1-.3-.6-.8-1-1.1-1-.2 0-.4.4-.4 1zM241.8 276.9c-1.1 1.4-1.1 1.4.2.4 1.6-1.2 3.7-1.2 5.6 0 .7.4 1.4.1 1.7-.6.7-1.9-6-1.8-7.5.2zM235.4 280.2c-.4.7-.4 1 .1.6.4-.4 1.5-.2 2.4.5 1.4 1.1 1.4 1 .2-.6-1.6-2-1.8-2.1-2.7-.5zM235.5 283c-.4.6-1 .8-1.4.6-.4-.3-1.3 0-2.1.5-1.1.7-1 .8.8.6 2-.3 5.6-2.7 4-2.7-.4 0-1 .5-1.3 1zM238.6 284.7c-.6 1.4-.5 1.5.5.6.7-.7 1-1.5.7-1.8-.3-.3-.9.2-1.2 1.2zM225 286c0 .5.5 1 1.1 1 .5 0 .7-.5.4-1-.3-.6-.8-1-1.1-1-.2 0-.4.4-.4 1zM222 287.4c0 .2.8 1 1.8 1.7 1.5 1.3 1.6 1.2.3-.4s-2.1-2.1-2.1-1.3zM223.3 292.8c0 1.2.5 2.2.9 2.2 1.1 0 1-1.2-.2-3-.7-1.2-.9-1-.7.8zM211.5 295.1c-.4.6-.5 1.2-.2 1.5.2.3.7-.2 1-1.1.7-1.7.1-2-.8-.4zM217.6 296.7c-.6 1.4-.5 1.5.5.6.7-.7 1-1.5.7-1.8-.3-.3-.9.2-1.2 1.2zM213.3 298.5c0 .8.4 1.2.9.9.5-.3.6-1 .3-1.5-.9-1.3-1.2-1.1-1.2.6zM221.5 298c.3.5-.1 1-.9 1-.9 0-1.6.5-1.6 1 0 .7.7.7 2 0 1.7-.9 2-3 .4-3-.3 0-.2.4.1 1zM213.3 304.6c0 1.1.3 1.1 1.6.1 1.2-1 1.4-.9.8.6-.4 1.1-.3 1.6.4 1.2.5-.4.8-1.2.6-1.8-.5-1.6-3.4-1.7-3.4-.1zM209.5 307.1c-.4.6-.5 1.2-.2 1.5.2.3.7-.2 1-1.1.7-1.7.1-2-.8-.4zM205.5 308c.3.5.8 1 1.1 1 .2 0 .4-.5.4-1 0-.6-.5-1-1.1-1-.5 0-.7.4-.4 1zM199.9 312.7c-1.3 1.6-1.2 1.7.4.4.9-.7 1.7-1.5 1.7-1.7 0-.8-.8-.3-2.1 1.3zM203 312.4c0 .2.8 1 1.8 1.7 1.5 1.3 1.6 1.2.3-.4s-2.1-2.1-2.1-1.3zM201.3 319.7c0 .8.6.9 1.9.2 1-.5 1.8-1.1 1.8-1.2 0-.2-.8-.3-1.8-.3s-1.9.6-1.9 1.3zM199.5 325c.3.5.8 1 1.1 1 .2 0 .4-.5.4-1 0-.6-.5-1-1.1-1-.5 0-.7.4-.4 1zM186 331.4c0 .2.8 1 1.8 1.7 1.5 1.3 1.6 1.2.3-.4s-2.1-2.1-2.1-1.3zM193 334.9c0 .7-.4 1-.8.7-.4-.2-.9.5-.9 1.6-.2 2.1-.2 2.1 1.4-.1.8-1.2 1.2-2.5.9-2.8-.3-.4-.6-.1-.6.6zM187.1 342.6c.6.7.8 1.8.5 2.3-.4.5-.1 1.3.5 1.7.7.4.9.3.6-.3-.4-.6 0-1.3.8-1.7.8-.3 1.5-1.1 1.5-1.8 0-.9-.3-.8-1 .2-.8 1.3-1.4.8-1.2-1.1.1-.3-.6-.6-1.3-.6-1.1 0-1.2.4-.4 1.3zM527.5 343.1c-.4.6-.5 1.2-.2 1.5.2.3.7-.2 1-1.1.7-1.7.1-2-.8-.4zM520.5 346.1c-.4.6-.5 1.2-.2 1.5.2.3.7-.2 1-1.1.7-1.7.1-2-.8-.4zM183.5 348c-.3.5-.1 1 .4 1 .6 0 1.1-.5 1.1-1 0-.6-.2-1-.4-1-.3 0-.8.4-1.1 1zM523 354.4c0 .2.8 1 1.8 1.7 1.5 1.3 1.6 1.2.3-.4s-2.1-2.1-2.1-1.3zM514.8 356.7c.6.2.9 1 .6 1.5-.4.7-.2.8.5.4 1.3-.9.5-2.6-1.2-2.5-.9 0-.8.2.1.6zM517.7 358.5c-.4.8-.3 1.6.1 1.9.4.3.9-.4.9-1.5.2-2.3-.3-2.5-1-.4zM178.8 362.5c.3.5.7 2 .8 3.3 0 1.2.4 2.5.8 2.9.3.4.5-.4.3-1.8-.3-1.3-.1-3.1.3-3.9.6-1.1.3-1.6-1-1.6-1 0-1.6.5-1.2 1.1zM519.6 365.8c-.2.4-.1 1.4.4 2.2.7 1.1.9.9.7-.8-.1-2.4-.3-2.6-1.1-1.4zM525.6 366.2c.3.5 1 .6 1.5.3 1.3-.9 1.1-1.2-.6-1.2-.8 0-1.2.4-.9.9zM173.5 370c-.3.5-.1 1 .4 1 .6 0 1.1-.5 1.1-1 0-.6-.2-1-.4-1-.3 0-.8.4-1.1 1zM523.3 371.5c0 .8.4 1.2.9.9.5-.3.6-1 .3-1.5-.9-1.3-1.2-1.1-1.2.6zM174.6 377.9c-.4.5.3.7 1.4.4 2.3-.6 2.6-1.3.6-1.3-.8 0-1.7.4-2 .9zM523.3 379.1c-.1 1 .3 2.2.9 2.5.7.4.8.2.4-.5-.4-.6-.3-1.8.3-2.5.8-.9.7-1.3-.2-1.3-.7 0-1.4.8-1.4 1.8zM169.6 382.2c.3.5 1 .6 1.5.3 1.3-.9 1.1-1.2-.6-1.2-.8 0-1.2.4-.9.9zM526.6 382.2c.3.5 1 .6 1.5.3 1.3-.9 1.1-1.2-.6-1.2-.8 0-1.2.4-.9.9zM173 382.4c0 .2.8 1 1.8 1.7 1.5 1.3 1.6 1.2.3-.4s-2.1-2.1-2.1-1.3zM523.5 384c-.3.5-.1 1 .4 1 .6 0 1.1-.5 1.1-1 0-.6-.2-1-.4-1-.3 0-.8.4-1.1 1zM173.1 387.4c-.9 1-.8 1.5.2 1.9.8.3 1.3-.3 1.3-1.4 0-2.3 0-2.3-1.5-.5zM525 392.2c0 .4.4.8.9.8.6 0 1.2-.4 1.5-.8.3-.5-.1-.9-.9-.9s-1.5.4-1.5.9zM173.6 394.3c.3 1 .9 1.5 1.2 1.2.3-.3 0-1.1-.7-1.8-1-.9-1.1-.8-.5.6zM528.6 398.2c.3.5 1 .6 1.5.3 1.3-.9 1.1-1.2-.6-1.2-.8 0-1.2.4-.9.9zM525.4 400.1c-.3.6-.3 1.3 0 1.6.3.4.6.1.6-.5s.7-.9 1.5-.6c.8.4 1.5.4 1.5.1 0-1.1-3-1.6-3.6-.6zM171.5 403c-.3.6.1.7.9.4 1.8-.7 2.1-1.4.7-1.4-.6 0-1.3.4-1.6 1zM171.4 408.7c.2 1-.2 2.5-.8 3.3-.9 1.3-.9 1.3.6.2 1.6-1.2 1.8-3.5.6-4.8-.4-.3-.5.2-.4 1.3zM527 408c0 .5.9.8 2 .7 2.1-.1 1.8-1-.5-1.3-.8-.1-1.5.2-1.5.6zM165.7 412.5c-.4.8-.3 1.6.1 1.9.4.3.9-.4.9-1.5.2-2.3-.3-2.5-1-.4zM525.4 414.1c-.3.6-.1 1.6.5 2.2.9.9 1 .7.5-.7-.6-1.5-.4-1.7.6-1.1.9.5 1.1.4.6-.3-.9-1.5-1.3-1.5-2.2-.1zM170.4 419.7c-.1 1.3-.1 2.3 0 2.1.1-.2.7-1 1.4-1.9 1-1.3 1-1.8 0-2.2-.8-.3-1.4.5-1.4 2zM526.7 420.4c.5 1.4.3 1.7-.7 1.1-.8-.5-1.1-.4-.7.3.8 1.1 3.3 1.1 4.2-.1.3-.4.2-.5-.2-.2-.3.3-1.2-.3-2-1.3-1.2-1.6-1.3-1.6-.6.2zM531.5 422c-.3.5-.1 1 .4 1 .6 0 1.1-.5 1.1-1 0-.6-.2-1-.4-1-.3 0-.8.4-1.1 1zM167.5 424c-.5.8 4.2.7 4.9-.1.3-.3-.6-.5-2-.5s-2.7.3-2.9.6zM169.6 427.4c.3.8 1.3 1.7 2.1 2 2.5 1 2.3.3-.3-1.7-1.8-1.3-2.2-1.4-1.8-.3zM169.4 432c0 1.3.4 1.6 1 1 .7-.7.7-1.3 0-2-.6-.6-1-.3-1 1zM169.4 435.7c.4.4 1.6.8 2.8 1 2.8.4 1.8-.6-1.2-1.2-1.2-.2-2-.1-1.6.2zM526.7 436.1c.7.7 1.5 1 1.8.7.3-.3-.2-.9-1.2-1.2-1.4-.6-1.5-.5-.6.5zM526.7 442.1c.7.7 1.5 1 1.8.7.3-.3-.2-.9-1.2-1.2-1.4-.6-1.5-.5-.6.5zM167 442.3c0 .2.6 1 1.4 1.6 1.1.9 1.6.9 2.2-.1.4-.7.4-1-.1-.6-.4.4-1.4.3-2.2-.3-.7-.6-1.3-.9-1.3-.6zM525.1 444.6c0 1.1.3 1.4.6.6.3-.7.2-1.6-.1-1.9-.3-.4-.6.2-.5 1.3zM173.3 446.5c0 .8.4 1.2.9.9.5-.3.6-1 .3-1.5-.9-1.3-1.2-1.1-1.2.6zM525.3 448.7c0 .9.4 1 1.4.2.7-.6 1.3-1.2 1.3-1.4 0-.1-.6-.2-1.3-.2-.8 0-1.4.6-1.4 1.4zM176.1 455.7c.7 1.2 1.5 2 1.8 1.7.3-.2-.3-1.2-1.3-2.2-1.7-1.6-1.8-1.6-.5.5zM173 455.9c0 .6.4 1.3 1 1.6.6.3.7-.1.4-.9-.7-1.8-1.4-2.1-1.4-.7zM522.8 459.2c.2 1 .6 1.8.7 1.8.1 0 .5-.8.7-1.8.3-1.1 0-1.9-.7-1.9s-1 .8-.7 1.9zM519.4 462.5c-.3.8-.4 2-.1 2.7.3.7.6.3.6-1 .1-1.5.5-2.1 1.3-1.6.7.4.8.3.4-.4-1-1.6-1.5-1.5-2.2.3zM175.7 464.5c-.4.8-.3 1.6.1 1.9.4.3.9-.4.9-1.5.2-2.3-.3-2.5-1-.4zM520.1 468.4c-.9 1.1-.9 1.6.1 2.2.7.4 1 .4.6-.1-.4-.4-.3-1.4.3-2.2.6-.7.9-1.3.6-1.3-.2 0-1 .6-1.6 1.4zM179.5 469.9c-.3.5-.2 1.2.3 1.5.5.3.9-.1.9-.9 0-1.7-.3-1.9-1.2-.6zM175.1 471.3c.2.1 1.3.9 2.4 1.7 1.9 1.4 1.9 1.4.6-.3-.7-.9-1.8-1.7-2.4-1.7-.6 0-.8.1-.6.3zM179.8 476.8c-.3 1.1 0 1.9.7 1.9s1-.8.7-1.9c-.2-1-.6-1.8-.7-1.8-.1 0-.5.8-.7 1.8zM515.6 478.1c.2.4-.2 1-.8 1.2-.8.4-.9.6-.2.6.6.1 1.7-.5 2.3-1.2.8-1 .7-1.4-.4-1.4-.8 0-1.2.4-.9.8zM177.6 482.7c-.6 1.4-.5 1.5.5.6.7-.7 1-1.5.7-1.8-.3-.3-.9.2-1.2 1.2zM181 481.9c0 .6.4 1.3 1 1.6.6.3.7-.1.4-.9-.7-1.8-1.4-2.1-1.4-.7zM513.4 484.2c-.4.5-.3 1.2 0 1.5.3.4.6.1.6-.7 0-.9.3-1 1.3-.1 1 .8 1.4.7 1.4-.2 0-1.5-2.5-1.8-3.3-.5zM515 490.1c0 .5.5.7 1 .4.6-.3 1-.8 1-1.1 0-.2-.4-.4-1-.4-.5 0-1 .5-1 1.1zM185.3 491.3c0 .7 1.3 1.3 2.9 1.4 2.8.1 3.3-.7.6-1.1-.7-.1-1.8-.5-2.4-.8-.6-.4-1.1-.2-1.1.5zM510.4 491.8c.4.3 1.4.7 2.2.8.9.1 1.3 0 1-.4-.4-.3-1.4-.7-2.2-.8-.9-.1-1.3 0-1 .4zM182.9 495.7c-1.3 1.6-1.2 1.7.4.4.9-.7 1.7-1.5 1.7-1.7 0-.8-.8-.3-2.1 1.3zM189.6 496.8c-.2.4.4.8 1.4.8 1 0 1.6-.4 1.4-.8-.3-.4-.9-.8-1.4-.8-.5 0-1.1.4-1.4.8zM189.6 499.8c-.3.5.1.9.9.9s1.2-.4.9-.9c-.3-.4-.7-.8-.9-.8-.2 0-.6.4-.9.8zM504.6 499.8c-.3.5.1.9.9.9s1.5-.4 1.5-.9c0-.4-.4-.8-.9-.8-.6 0-1.2.4-1.5.8zM193.3 501.7c.4.3.1 1.3-.6 2.2-1.1 1.4-1 1.4.5.2 1.6-1.2 1.6-3.1.1-3.1-.4 0-.3.3 0 .7zM195.5 505c-.3.6.1.7.9.4 1.8-.7 2.1-1.4.7-1.4-.6 0-1.3.4-1.6 1zM503 506.8c.9 1.9 3 2.3 3 .5 0-.4-.3-.3-.7 0-.3.4-1.2-.1-2-1.1-1.3-1.5-1.3-1.5-.3.6zM501.1 508.6c0 1.1.3 1.4.6.6.3-.7.2-1.6-.1-1.9-.3-.4-.6.2-.5 1.3zM201.1 511.6c0 1.1.3 1.4.6.6.3-.7.2-1.6-.1-1.9-.3-.4-.6.2-.5 1.3zM495.1 515.3c-.8 1-.7 1.4.2 1.4.8 0 1.4-.6 1.4-1.4 0-.7-.1-1.3-.2-1.3-.2 0-.8.6-1.4 1.3zM203 518.5c.5.7.7 1.4.4 1.8-.3.3.2.4 1.2.3 1-.2 2-.9 2.2-1.7.3-1.1.1-1.1-.7.1-.9 1.3-1.5.8-1.3-1.1.1-.3-.6-.6-1.3-.6-1 0-1.2.4-.5 1.2zM493 519c-.9.6-1 1-.3 1 .6 0 1.5-.5 1.8-1 .8-1.2.4-1.2-1.5 0zM491.6 522.7c-.6 1.4-.5 1.5.5.6.7-.7 1-1.5.7-1.8-.3-.3-.9.2-1.2 1.2zM211.6 526.5c.4.8.1 2.1-.5 2.8-.8 1-.7 1.4.4 1.4.8 0 1.1-.5.8-1-.4-.6 0-.8 1-.4 1.6.6 1.6.5.1-1.8-1.8-2.8-2.6-3.2-1.8-1zM490 525.4c0 .2.8 1 1.8 1.7 1.5 1.3 1.6 1.2.3-.4s-2.1-2.1-2.1-1.3zM495.6 527.3c.3 1 .9 1.5 1.2 1.2.3-.3 0-1.1-.7-1.8-1-.9-1.1-.8-.5.6zM199.6 527.8c-.3.5.1.9.9.9s1.2-.4.9-.9c-.3-.4-.7-.8-.9-.8-.2 0-.6.4-.9.8zM205.3 528.5c0 .8.4 1.2.9.9.5-.3.6-1 .3-1.5-.9-1.3-1.2-1.1-1.2.6zM483.4 528.1c-.3.6-.1 1.6.5 2.2.9.9 1 .7.5-.8-.7-1.8-.6-1.9 1.2-.5 1.8 1.4 1.8 1.4.5-.3-1.6-2-1.8-2-2.7-.6zM479.6 531.9c-.3.4.6.7 1.9.7 1.4 0 2.2-.2 1.9-.5-.8-.8-3.4-1-3.8-.2zM478.4 535.5c-1.9 1.5-1.9 1.5.1.8 1.8-.6 1.9-.5.5 1.3-1.1 1.5-1.1 1.6 0 .7 1.1-1.1 2.4-4.3 1.6-4.3-.1 0-1.1.7-2.2 1.5zM215.6 536.1c.4.8 3 .6 3.8-.2.3-.3-.5-.5-1.9-.5-1.3 0-2.2.3-1.9.7zM224 540c-.9.6-1 1-.3 1 .6 0 1.5-.5 1.8-1 .8-1.2.4-1.2-1.5 0zM217.5 540.9c-.3.5-.2 1.2.3 1.5.5.3.9-.1.9-.9 0-1.7-.3-1.9-1.2-.6zM476 542c-.9.6-1 1-.3 1 .6 0 1.5-.5 1.8-1 .8-1.2.4-1.2-1.5 0zM466.8 545.2c-.7 1.7 1.5 1.9 2.9.3.4-.4.3-.5-.4-.2-.6.4-1.3.2-1.5-.5-.3-.8-.6-.6-1 .4zM233.3 547.8c.1 1.2.6 1.8 1.5 1.5.7-.3 1-.9.5-1.2-.4-.3-1.1-1-1.5-1.5-.4-.4-.6.1-.5 1.2zM231.1 551.3c.2.1 1.3.9 2.4 1.7 1.9 1.4 1.9 1.4.6-.3-.7-.9-1.8-1.7-2.4-1.7-.6 0-.8.1-.6.3zM460 552c-1.2.7-1 .9.8.7 1.2 0 2.2-.5 2.2-.9 0-1.1-1.2-1-3 .2zM467 552.4c.7.7 1.3.7 2 0 .6-.6.3-1-1-1s-1.6.4-1 1zM452.6 560.2c.3.5 1 .6 1.5.3 1.3-.9 1.1-1.2-.6-1.2-.8 0-1.2.4-.9.9zM251.5 562c-.3.5-.1 1 .4 1 .6 0 1.1-.5 1.1-1 0-.6-.2-1-.4-1-.3 0-.8.4-1.1 1zM444 564c-1.2.7-1 .9.7.7 1.2 0 1.9-.5 1.7-.9-.6-1-.6-1-2.4.2zM245.6 565.3c.3 1 .9 1.5 1.2 1.2.3-.3 0-1.1-.7-1.8-1-.9-1.1-.8-.5.6zM439.1 564.5c0 .5.3 1.6.8 2.3.7 1.1.9 1 1.4-.3.4-.9.3-1.4-.2-1-.5.3-1.2-.1-1.4-.7-.3-.7-.6-.9-.6-.3zM255.4 567.4c.1.8.5 1.8.8 2.2.4.3.5-.1.4-1-.1-.8-.5-1.8-.8-2.2-.4-.3-.5.1-.4 1zM261 567.9c0 .6.4 1.3 1 1.6.6.3.7-.1.4-.9-.7-1.8-1.4-2.1-1.4-.7zM435 567.8c0 .4.9.8 2 .9 1.1.1 2-.2 2-.5 0-.4-.9-.8-2-.9-1.1-.1-2 .2-2 .5zM432.5 570.1c-.4.6-.5 1.2-.2 1.5.2.3.7-.2 1-1.1.7-1.7.1-2-.8-.4zM258 571.5c0 .2.6.8 1.3 1.4 1 .8 1.4.7 1.4-.2 0-.8-.6-1.4-1.4-1.4-.7 0-1.3.1-1.3.2zM265 571.9c0 .6.4 1.2.8 1.5.5.3.9-.1.9-.9s-.4-1.5-.9-1.5c-.4 0-.8.4-.8.9zM427.6 571.9c.9.9 3.4.9 3.4.1 0-.5-.9-.8-2-.7-1 .1-1.7.3-1.4.6zM272 574.5c-.9 1.1-1 1.9-.3 2.6.8.8 1.1.6 1-.7-.1-1.1.4-1.8 1.1-1.6.8.1 1.1-.2.7-.8-.8-1.3-1-1.3-2.5.5zM423.6 574.7c-.6 1.4-.5 1.5.5.6.7-.7 1-1.5.7-1.8-.3-.3-.9.2-1.2 1.2zM268 576c-.9.6-1 1-.3 1 .6 0 1.5-.5 1.8-1 .8-1.2.4-1.2-1.5 0zM413.5 577.7c.3.3-.3 1.2-1.3 2-1.3 1-1.4 1.3-.2 1.1.8-.2 1.4.3 1.2 1-.1.8.1 1.1.6.8 1-.6.9-4.3-.1-5.1-.4-.3-.5-.2-.2.2zM266.6 580.2c.3.5 1 .6 1.5.3 1.3-.9 1.1-1.2-.6-1.2-.8 0-1.2.4-.9.9zM287.4 581.5c0 1.3.3 2.2.7 1.9.8-.4.6-3-.2-3.8-.3-.3-.5.5-.5 1.9zM290.6 581.7c-.6 1.4-.5 1.5.5.6.7-.7 1-1.5.7-1.8-.3-.3-.9.2-1.2 1.2zM403.6 580.9c-.3.5.1 1.1.9 1.4.9.4 1.2.1.8-.9-.6-1.6-1-1.7-1.7-.5zM284 582c-.9.6-1 1-.3 1 .6 0 1.5-.5 1.8-1 .8-1.2.4-1.2-1.5 0zM295.4 583.1c-.3.6-.2 1.5.3 2s.9.1 1-1.1c.2-2.2-.2-2.5-1.3-.9zM398 584.3c-1.1 1.9-1.1 2 .1 1 1.6-1.3 3.6-1.2 5.9.2 1.3.8 1.3.7.1-.8-.8-1-1.6-1.5-1.9-1.2-.3.3-1 .1-1.6-.5-.8-.6-1.6-.2-2.6 1.3zM292 584c-.9.6-1 1-.3 1 .6 0 1.5-.5 1.8-1 .8-1.2.4-1.2-1.5 0zM299.1 585.3c-1.3 2.1-1.2 2.1.5.5 1-1 1.6-2 1.3-2.2-.3-.3-1.1.5-1.8 1.7zM302.1 584.6c0 1.1.3 1.4.6.6.3-.7.2-1.6-.1-1.9-.3-.4-.6.2-.5 1.3zM409.9 583.2c-.5 1.8-.6 3.8-.1 3.4.7-.8 1.2-3.6.6-3.6-.2 0-.4.1-.5.2zM315.3 587.5c0 .8.4 1.5.9 1.5.4 0 .8-.7.8-1.5s-.4-1.5-.8-1.5c-.5 0-.9.7-.9 1.5z"/><path d="M401.3 587.5c0 .8.4 1.2.9.9.5-.3.6-1 .3-1.5-.9-1.3-1.2-1.1-1.2.6zM292.6 588.2c.3.5 1 .6 1.5.3 1.3-.9 1.1-1.2-.6-1.2-.8 0-1.2.4-.9.9zM305.6 588.2c.3.4 1.1.5 1.9.1 2.1-.7 1.9-1.2-.4-1-1.1 0-1.8.5-1.5.9zM322.1 587.9c-1 .7-.7.9 1.2.8 1.4-.1 2.3-.5 2-1-.6-.9-1.5-.9-3.2.2zM379.5 587.9c-.3.5-.2 1.2.3 1.5.5.3.9-.1.9-.9 0-1.7-.3-1.9-1.2-.6zM394.6 588.2c.3.5 1 .6 1.5.3 1.3-.9 1.1-1.2-.6-1.2-.8 0-1.2.4-.9.9zM350.5 589.3c-1.5 1.2-1.6 1.5-.4 2.2.8.5 1.1.5.7 0-.4-.4 0-1.4 1-2.1 2.3-1.8 1.1-1.8-1.3-.1zM297.6 589.9c-.3.5.2 1.5 1.2 2.2 1.5 1.2 1.6 1.2.5-.2-.7-.9-1-1.9-.6-2.2.3-.4.4-.7 0-.7-.3 0-.8.4-1.1.9zM310.6 590.2c.3.4.9.8 1.5.8.5 0 .9-.4.9-.8 0-.5-.7-.9-1.5-.9s-1.2.4-.9.9zM334.7 591.1c.6 2.2 2 2.6 2 .4 0-.8-.6-1.6-1.3-1.9-.7-.3-1 .2-.7 1.5zM353.5 590c-.3.6.1.7.9.4 1.8-.7 2.1-1.4.7-1.4-.6 0-1.3.4-1.6 1zM359.4 591.9c0 1.6.4 2.7.8 2.5.4-.2.5-1.4.3-2.6-.7-3.2-1.3-3.2-1.1.1zM367.9 589.2c-.6 1.8-.3 4.6.3 4.2.5-.4.7-1.2.4-1.9-.3-.8 0-1.6.7-1.9.9-.3.9-.5 0-.5-.7-.1-1.3 0-1.4.1zM382.4 589.8c.4.3 1.4.7 2.2.8.9.1 1.3 0 1-.4-.4-.3-1.4-.7-2.2-.8-.9-.1-1.3 0-1 .4zM395.9 590.2c-.5 1.8-.6 3.8-.1 3.4.7-.8 1.2-3.6.6-3.6-.2 0-.4.1-.5.2zM343.6 592.6c-.3.9-1.1 1.2-1.8.8-.7-.4-.9-.3-.5.1 1.4 1.6 3.3 1.3 3.4-.6.2-2.3-.3-2.4-1.1-.3zM355 592c0 .5.5 1 1.1 1 .5 0 .7-.5.4-1-.3-.6-.8-1-1.1-1-.2 0-.4.4-.4 1zM370 591.4c0 .2.8 1 1.8 1.7 1.5 1.3 1.6 1.2.3-.4s-2.1-2.1-2.1-1.3zM317.3 593.5c0 .8.4 1.2.9.9.5-.3.6-1 .3-1.5-.9-1.3-1.2-1.1-1.2.6zM321 594.1c0 .5.5.7 1 .4.6-.3 1-.8 1-1.1 0-.2-.4-.4-1-.4-.5 0-1 .5-1 1.1zM329.5 594c.3.5.8 1 1.1 1 .2 0 .4-.5.4-1 0-.6-.5-1-1.1-1-.5 0-.7.4-.4 1z"/></svg>