<?xml version="1.0" standalone="no"?>
<!DOCTYPE svg PUBLIC "-//W3C//DTD SVG 20010904//EN"
 "http://www.w3.org/TR/2001/REC-SVG-20010904/DTD/svg10.dtd">
<svg version="1.0" xmlns="http://www.w3.org/2000/svg"
 width="839.000000pt" height="839.000000pt" viewBox="0 0 839.000000 839.000000"
 preserveAspectRatio="xMidYMid meet">
<metadata>
Created by potrace 1.14, written by Peter Selinger 2001-2017
</metadata>
<g transform="translate(0.000000,839.000000) scale(0.100000,-0.100000)"
fill="#000000" stroke="none">
<path d="M5649 6786 c-2 -2 -37 -7 -78 -10 -123 -12 -165 -16 -191 -22 -14 -3
-41 -7 -60 -10 -101 -14 -297 -77 -385 -124 -87 -47 -175 -112 -215 -160 -57
-69 -62 -72 -92 -68 -15 3 -28 1 -28 -3 0 -4 -8 -6 -17 -5 -20 3 -94 -18 -140
-39 -17 -8 -34 -15 -37 -15 -4 0 -16 -9 -28 -20 -12 -10 -25 -17 -30 -14 -4 3
-8 -2 -8 -10 0 -9 -5 -16 -10 -16 -6 0 -22 -12 -35 -26 -14 -15 -29 -23 -36
-18 -8 4 -9 3 -5 -5 5 -7 -1 -20 -13 -30 -12 -10 -21 -23 -21 -30 0 -6 -5 -11
-11 -11 -5 0 -7 6 -3 13 4 7 3 9 -2 4 -9 -8 -10 -13 -13 -40 0 -7 -8 -22 -17
-33 -8 -10 -12 -13 -8 -5 4 9 3 12 -4 7 -6 -4 -8 -14 -5 -23 5 -12 3 -14 -7
-8 -9 5 -11 4 -6 -3 4 -7 2 -20 -3 -29 -6 -10 -11 -14 -11 -10 0 4 -11 -4 -24
-18 -15 -16 -30 -24 -37 -19 -8 4 -9 3 -5 -4 4 -6 -6 -19 -21 -29 -15 -10 -42
-32 -60 -49 -17 -18 -34 -29 -37 -26 -3 3 -6 -2 -6 -11 0 -9 -9 -21 -20 -27
-11 -6 -18 -15 -15 -20 6 -10 -5 -41 -14 -36 -3 2 -6 -10 -5 -27 1 -18 -4 -35
-10 -39 -8 -6 -6 -11 4 -18 10 -6 11 -10 3 -10 -7 0 -13 -5 -13 -11 0 -5 5 -7
10 -4 6 3 10 1 10 -4 0 -6 -5 -11 -11 -11 -8 0 -7 -6 2 -17 12 -15 12 -16 -3
-10 -10 3 -20 2 -23 -4 -4 -5 -3 -9 2 -8 19 3 33 -2 33 -12 0 -5 -4 -7 -10 -4
-5 3 -10 -3 -10 -15 0 -12 4 -19 8 -16 4 2 14 1 22 -5 12 -7 12 -9 1 -9 -11 0
-11 -3 -1 -15 7 -8 9 -15 5 -15 -5 0 0 -10 11 -22 10 -12 13 -18 7 -14 -8 4
-13 1 -13 -9 0 -9 4 -14 9 -11 5 3 11 0 14 -8 7 -18 -15 -15 -39 4 -16 14 -16
13 -3 -7 7 -13 18 -22 24 -22 26 3 46 -2 40 -10 -3 -6 -13 -9 -23 -9 -22 1
-92 -11 -103 -18 -5 -3 -9 1 -9 8 0 7 -5 5 -11 -6 -9 -15 -13 -16 -20 -5 -7
11 -9 11 -9 1 0 -10 -5 -10 -20 -2 -11 6 -19 7 -18 3 2 -4 -1 -9 -7 -10 -5 -1
-9 6 -7 15 2 14 1 15 -7 2 -5 -8 -7 -18 -5 -22 3 -4 -4 -8 -15 -8 -30 0 -34
-1 -55 -12 -10 -6 -30 -11 -44 -13 -15 -1 -28 -8 -30 -14 -2 -6 -8 -9 -12 -6
-5 3 -7 12 -4 19 3 8 1 17 -5 21 -7 4 -8 0 -4 -11 4 -11 3 -15 -4 -11 -7 5 -9
-1 -6 -15 4 -19 3 -20 -6 -8 -10 14 -15 7 -12 -13 1 -4 -7 -3 -18 3 -25 13
-34 13 -26 0 3 -5 1 -11 -4 -11 -6 -1 -17 -2 -23 -3 -7 -1 -17 3 -21 9 -5 5
-5 0 -2 -12 4 -13 2 -23 -3 -23 -15 0 -21 22 -11 40 5 11 2 16 -11 16 -13 0
-16 -4 -10 -11 6 -7 5 -16 -3 -25 -9 -10 -9 -11 0 -6 9 5 11 2 7 -9 -4 -9 -9
-13 -12 -11 -3 3 -11 1 -19 -5 -8 -8 -13 -8 -13 -1 0 6 6 12 13 15 8 3 4 12
-13 28 -14 14 -18 16 -8 4 14 -17 14 -22 2 -33 -8 -7 -11 -18 -8 -24 5 -7 2
-8 -6 -3 -7 4 -16 2 -21 -6 -4 -7 -11 -10 -16 -6 -4 5 -1 12 6 16 15 10 7 31
-12 31 -7 0 -6 -4 3 -10 8 -5 13 -10 10 -11 -3 0 -13 -2 -23 -4 -14 -3 -17 1
-12 13 4 11 -2 9 -16 -7 -18 -19 -19 -25 -8 -32 12 -7 12 -10 0 -21 -8 -7 -11
-8 -8 -2 4 7 -1 18 -10 25 -14 12 -15 11 -9 -8 8 -24 -4 -36 -27 -27 -9 3 -13
12 -10 21 5 13 3 13 -16 2 -11 -8 -21 -17 -21 -22 0 -4 4 -6 9 -3 4 3 16 0 26
-8 15 -11 16 -13 1 -13 -9 0 -16 4 -16 9 0 5 -4 7 -9 3 -5 -3 -13 -1 -16 5 -5
8 -11 8 -19 1 -7 -6 -16 -9 -19 -6 -4 3 -5 2 -2 -2 8 -10 -16 -34 -27 -27 -6
4 -5 -3 1 -14 7 -14 8 -23 1 -27 -5 -3 -10 -4 -10 -1 0 3 -17 -11 -37 -29 -40
-36 -66 -46 -57 -20 4 8 11 12 17 8 5 -3 7 -1 4 5 -4 5 -16 8 -28 5 -11 -3
-17 -9 -12 -12 5 -3 8 -12 7 -18 -1 -7 -2 -18 -3 -24 0 -5 -6 -7 -11 -4 -6 4
-8 11 -5 16 3 5 -1 6 -10 2 -13 -5 -14 -7 -3 -14 12 -8 4 -13 -14 -10 -4 0 -5
-5 -2 -13 7 -18 -27 -30 -38 -14 -5 9 -8 3 -9 -17 0 -16 -3 -24 -6 -17 -2 6
-9 12 -14 12 -4 0 -6 -7 -3 -15 5 -11 2 -13 -10 -9 -9 4 -16 1 -16 -6 0 -18
-41 -52 -56 -46 -8 3 -11 0 -8 -8 3 -7 -2 -16 -12 -20 -11 -4 -15 -2 -11 7 3
8 -1 14 -8 14 -14 0 -8 -27 8 -38 5 -4 -1 -10 -14 -14 -29 -10 -50 -30 -41
-40 4 -5 1 -5 -5 -1 -7 4 -13 3 -13 -2 0 -5 -11 -21 -24 -35 -18 -19 -26 -23
-35 -14 -9 9 -11 8 -6 -4 4 -11 -6 -29 -32 -54 -21 -21 -37 -42 -35 -48 2 -6
-3 -5 -12 2 -12 10 -14 9 -9 -8 3 -13 1 -21 -6 -21 -7 0 -10 4 -6 9 3 5 1 13
-5 16 -6 4 -10 3 -9 -2 4 -21 -2 -34 -13 -27 -7 4 -8 3 -4 -5 4 -6 12 -9 17
-6 5 3 6 -1 3 -9 -3 -9 -10 -16 -15 -16 -5 0 -15 -11 -21 -25 -12 -28 -28 -33
-28 -10 0 8 -4 15 -10 15 -6 0 -5 -10 2 -26 11 -23 9 -28 -12 -45 -14 -10 -20
-19 -15 -19 6 0 3 -5 -5 -10 -8 -5 -15 -15 -15 -22 0 -8 -11 -12 -25 -11 -22
2 -23 1 -8 -8 17 -9 17 -11 -2 -31 -10 -12 -17 -24 -15 -29 3 -4 -2 -14 -10
-22 -8 -9 -19 -27 -25 -41 -9 -26 -27 -30 -43 -11 -5 6 -7 4 -4 -5 2 -8 10
-14 16 -13 15 4 14 -12 -3 -26 -8 -7 -13 -23 -12 -36 2 -18 -1 -22 -13 -18 -9
4 -13 3 -9 -2 4 -4 3 -14 -3 -22 -6 -7 -8 -13 -3 -13 4 0 -1 -7 -12 -15 -12
-9 -14 -14 -6 -15 7 0 10 -5 7 -10 -4 -7 -13 -6 -26 1 -12 6 -23 8 -27 5 -3
-3 -1 -6 4 -6 23 -1 36 -18 26 -36 -15 -27 -25 -56 -27 -76 -1 -10 -7 -23 -12
-30 -5 -7 -15 -32 -22 -55 -7 -24 -18 -43 -26 -43 -19 0 -28 -17 -14 -26 8 -4
9 -3 5 4 -4 7 -1 12 8 12 20 0 20 -9 1 -34 -8 -10 -12 -23 -9 -27 3 -5 2 -14
-2 -21 -4 -7 -9 -24 -10 -37 -2 -14 -10 -31 -19 -37 -14 -10 -14 -12 2 -18 14
-6 15 -9 4 -15 -8 -5 -10 -14 -6 -21 6 -9 4 -11 -6 -5 -11 6 -12 5 -2 -5 10
-11 9 -16 -5 -27 -9 -8 -12 -12 -7 -10 12 6 13 -33 1 -51 -4 -7 -4 -21 -1 -32
5 -15 2 -20 -12 -21 -16 0 -16 -1 2 -10 17 -8 16 -9 -7 -6 -15 2 -25 0 -22 -4
3 -5 11 -9 18 -9 9 0 13 -18 12 -65 -1 -48 -4 -64 -14 -60 -9 3 -10 0 -2 -15
5 -10 7 -26 4 -34 -4 -10 -1 -16 7 -16 8 0 5 -6 -7 -16 -10 -8 -14 -13 -7 -10
6 4 14 2 17 -3 3 -5 -3 -11 -14 -14 -18 -5 -19 -8 -9 -31 7 -14 15 -24 18 -21
4 2 6 -24 6 -58 -1 -34 2 -72 6 -84 7 -18 5 -23 -8 -23 -15 0 -15 -1 1 -13 15
-11 16 -17 7 -35 -8 -14 -17 -19 -29 -15 -18 7 -17 5 11 -17 14 -10 17 -11 15
0 -2 7 3 15 11 18 9 3 11 0 7 -7 -4 -7 -2 -19 5 -27 10 -12 9 -13 -3 -9 -9 4
-15 0 -15 -9 0 -8 4 -13 9 -10 14 9 17 -57 3 -69 -6 -5 0 -6 14 -3 17 3 21 2
13 -6 -7 -7 -7 -19 -1 -36 5 -13 12 -41 15 -61 3 -20 11 -42 16 -48 7 -9 7
-13 -1 -13 -6 0 -11 -5 -11 -11 0 -5 4 -8 9 -5 5 3 12 -4 16 -17 12 -35 12
-41 2 -54 -11 -15 -1 -33 18 -33 7 0 19 -21 26 -50 7 -27 17 -50 23 -50 5 0 6
-3 3 -7 -4 -3 -1 -13 6 -22 24 -28 27 -50 9 -61 -15 -10 -15 -11 0 -6 12 3 24
-11 47 -56 23 -44 27 -59 15 -54 -8 3 -18 6 -20 6 -3 0 -2 6 2 13 4 6 3 8 -1
4 -16 -14 -14 -36 3 -30 10 4 13 2 8 -5 -3 -6 -1 -14 5 -18 8 -4 9 -3 5 4 -5
8 0 12 13 12 13 0 23 -11 31 -35 6 -19 19 -39 28 -45 10 -5 12 -10 5 -10 -7 0
-13 -4 -13 -10 0 -5 3 -9 7 -9 20 3 24 -2 13 -16 -11 -13 -10 -14 2 -10 9 4
21 -4 32 -19 9 -15 13 -26 10 -26 -4 0 3 -8 14 -19 22 -18 31 -38 13 -27 -11
7 -8 -21 4 -31 4 -4 5 -2 1 4 -5 8 -1 13 9 13 10 0 15 -6 12 -13 -3 -8 -1 -20
5 -28 8 -11 9 -10 4 4 -3 9 -1 17 4 17 6 0 10 -6 10 -14 0 -8 11 -24 24 -37
13 -13 21 -29 18 -38 -3 -9 -1 -12 6 -7 7 4 12 2 12 -4 0 -6 4 -9 9 -6 5 4 15
-7 23 -24 7 -16 18 -30 24 -30 7 0 15 -7 18 -16 3 -8 12 -12 18 -9 7 4 6 1 -3
-7 -14 -12 -14 -15 4 -33 20 -20 20 -20 8 3 -15 29 -8 28 25 -4 14 -15 19 -24
10 -21 -8 3 -18 2 -21 -4 -4 -5 -3 -9 2 -8 24 4 53 -2 48 -11 -3 -5 1 -10 9
-10 14 0 20 -11 17 -32 0 -4 6 -5 14 -2 10 4 15 0 15 -12 0 -16 2 -17 10 -4 8
13 10 13 10 -1 0 -17 26 -34 44 -30 5 1 3 -5 -4 -14 -18 -22 -21 -43 -8 -52 7
-3 8 -1 4 5 -5 8 1 12 16 13 23 1 23 1 -2 8 -17 5 -21 9 -13 14 18 11 54 -11
51 -30 -2 -9 4 -18 12 -20 13 -4 13 -3 0 7 -13 10 -12 11 3 6 10 -3 20 -6 23
-6 2 0 0 -8 -3 -17 -6 -16 -5 -17 12 -3 11 9 16 10 11 3 -5 -9 0 -13 14 -13
12 0 18 -4 15 -10 -3 -5 -1 -10 5 -10 6 0 8 -5 5 -11 -4 -6 -1 -10 6 -8 27 3
40 -1 34 -11 -3 -5 3 -10 15 -10 12 0 18 -4 15 -10 -3 -5 3 -10 15 -10 12 0
18 -4 15 -10 -3 -5 3 -10 15 -10 14 0 19 -4 14 -12 -5 -7 -2 -9 9 -5 10 4 23
-3 37 -21 13 -17 23 -22 26 -15 4 8 11 7 24 -4 11 -9 26 -18 35 -19 9 -1 25
-10 35 -19 10 -9 27 -17 38 -18 12 0 18 -6 14 -12 -11 -17 -11 -35 0 -35 6 0
8 6 5 14 -3 8 1 17 9 20 9 3 12 1 9 -4 -4 -6 5 -10 20 -10 17 0 24 -4 19 -12
-5 -7 -2 -9 8 -5 9 3 19 3 23 -1 4 -4 11 -8 16 -8 5 -1 13 -2 19 -3 5 0 7 -9
3 -18 -5 -15 -3 -16 8 -5 18 17 29 15 29 -5 0 -15 2 -16 10 -3 9 14 15 7 11
-14 -1 -5 4 -4 11 2 10 8 24 6 56 -8 23 -11 42 -16 42 -13 0 4 6 -1 13 -12 10
-12 16 -15 21 -6 10 15 49 -6 41 -22 -4 -7 0 -4 8 5 13 16 15 16 25 -7 6 -14
16 -25 22 -25 6 0 8 -5 4 -12 -5 -7 -3 -8 5 -3 9 5 7 12 -9 27 -12 11 -19 23
-15 26 3 4 9 2 13 -4 4 -5 16 -9 27 -9 11 0 31 -4 45 -8 14 -5 42 -11 64 -13
21 -2 45 -9 52 -15 11 -9 14 -8 14 2 0 8 6 6 16 -7 8 -10 13 -14 10 -7 -4 6
-2 14 4 18 5 3 10 1 10 -4 0 -6 20 -11 46 -11 32 0 43 -3 38 -12 -5 -7 -3 -8
7 -2 22 14 73 11 87 -6 8 -8 11 -10 8 -3 -4 6 -2 14 4 18 5 3 10 -2 10 -12 1
-17 1 -17 14 0 9 12 16 14 21 8 4 -7 13 -8 23 -2 24 12 42 3 36 -17 -5 -15 -4
-15 6 1 6 9 15 15 21 12 5 -4 9 -1 9 5 0 7 7 5 16 -4 17 -18 28 -21 19 -7 -3
5 0 13 6 17 8 4 9 3 5 -4 -9 -15 -1 -15 24 -2 13 7 21 7 25 0 3 -5 11 -10 16
-10 6 0 7 5 4 10 -3 6 -2 10 4 10 5 0 12 -6 14 -12 4 -9 8 -10 14 -3 11 14 54
17 69 4 9 -7 15 -5 23 8 6 10 11 15 11 11 0 -4 14 -3 30 2 25 7 30 6 31 -8 0
-14 2 -13 9 3 5 11 9 14 9 8 1 -7 6 -13 12 -13 5 0 7 5 4 10 -8 13 8 13 22 -1
8 -8 13 -7 18 2 5 8 4 10 -3 5 -7 -4 -12 -3 -12 2 0 15 28 22 34 9 3 -8 7 -9
13 -2 9 13 23 13 41 1 7 -4 16 -5 19 -2 4 3 1 6 -5 6 -7 0 -12 4 -12 8 0 8 14
11 70 15 17 1 30 6 30 10 0 5 5 5 10 2 6 -4 7 -11 4 -17 -4 -7 -2 -8 5 -4 6 4
9 12 6 17 -7 10 7 17 46 22 15 1 33 7 40 13 8 6 24 9 37 8 12 0 22 2 22 5 0 3
10 12 21 20 20 12 21 11 15 -6 -5 -14 -2 -13 14 5 11 13 24 21 29 18 5 -3 14
1 21 9 7 8 16 12 22 9 5 -3 15 0 23 6 8 7 21 10 29 7 11 -4 13 -1 9 10 -4 11
-2 14 5 9 7 -4 12 -2 12 4 0 6 5 8 11 5 6 -4 22 4 36 16 15 13 23 18 19 12 -4
-7 -3 -13 3 -13 5 0 11 5 13 11 3 9 10 9 28 0 22 -11 23 -11 7 2 -14 12 -15
16 -4 26 8 6 17 8 20 4 4 -3 7 -1 7 6 0 7 4 10 9 7 4 -3 16 3 26 14 15 16 21
18 33 7 11 -8 14 -8 9 0 -12 19 11 25 23 6 10 -16 10 -16 5 3 -4 16 2 26 21
39 15 9 23 12 19 6 -3 -6 -3 -11 2 -10 19 3 27 -2 15 -10 -11 -7 -10 -9 3 -14
9 -4 13 -3 10 3 -3 6 -1 10 6 10 7 0 4 6 -6 14 -18 13 -18 14 -1 31 15 15 19
16 27 4 7 -12 9 -11 9 2 0 21 26 44 34 30 3 -5 1 -11 -6 -13 -8 -3 -6 -6 4
-10 11 -5 15 -2 13 10 -4 28 15 54 36 49 10 -3 22 0 26 5 3 7 1 8 -5 4 -7 -4
-12 -2 -12 3 0 6 6 11 14 11 8 0 18 5 22 12 5 7 3 8 -6 3 -9 -5 -11 -4 -6 3 4
7 11 12 17 12 5 0 18 9 30 21 14 14 27 18 42 13 22 -6 22 -6 2 10 -18 14 -19
15 -2 16 11 0 15 4 11 12 -4 7 -3 8 4 4 7 -4 12 -2 12 4 0 8 6 7 21 -1 13 -6
19 -7 15 -1 -3 6 -3 12 1 15 5 2 2 2 -4 1 -19 -5 -16 11 6 30 11 10 24 15 30
11 7 -4 8 0 4 11 -4 12 -3 15 5 10 7 -4 12 -1 12 8 0 9 3 15 8 15 19 -3 25 2
12 11 -13 8 -12 10 3 10 9 0 17 6 17 13 0 8 4 7 10 -3 8 -13 10 -12 11 5 1 11
1 23 0 27 0 4 8 10 19 13 11 4 17 11 14 17 -4 7 -2 8 4 4 7 -4 12 -1 12 8 0 9
5 16 11 16 5 0 7 -5 3 -12 -4 -7 -3 -8 4 -4 6 4 9 13 6 21 -3 8 4 20 15 27 12
7 21 18 21 25 0 7 5 13 10 13 6 0 10 7 10 16 0 9 6 14 13 11 9 -3 13 2 13 15
-1 12 6 23 14 25 13 4 13 3 0 -6 -8 -6 -10 -11 -4 -11 19 0 24 13 11 28 -10
13 -9 15 4 10 10 -4 16 -1 16 5 -1 30 4 47 13 47 5 0 7 -8 3 -17 -3 -10 -3
-15 1 -12 4 4 8 15 10 25 12 59 38 92 48 62 3 -7 7 -5 11 6 4 10 3 15 -3 11
-6 -3 -10 1 -10 9 0 8 4 18 10 21 5 3 10 12 10 20 0 12 27 59 57 100 9 12 14
31 16 57 1 9 5 14 9 12 4 -3 10 8 14 23 10 42 17 49 25 27 6 -14 7 -9 6 16 -1
21 3 35 10 35 6 0 15 4 20 9 4 5 3 6 -4 2 -6 -3 -14 -2 -18 4 -3 5 -1 10 5 10
6 0 8 5 5 10 -4 6 -1 18 7 27 7 9 11 17 9 17 -8 2 42 156 51 156 4 0 8 5 8 11
0 5 -5 7 -11 3 -8 -4 -8 0 0 15 7 12 9 26 6 31 -3 6 -2 10 3 10 5 0 8 11 7 25
-2 14 1 25 7 25 5 0 6 9 3 20 -3 11 -3 20 2 20 5 0 8 24 8 54 0 30 4 52 9 48
5 -3 7 2 3 11 -6 16 18 31 35 21 5 -3 4 4 -4 15 -10 17 -14 18 -16 6 -2 -8 -7
-15 -12 -15 -5 0 -5 13 0 30 5 17 6 30 3 30 -3 0 1 8 8 17 9 10 9 14 2 10 -9
-6 -11 1 -7 25 3 18 6 39 6 46 1 7 7 11 14 8 13 -5 13 19 -1 31 -4 4 -5 2 0
-6 5 -9 3 -12 -6 -9 -19 6 -12 87 9 113 9 11 10 14 2 8 -19 -17 -35 -17 -21 0
6 8 8 17 5 20 -10 9 -13 147 -4 142 11 -7 6 22 -5 32 -4 4 -5 2 -1 -4 4 -7 2
-13 -3 -13 -15 0 -14 13 2 29 10 11 9 12 -2 6 -10 -6 -11 -2 -6 15 4 13 3 20
-2 17 -5 -3 -10 5 -11 18 -1 19 2 23 16 19 9 -2 7 1 -5 7 -21 11 -22 13 -5 26
11 8 12 12 3 11 -7 -2 -16 3 -19 11 -3 9 0 11 9 7 8 -4 6 -1 -5 8 -10 8 -16
22 -13 30 4 9 2 18 -2 21 -8 4 -26 92 -23 108 1 4 -2 7 -6 7 -4 0 -9 12 -10
27 -1 15 -8 31 -15 35 -9 6 -8 12 6 22 16 12 16 14 2 20 -11 4 -14 2 -9 -6 5
-7 3 -8 -5 -4 -7 5 -10 14 -7 21 3 8 0 16 -7 18 -9 3 -8 9 3 23 8 10 10 16 6
12 -11 -9 -36 9 -36 25 0 7 4 7 12 -1 15 -15 28 -16 28 -2 0 6 -3 9 -7 8 -15
-3 -43 14 -43 26 0 6 -7 23 -14 39 -8 15 -10 27 -5 27 5 0 14 -10 19 -22 5
-14 9 -17 9 -7 1 8 -4 20 -11 27 -9 9 -9 12 0 12 7 0 17 -10 22 -22 7 -20 9
-20 9 -4 1 15 4 16 16 6 8 -7 22 -9 31 -6 15 6 15 8 -1 26 -10 11 -21 18 -23
15 -3 -3 3 -12 14 -20 17 -13 17 -14 2 -15 -17 0 -33 16 -33 34 0 5 -7 11 -15
13 -12 4 -12 3 -1 -5 9 -7 10 -12 2 -16 -10 -7 -16 6 -12 27 1 5 -4 7 -11 4
-7 -2 -12 -11 -10 -21 2 -9 -2 -16 -8 -16 -5 0 -10 6 -11 13 0 6 -2 22 -3 34
-2 21 -1 21 25 7 33 -16 43 -18 34 -4 -3 6 1 7 10 3 13 -5 14 -7 3 -14 -7 -5
-11 -9 -8 -10 41 -7 61 -6 66 3 4 7 2 8 -4 4 -7 -4 -12 -5 -12 -2 0 2 21 15
48 28 26 13 49 26 50 31 2 4 8 7 13 7 6 0 7 -4 4 -10 -3 -5 -1 -10 5 -10 7 0
10 6 7 14 -3 8 2 30 13 50 10 20 14 34 11 31 -4 -2 -5 16 -1 40 4 29 3 46 -4
49 -7 3 -6 5 2 5 7 1 10 6 7 11 -4 6 -8 23 -11 38 -2 15 -12 59 -23 99 -10 40
-16 74 -13 77 3 4 0 6 -6 6 -7 0 -12 9 -12 19 0 11 -5 23 -10 26 -8 5 -7 12 2
23 7 10 8 14 4 10 -5 -4 -15 0 -22 10 -14 19 -1 44 20 36 7 -3 24 0 38 5 22 8
27 6 37 -12 7 -14 10 -15 6 -4 -3 13 4 22 28 32 17 7 42 23 55 35 12 11 27 18
32 15 5 -3 7 0 5 7 -3 8 4 24 15 36 11 12 20 24 20 27 -1 21 1 26 8 22 8 -6
13 28 14 103 2 111 -84 217 -202 247 -41 11 -131 3 -157 -14 -25 -17 -27 -17
-20 0 3 9 3 17 -1 17 -4 0 -13 9 -20 21 -11 17 -11 20 0 13 7 -4 4 2 -6 14
-11 12 -15 22 -10 22 5 0 1 5 -10 11 -15 9 -16 13 -5 20 12 7 11 9 -1 9 -8 0
-21 9 -28 21 -10 15 -10 19 -1 14 8 -5 10 -4 5 3 -4 7 -13 12 -21 12 -7 0 -17
9 -20 20 -3 11 -11 20 -17 20 -6 0 -9 3 -5 6 6 7 -17 34 -29 34 -4 0 -17 10
-28 23 -12 12 -31 27 -42 34 -10 6 -18 16 -16 23 1 6 -2 9 -8 5 -5 -3 -34 7
-62 23 -29 16 -66 32 -81 36 -15 3 -25 11 -22 15 3 5 -4 7 -15 4 -13 -4 -27 1
-36 13 -9 11 -13 14 -10 7 4 -7 -1 -9 -14 -6 -11 3 -18 8 -16 12 3 4 -11 6
-30 6 -19 -1 -37 2 -40 6 -2 4 -22 10 -44 14 -36 6 -39 9 -28 23 11 15 11 15
-4 4 -19 -15 -92 -6 -82 10 4 6 -2 5 -14 -1 -12 -6 -23 -7 -26 -2 -5 7 -59 19
-104 23 -7 1 -11 7 -8 15 3 7 1 13 -4 13 -6 0 -10 -4 -10 -9 0 -5 -11 -4 -25
2 -14 7 -23 17 -21 24 3 7 -1 10 -8 7 -8 -3 -17 -1 -21 5 -4 7 4 11 20 11 18
0 24 4 19 13 -5 7 0 6 11 -3 11 -9 16 -10 11 -2 -4 6 -2 12 3 12 6 0 11 -4 11
-10 0 -5 5 -10 11 -10 6 0 8 7 5 17 -5 13 0 11 21 -7 15 -14 21 -17 14 -7 -8
9 -11 20 -7 24 3 4 12 -2 20 -12 10 -14 15 -15 21 -5 5 9 4 11 -3 6 -7 -4 -12
-3 -12 3 0 19 25 17 37 -3 12 -20 13 -19 8 8 -4 28 -4 28 16 11 10 -10 22 -15
26 -12 3 4 1 7 -5 7 -7 0 -12 5 -12 10 0 7 6 7 20 0 15 -8 20 -8 20 3 0 13 6
15 48 18 9 1 23 7 31 13 10 7 13 8 8 0 -3 -6 0 -11 7 -11 8 0 12 6 9 14 -3 7
2 13 12 13 10 0 14 -5 10 -12 -4 -7 2 -3 13 9 14 16 22 19 30 11 8 -8 13 -7
18 6 6 15 7 15 20 -1 12 -15 13 -15 8 -2 -3 10 0 20 7 25 8 5 10 3 5 -7 -4 -8
-1 -6 7 4 8 9 18 17 24 17 5 0 20 10 33 22 15 14 22 17 18 7 -4 -9 -1 -16 7
-16 7 0 11 7 8 15 -5 11 -1 13 15 8 17 -6 21 -4 16 7 -3 8 2 17 11 21 11 4 14
2 10 -7 -4 -6 0 -3 9 8 29 38 49 54 59 48 6 -3 7 -1 3 6 -4 6 -2 22 6 34 34
55 -18 112 -139 152 -45 14 -85 26 -88 26 -2 0 -35 9 -72 20 -97 28 -191 49
-243 56 -25 3 -46 6 -47 7 -1 1 16 24 39 52 22 27 68 89 100 139 58 86 77 138
61 161 -8 11 -57 26 -64 20z m-2373 -1542 c-1 -8 -6 -17 -12 -21 -5 -4 -6 -4
-2 1 4 5 3 14 -2 21 -7 8 -5 12 4 12 8 0 13 -6 12 -13z m-166 -96 c-18 -19
-20 -20 -14 -4 6 15 4 17 -7 11 -8 -5 -3 4 11 19 19 21 26 24 28 12 2 -8 -6
-26 -18 -38z m-25 -478 c3 -5 1 -10 -4 -10 -6 0 -11 5 -11 10 0 6 2 10 4 10 3
0 8 -4 11 -10z m-1085 -1455 c0 -8 -2 -15 -4 -15 -2 0 -6 7 -10 15 -3 8 -1 15
4 15 6 0 10 -7 10 -15z m444 -223 c3 -5 -1 -9 -9 -9 -8 0 -12 4 -9 9 3 4 7 8
9 8 2 0 6 -4 9 -8z m-329 -432 c3 -5 1 -10 -4 -10 -6 0 -11 5 -11 10 0 6 2 10
4 10 3 0 8 -4 11 -10z m810 -439 c3 -5 2 -12 -3 -15 -5 -3 -9 1 -9 9 0 17 3
19 12 6z m603 -216 c-3 -3 -9 2 -12 12 -6 14 -5 15 5 6 7 -7 10 -15 7 -18z
m-524 -33 c3 -5 -1 -9 -9 -9 -8 0 -12 4 -9 9 3 4 7 8 9 8 2 0 6 -4 9 -8z"/>
<path d="M5674 5904 c-18 -15 -18 -15 2 -5 12 6 25 7 29 3 5 -4 5 -1 1 6 -9
15 -8 15 -32 -4z"/>
<path d="M3875 5560 c-3 -5 -3 -10 2 -10 4 0 1 -5 -7 -10 -12 -7 -10 -9 7 -7
15 1 19 5 13 13 -6 6 -7 14 -3 17 3 4 4 7 0 7 -3 0 -9 -4 -12 -10z"/>
<path d="M3796 5548 c3 -5 10 -6 15 -3 13 9 11 12 -6 12 -8 0 -12 -4 -9 -9z"/>
<path d="M3850 5511 c0 -6 4 -13 10 -16 6 -3 7 1 4 9 -7 18 -14 21 -14 7z"/>
<path d="M3886 5505 c4 -8 10 -12 15 -9 11 6 2 24 -11 24 -5 0 -7 -7 -4 -15z"/>
<path d="M3715 5470 c-3 -5 -1 -10 4 -10 6 0 11 5 11 10 0 6 -2 10 -4 10 -3 0
-8 -4 -11 -10z"/>
<path d="M3754 5468 c-4 -7 -4 -10 1 -6 4 4 15 2 24 -5 14 -11 14 -10 2 6 -16
20 -18 21 -27 5z"/>
<path d="M3844 5469 c-3 -6 -2 -15 4 -21 6 -6 12 -6 17 3 6 8 4 10 -5 4 -10
-6 -12 -4 -7 8 7 19 2 23 -9 6z"/>
<path d="M3635 5451 c-3 -5 -2 -12 3 -15 5 -3 9 1 9 9 0 17 -3 19 -12 6z"/>
<path d="M3587 5429 c7 -7 15 -10 18 -7 3 3 -2 9 -12 12 -14 6 -15 5 -6 -5z"/>
<path d="M3755 5431 c-3 -5 -2 -12 3 -15 5 -3 9 1 9 9 0 17 -3 19 -12 6z"/>
<path d="M3780 5430 c0 -5 5 -10 11 -10 5 0 7 5 4 10 -3 6 -8 10 -11 10 -2 0
-4 -4 -4 -10z"/>
<path d="M3549 5413 c-13 -16 -12 -17 4 -4 16 13 21 21 13 21 -2 0 -10 -8 -17
-17z"/>
<path d="M3416 5412 c-3 -4 4 -9 15 -9 23 -2 25 3 4 10 -8 4 -16 3 -19 -1z"/>
<path d="M3677 5409 c7 -7 15 -10 18 -7 3 3 -2 9 -12 12 -14 6 -15 5 -6 -5z"/>
<path d="M3565 5389 c-6 -8 -4 -10 5 -4 10 6 12 4 6 -11 -6 -15 -5 -17 5 -6 9
9 10 15 2 23 -8 8 -13 7 -18 -2z"/>
<path d="M3616 5384 c-3 -7 2 -10 15 -7 22 6 26 20 4 20 -8 0 -16 -6 -19 -13z"/>
<path d="M3437 5341 c-10 -14 -10 -14 4 -4 9 7 18 10 21 7 3 -3 8 -1 12 4 9
16 -24 9 -37 -7z"/>
<path d="M3490 5350 c0 -5 5 -10 10 -10 6 0 10 5 10 10 0 6 -4 10 -10 10 -5 0
-10 -4 -10 -10z"/>
<path d="M3230 5330 c0 -5 5 -10 11 -10 5 0 7 5 4 10 -3 6 -8 10 -11 10 -2 0
-4 -4 -4 -10z"/>
<path d="M3295 5319 c-4 -6 -5 -12 -2 -15 2 -3 7 2 10 11 7 17 1 20 -8 4z"/>
<path d="M3315 5300 c-3 -5 -1 -10 4 -10 6 0 11 5 11 10 0 6 -2 10 -4 10 -3 0
-8 -4 -11 -10z"/>
<path d="M3133 5285 c0 -8 4 -12 9 -9 5 3 6 10 3 15 -9 13 -12 11 -12 -6z"/>
<path d="M3173 5285 c0 -8 4 -12 9 -9 5 3 6 10 3 15 -9 13 -12 11 -12 -6z"/>
<path d="M3145 5250 c-3 -6 1 -7 9 -4 18 7 21 14 7 14 -6 0 -13 -4 -16 -10z"/>
<path d="M2947 5229 c7 -7 15 -10 18 -7 3 3 -2 9 -12 12 -14 6 -15 5 -6 -5z"/>
<path d="M3055 5230 c3 -5 8 -10 11 -10 2 0 4 5 4 10 0 6 -5 10 -11 10 -5 0
-7 -4 -4 -10z"/>
<path d="M3190 5220 c0 -5 5 -10 10 -10 6 0 10 5 10 10 0 6 -4 10 -10 10 -5 0
-10 -4 -10 -10z"/>
<path d="M3015 5210 c-3 -5 -1 -10 4 -10 6 0 11 5 11 10 0 6 -2 10 -4 10 -3 0
-8 -4 -11 -10z"/>
<path d="M3013 5157 c0 -7 9 -14 20 -14 11 -1 18 -1 16 0 -2 2 -11 8 -20 15
-12 9 -16 9 -16 -1z"/>
<path d="M2895 5130 c-3 -5 -1 -10 4 -10 6 0 11 5 11 10 0 6 -2 10 -4 10 -3 0
-8 -4 -11 -10z"/>
<path d="M2990 5110 c0 -5 5 -10 10 -10 6 0 10 5 10 10 0 6 -4 10 -10 10 -5 0
-10 -4 -10 -10z"/>
<path d="M2813 5095 c0 -8 4 -12 9 -9 5 3 6 10 3 15 -9 13 -12 11 -12 -6z"/>
<path d="M2915 5080 c-4 -6 -10 -8 -14 -6 -4 3 -8 -1 -8 -9 0 -13 4 -12 19 2
18 16 22 23 14 23 -3 0 -8 -5 -11 -10z"/>
<path d="M2875 5030 c2 -12 7 -25 10 -28 3 -3 4 4 2 16 -2 12 -6 24 -10 28 -3
4 -4 -4 -2 -16z"/>
<path d="M2836 5003 c-6 -14 -5 -15 5 -6 7 7 10 15 7 18 -3 3 -9 -2 -12 -12z"/>
<path d="M2730 4990 c0 -5 5 -10 11 -10 5 0 7 5 4 10 -3 6 -8 10 -11 10 -2 0
-4 -4 -4 -10z"/>
<path d="M2696 4943 c-6 -14 -5 -15 5 -6 7 7 10 15 7 18 -3 3 -9 -2 -12 -12z"/>
<path d="M2725 4949 c-3 -4 2 -6 10 -5 21 3 28 13 10 13 -9 0 -18 -4 -20 -8z"/>
<path d="M2770 4950 c0 -5 5 -10 10 -10 6 0 10 5 10 10 0 6 -4 10 -10 10 -5 0
-10 -4 -10 -10z"/>
<path d="M2680 4905 c-7 -9 -11 -17 -9 -20 3 -2 10 5 17 15 14 24 10 26 -8 5z"/>
<path d="M2630 4855 c0 -5 5 -17 10 -25 5 -8 10 -10 10 -5 0 6 -5 17 -10 25
-5 8 -10 11 -10 5z"/>
<path d="M2597 4825 c-6 -15 10 -32 20 -21 4 3 1 6 -5 6 -6 0 -9 7 -6 15 4 8
4 15 1 15 -3 0 -7 -7 -10 -15z"/>
<path d="M2470 4815 c0 -7 30 -13 34 -7 3 4 -4 9 -15 9 -10 1 -19 0 -19 -2z"/>
<path d="M2536 4783 c-6 -14 -5 -15 5 -6 7 7 10 15 7 18 -3 3 -9 -2 -12 -12z"/>
<path d="M2436 4763 c-6 -14 -5 -15 5 -6 7 7 10 15 7 18 -3 3 -9 -2 -12 -12z"/>
<path d="M2514 4738 l-19 -23 23 19 c21 18 27 26 19 26 -2 0 -12 -10 -23 -22z"/>
<path d="M2547 4723 c3 -7 6 -13 8 -13 1 0 7 6 13 13 8 10 6 13 -7 13 -11 0
-17 -6 -14 -13z"/>
<path d="M6530 4729 c0 -5 5 -7 10 -4 6 3 10 8 10 11 0 2 -4 4 -10 4 -5 0 -10
-5 -10 -11z"/>
<path d="M2531 4704 c0 -11 3 -14 6 -6 3 7 2 16 -1 19 -3 4 -6 -2 -5 -13z"/>
<path d="M2396 4672 c-3 -5 1 -9 9 -9 8 0 12 4 9 9 -3 4 -7 8 -9 8 -2 0 -6 -4
-9 -8z"/>
<path d="M2435 4670 c3 -5 8 -10 11 -10 2 0 4 5 4 10 0 6 -5 10 -11 10 -5 0
-7 -4 -4 -10z"/>
<path d="M2395 4639 c-4 -6 -5 -12 -2 -15 2 -3 7 2 10 11 7 17 1 20 -8 4z"/>
<path d="M2416 4596 c7 -19 20 -21 30 -3 4 6 4 9 -1 5 -4 -4 -14 -3 -22 4 -11
8 -12 7 -7 -6z"/>
<path d="M2335 4570 c-2 -3 5 -6 15 -7 11 -1 22 2 24 5 3 4 -4 8 -15 8 -11 0
-22 -3 -24 -6z"/>
<path d="M2310 4536 c0 -2 7 -7 16 -10 8 -3 12 -2 9 4 -6 10 -25 14 -25 6z"/>
<path d="M2350 4530 c0 -5 5 -10 10 -10 6 0 10 5 10 10 0 6 -4 10 -10 10 -5 0
-10 -4 -10 -10z"/>
<path d="M2355 4500 c-3 -5 -1 -10 4 -10 6 0 11 5 11 10 0 6 -2 10 -4 10 -3 0
-8 -4 -11 -10z"/>
<path d="M2270 4490 c0 -5 5 -10 11 -10 5 0 7 5 4 10 -3 6 -8 10 -11 10 -2 0
-4 -4 -4 -10z"/>
<path d="M2308 4489 c6 -9 10 -18 7 -20 -2 -3 5 -5 15 -6 11 -1 20 3 20 9 0 6
-3 8 -7 5 -3 -4 -16 1 -27 10 -15 14 -18 14 -8 2z"/>
<path d="M2308 4443 c7 -3 16 -2 19 1 4 3 -2 6 -13 5 -11 0 -14 -3 -6 -6z"/>
<path d="M2159 4423 c-13 -16 -12 -17 4 -4 9 7 17 15 17 17 0 8 -8 3 -21 -13z"/>
<path d="M2213 4405 c0 -8 4 -12 9 -9 5 3 6 10 3 15 -9 13 -12 11 -12 -6z"/>
<path d="M2275 4400 c-4 -6 -10 -8 -14 -6 -4 3 -8 -1 -8 -8 0 -8 7 -12 15 -8
11 4 13 1 7 -9 -4 -8 -4 -11 0 -6 8 7 15 47 9 47 -2 0 -6 -5 -9 -10z"/>
<path d="M2196 4371 c-3 -4 4 -17 17 -27 22 -19 22 -19 4 2 -9 11 -14 24 -10
27 3 4 4 7 0 7 -3 0 -8 -4 -11 -9z"/>
<path d="M2236 4348 c3 -5 10 -6 15 -3 13 9 11 12 -6 12 -8 0 -12 -4 -9 -9z"/>
<path d="M2259 4338 c-5 -19 -8 -50 -4 -46 7 7 15 48 9 48 -2 0 -4 -1 -5 -2z"/>
<path d="M2193 4302 c-8 -14 -8 -19 1 -19 7 0 13 9 13 19 1 10 1 18 0 18 -1 0
-7 -8 -14 -18z"/>
<path d="M2133 4285 c0 -8 4 -12 9 -9 5 3 6 10 3 15 -9 13 -12 11 -12 -6z"/>
<path d="M2135 4250 c-3 -5 -1 -10 4 -10 6 0 11 5 11 10 0 6 -2 10 -4 10 -3 0
-8 -4 -11 -10z"/>
<path d="M2206 4252 c-3 -5 1 -9 9 -9 8 0 12 4 9 9 -3 4 -7 8 -9 8 -2 0 -6 -4
-9 -8z"/>
<path d="M6575 4250 c-3 -5 -1 -10 4 -10 6 0 11 5 11 10 0 6 -2 10 -4 10 -3 0
-8 -4 -11 -10z"/>
<path d="M2170 4229 c0 -5 5 -7 10 -4 6 3 10 8 10 11 0 2 -4 4 -10 4 -5 0 -10
-5 -10 -11z"/>
<path d="M2190 4210 c0 -5 5 -10 10 -10 6 0 10 5 10 10 0 6 -4 10 -10 10 -5 0
-10 -4 -10 -10z"/>
<path d="M6479 4200 c-25 -15 -51 -58 -39 -65 6 -4 9 -3 8 2 -2 4 5 19 15 33
15 21 19 23 28 10 9 -13 10 -12 5 3 -6 20 5 22 22 5 8 -8 12 -8 12 -1 0 6 -7
14 -16 17 -19 7 -15 8 -35 -4z"/>
<path d="M2154 4192 c4 -7 1 -12 -6 -12 -9 0 -10 -3 -2 -8 6 -4 10 -15 8 -25
-1 -9 2 -14 8 -11 5 3 7 8 4 12 -3 3 2 11 12 19 16 12 16 13 -2 6 -13 -4 -17
-3 -12 5 3 6 1 14 -5 18 -8 4 -9 3 -5 -4z"/>
<path d="M2074 4156 c1 -8 5 -18 8 -22 4 -3 5 1 4 10 -1 8 -5 18 -8 22 -4 3
-5 -1 -4 -10z"/>
<path d="M6465 4150 c-3 -6 1 -7 9 -4 18 7 21 14 7 14 -6 0 -13 -4 -16 -10z"/>
<path d="M6510 4151 c0 -6 4 -13 10 -16 6 -3 7 1 4 9 -7 18 -14 21 -14 7z"/>
<path d="M6476 4132 c-3 -5 1 -9 9 -9 8 0 12 4 9 9 -3 4 -7 8 -9 8 -2 0 -6 -4
-9 -8z"/>
<path d="M2096 4108 c3 -5 10 -6 15 -3 13 9 11 12 -6 12 -8 0 -12 -4 -9 -9z"/>
<path d="M6436 4103 c-6 -14 -5 -15 5 -6 7 7 10 15 7 18 -3 3 -9 -2 -12 -12z"/>
<path d="M2124 4085 c-5 -13 -9 -13 -23 -3 -14 12 -15 11 -2 -5 13 -17 16 -17
26 -3 7 9 16 12 20 8 5 -4 5 -1 1 6 -9 16 -15 15 -22 -3z"/>
<path d="M6375 4089 c-4 -6 -5 -12 -2 -15 2 -3 7 2 10 11 7 17 1 20 -8 4z"/>
<path d="M2110 4040 c8 -5 20 -10 25 -10 6 0 3 5 -5 10 -8 5 -19 10 -25 10 -5
0 -3 -5 5 -10z"/>
<path d="M6422 4034 c10 -10 20 -16 22 -13 3 3 -5 11 -17 18 -21 13 -21 12 -5
-5z"/>
<path d="M2053 3983 c0 -9 4 -10 14 -2 7 6 13 12 13 14 0 1 -6 2 -13 2 -8 0
-14 -6 -14 -14z"/>
<path d="M2090 3996 c0 -2 7 -7 16 -10 8 -3 12 -2 9 4 -6 10 -25 14 -25 6z"/>
<path d="M6388 3983 c7 -3 16 -2 19 1 4 3 -2 6 -13 5 -11 0 -14 -3 -6 -6z"/>
<path d="M2079 3963 c-12 -16 -12 -17 2 -6 9 7 20 9 24 5 5 -4 5 -1 1 6 -9 16
-11 15 -27 -5z"/>
<path d="M6436 3937 c3 -10 9 -15 12 -12 3 3 0 11 -7 18 -10 9 -11 8 -5 -6z"/>
<path d="M1990 3927 c0 -2 6 -10 14 -16 11 -9 16 -9 22 1 4 7 4 10 -1 6 -4 -4
-14 -3 -22 3 -7 6 -13 9 -13 6z"/>
<path d="M2050 3912 c0 -4 10 -9 22 -9 18 -2 20 0 8 7 -18 12 -30 13 -30 2z"/>
<path d="M6416 3905 c4 -8 8 -15 10 -15 2 0 4 7 4 15 0 8 -4 15 -10 15 -5 0
-7 -7 -4 -15z"/>
<path d="M6459 3903 c-13 -16 -12 -17 3 -5 9 8 23 10 29 6 8 -4 9 -3 5 4 -10
17 -21 15 -37 -5z"/>
<path d="M6515 3891 c-3 -5 -2 -12 3 -15 5 -3 9 1 9 9 0 17 -3 19 -12 6z"/>
<path d="M6476 3877 c3 -10 9 -15 12 -12 3 3 0 11 -7 18 -10 9 -11 8 -5 -6z"/>
<path d="M6427 3863 c3 -7 6 -13 8 -13 2 0 5 6 8 13 3 8 -1 14 -8 14 -7 0 -11
-6 -8 -14z"/>
<path d="M1996 3848 c3 -5 10 -6 15 -3 13 9 11 12 -6 12 -8 0 -12 -4 -9 -9z"/>
<path d="M2030 3836 c0 -2 7 -7 16 -10 8 -3 12 -2 9 4 -6 10 -25 14 -25 6z"/>
<path d="M6435 3831 c-6 -11 13 -26 22 -17 4 3 1 6 -6 6 -7 0 -9 5 -6 10 3 6
4 10 1 10 -3 0 -7 -4 -11 -9z"/>
<path d="M6470 3816 c0 -2 7 -7 16 -10 8 -3 12 -2 9 4 -6 10 -25 14 -25 6z"/>
<path d="M2035 3790 c-3 -5 -1 -10 4 -10 6 0 11 5 11 10 0 6 -2 10 -4 10 -3 0
-8 -4 -11 -10z"/>
<path d="M6445 3790 c-3 -6 1 -7 9 -4 18 7 21 14 7 14 -6 0 -13 -4 -16 -10z"/>
<path d="M6455 3769 c-4 -6 -4 -13 -1 -16 3 -4 6 -1 6 6 0 7 5 9 12 5 7 -4 8
-3 4 4 -9 15 -13 15 -21 1z"/>
<path d="M6526 3768 c3 -5 10 -6 15 -3 13 9 11 12 -6 12 -8 0 -12 -4 -9 -9z"/>
<path d="M6496 3757 c3 -10 9 -15 12 -12 3 3 0 11 -7 18 -10 9 -11 8 -5 -6z"/>
<path d="M1990 3751 c0 -6 4 -13 10 -16 6 -3 7 1 4 9 -7 18 -14 21 -14 7z"/>
<path d="M6470 3731 c0 -6 4 -12 8 -15 5 -3 9 1 9 9 0 8 -4 15 -9 15 -4 0 -8
-4 -8 -9z"/>
<path d="M6545 3709 c-3 -4 2 -6 10 -5 21 3 28 13 10 13 -9 0 -18 -4 -20 -8z"/>
<path d="M2010 3669 c0 -5 5 -7 10 -4 6 3 10 8 10 11 0 2 -4 4 -10 4 -5 0 -10
-5 -10 -11z"/>
<path d="M6495 3671 c-3 -5 -2 -12 3 -15 5 -3 9 1 9 9 0 17 -3 19 -12 6z"/>
<path d="M6536 3663 c-6 -14 -5 -15 5 -6 7 7 10 15 7 18 -3 3 -9 -2 -12 -12z"/>
<path d="M1984 3652 c4 -7 2 -20 -6 -30 -11 -15 -11 -15 3 -5 9 7 19 10 22 6
4 -3 7 -2 7 4 0 6 -8 17 -17 24 -12 10 -15 11 -9 1z"/>
<path d="M6500 3630 c-9 -6 -10 -10 -3 -10 6 0 15 5 18 10 8 12 4 12 -15 0z"/>
<path d="M6573 3621 c0 -11 5 -18 9 -15 4 3 5 11 1 19 -7 21 -12 19 -10 -4z"/>
<path d="M1961 3586 c-9 -10 -9 -16 -1 -21 6 -4 10 -3 9 2 -3 20 2 27 11 13 6
-9 10 -10 10 -3 0 19 -17 24 -29 9z"/>
<path d="M6500 3590 c-9 -6 -10 -10 -3 -10 6 0 15 5 18 10 8 12 4 12 -15 0z"/>
<path d="M1996 3565 c-9 -26 -7 -32 5 -12 6 10 9 21 6 23 -2 3 -7 -2 -11 -11z"/>
<path d="M6553 3555 c0 -8 4 -12 9 -9 5 3 6 10 3 15 -9 13 -12 11 -12 -6z"/>
<path d="M1896 3528 c3 -5 10 -6 15 -3 13 9 11 12 -6 12 -8 0 -12 -4 -9 -9z"/>
<path d="M1973 3519 c-2 -23 3 -25 10 -4 4 8 3 16 -1 19 -4 3 -9 -4 -9 -15z"/>
<path d="M6543 3514 c9 -11 15 -24 12 -27 -3 -4 -2 -5 2 -2 4 3 8 13 9 21 1 9
0 13 -3 10 -4 -3 -13 0 -22 6 -12 10 -12 7 2 -8z"/>
<path d="M6520 3501 c0 -6 4 -13 10 -16 6 -3 7 1 4 9 -7 18 -14 21 -14 7z"/>
<path d="M1957 3471 c2 -2 -2 -9 -7 -16 -7 -8 -4 -11 10 -10 11 1 22 4 25 8 3
4 2 5 -2 2 -3 -3 -11 1 -17 8 -6 7 -10 10 -9 8z"/>
<path d="M1980 3430 c-9 -6 -10 -10 -3 -10 6 0 15 5 18 10 8 12 4 12 -15 0z"/>
<path d="M6554 3415 c1 -8 8 -21 16 -28 12 -10 12 -9 2 4 -6 9 -9 18 -6 21 3
3 1 9 -4 12 -6 3 -9 -1 -8 -9z"/>
<path d="M1950 3413 c5 -2 8 -9 5 -14 -4 -5 -2 -17 4 -26 8 -15 9 -12 7 12 -2
16 -8 30 -15 31 -6 2 -7 0 -1 -3z"/>
<path d="M6593 3405 c0 -8 4 -12 9 -9 5 3 6 10 3 15 -9 13 -12 11 -12 -6z"/>
<path d="M6521 3386 c-9 -11 -9 -16 0 -22 8 -5 9 -3 4 6 -6 10 -4 12 8 7 11
-4 14 -2 10 9 -6 17 -8 17 -22 0z"/>
<path d="M1934 3359 c-3 -6 -2 -15 3 -20 5 -5 9 -1 9 11 0 23 -2 24 -12 9z"/>
<path d="M6532 3351 c-11 -7 -11 -9 0 -14 9 -3 15 1 15 9 0 8 -1 14 -1 14 -1
0 -7 -4 -14 -9z"/>
<path d="M1965 3310 c-3 -5 -1 -10 4 -10 6 0 11 5 11 10 0 6 -2 10 -4 10 -3 0
-8 -4 -11 -10z"/>
<path d="M6550 3306 c7 -7 13 -7 20 0 6 6 3 10 -10 10 -13 0 -16 -4 -10 -10z"/>
<path d="M1947 3288 c7 -8 10 -18 6 -21 -3 -4 -1 -7 5 -7 21 0 21 16 -1 30
-19 12 -21 11 -10 -2z"/>
<path d="M6512 3266 c1 -14 5 -23 9 -20 7 4 0 44 -7 44 -2 0 -3 -11 -2 -24z"/>
<path d="M1895 3250 c3 -5 8 -10 11 -10 2 0 4 5 4 10 0 6 -5 10 -11 10 -5 0
-7 -4 -4 -10z"/>
<path d="M6614 3248 c-4 -7 -4 -10 1 -6 4 4 15 2 24 -5 14 -11 14 -10 2 6 -16
20 -18 21 -27 5z"/>
<path d="M6530 3230 c0 -5 9 -8 20 -7 21 1 18 10 -5 13 -8 1 -15 -2 -15 -6z"/>
<path d="M6580 3196 c0 -2 8 -10 18 -17 15 -13 16 -12 3 4 -13 16 -21 21 -21
13z"/>
<path d="M1952 3162 c8 -9 14 -10 16 -3 2 6 9 8 15 4 7 -3 9 -2 4 2 -4 5 -16
9 -27 10 -16 1 -17 -1 -8 -13z"/>
<path d="M1789 3153 c-13 -16 -12 -17 4 -4 9 7 17 15 17 17 0 8 -8 3 -21 -13z"/>
<path d="M6531 3154 c0 -11 3 -14 6 -6 3 7 2 16 -1 19 -3 4 -6 -2 -5 -13z"/>
<path d="M6573 3125 c0 -8 4 -12 9 -9 5 3 6 10 3 15 -9 13 -12 11 -12 -6z"/>
<path d="M6616 3132 c-3 -5 1 -9 9 -9 8 0 12 4 9 9 -3 4 -7 8 -9 8 -2 0 -6 -4
-9 -8z"/>
<path d="M6522 3114 c10 -10 20 -16 22 -13 3 3 -5 11 -17 18 -21 13 -21 12 -5
-5z"/>
<path d="M1976 3093 c-6 -14 -5 -15 5 -6 7 7 10 15 7 18 -3 3 -9 -2 -12 -12z"/>
<path d="M1893 3085 c0 -8 4 -12 9 -9 5 3 6 10 3 15 -9 13 -12 11 -12 -6z"/>
<path d="M6510 3075 c0 -8 4 -15 10 -15 5 0 7 7 4 15 -4 8 -8 15 -10 15 -2 0
-4 -7 -4 -15z"/>
<path d="M1985 3069 c-4 -6 -5 -12 -2 -15 2 -3 7 2 10 11 7 17 1 20 -8 4z"/>
<path d="M1894 3048 c-4 -7 -4 -10 1 -6 4 4 15 2 24 -5 14 -11 14 -10 2 6 -16
20 -18 21 -27 5z"/>
<path d="M1937 3003 c-10 -9 -9 -23 1 -23 5 0 9 7 9 15 0 17 -1 18 -10 8z"/>
<path d="M1970 3006 c0 -3 9 -10 20 -16 11 -6 20 -8 20 -6 0 3 -9 10 -20 16
-11 6 -20 8 -20 6z"/>
<path d="M6530 2990 c0 -5 5 -10 11 -10 5 0 7 5 4 10 -3 6 -8 10 -11 10 -2 0
-4 -4 -4 -10z"/>
<path d="M1897 2965 c-4 -8 -3 -16 1 -19 4 -3 9 4 9 15 2 23 -3 25 -10 4z"/>
<path d="M6497 2973 c-10 -10 -8 -33 3 -33 5 0 6 7 3 17 -5 12 -3 14 7 8 9 -5
11 -4 6 3 -8 14 -10 14 -19 5z"/>
<path d="M6570 2969 c0 -5 5 -7 10 -4 6 3 10 8 10 11 0 2 -4 4 -10 4 -5 0 -10
-5 -10 -11z"/>
<path d="M1954 2918 c-19 -23 -19 -23 2 -5 11 9 24 14 29 10 4 -5 5 -2 1 5 -9
16 -10 16 -32 -10z"/>
<path d="M6524 2912 c23 -26 23 -26 23 -7 0 8 -3 13 -5 10 -3 -3 -12 1 -21 7
-10 8 -9 4 3 -10z"/>
<path d="M6494 2889 c-4 -7 -3 -9 4 -5 6 3 13 -2 15 -11 4 -16 5 -16 6 -1 1
21 -15 32 -25 17z"/>
<path d="M2008 2873 c6 -2 9 -10 6 -15 -4 -7 -2 -8 5 -4 13 9 5 26 -12 25 -9
0 -8 -2 1 -6z"/>
<path d="M1990 2851 c0 -6 4 -13 10 -16 6 -3 7 1 4 9 -7 18 -14 21 -14 7z"/>
<path d="M1875 2831 c-3 -5 -2 -12 3 -15 5 -3 9 1 9 9 0 17 -3 19 -12 6z"/>
<path d="M6473 2815 c0 -8 4 -12 9 -9 5 3 6 10 3 15 -9 13 -12 11 -12 -6z"/>
<path d="M1960 2810 c-9 -6 -10 -10 -3 -10 6 0 15 5 18 10 8 12 4 12 -15 0z"/>
<path d="M6512 2801 c7 -9 13 -18 15 -20 1 -2 1 5 0 16 0 11 -7 20 -14 20 -10
0 -10 -4 -1 -16z"/>
<path d="M1990 2796 c0 -2 7 -7 16 -10 8 -3 12 -2 9 4 -6 10 -25 14 -25 6z"/>
<path d="M6493 2785 c0 -8 4 -12 9 -9 5 3 6 10 3 15 -9 13 -12 11 -12 -6z"/>
<path d="M6462 2750 c0 -14 2 -19 5 -12 2 6 2 18 0 25 -3 6 -5 1 -5 -13z"/>
<path d="M1940 2750 c-8 -5 -10 -10 -5 -10 6 0 17 5 25 10 8 5 11 10 5 10 -5
0 -17 -5 -25 -10z"/>
<path d="M2026 2748 c3 -5 10 -6 15 -3 13 9 11 12 -6 12 -8 0 -12 -4 -9 -9z"/>
<path d="M1985 2729 c-3 -4 2 -6 10 -5 21 3 28 13 10 13 -9 0 -18 -4 -20 -8z"/>
<path d="M2024 2700 c0 -13 4 -16 10 -10 7 7 7 13 0 20 -6 6 -10 3 -10 -10z"/>
<path d="M6486 2711 c-3 -4 6 -7 19 -7 14 0 22 2 19 5 -8 8 -34 10 -38 2z"/>
<path d="M6522 2674 c10 -10 20 -16 22 -13 3 3 -5 11 -17 18 -21 13 -21 12 -5
-5z"/>
<path d="M2045 2670 c3 -5 8 -10 11 -10 2 0 4 5 4 10 0 6 -5 10 -11 10 -5 0
-7 -4 -4 -10z"/>
<path d="M6433 2665 c0 -8 6 -16 13 -19 7 -3 10 2 7 15 -6 22 -20 26 -20 4z"/>
<path d="M1975 2650 c3 -5 8 -10 11 -10 2 0 4 5 4 10 0 6 -5 10 -11 10 -5 0
-7 -4 -4 -10z"/>
<path d="M6427 2629 c7 -7 15 -10 18 -7 3 3 -2 9 -12 12 -14 6 -15 5 -6 -5z"/>
<path d="M2070 2612 c0 -5 7 -9 15 -9 8 0 12 4 9 9 -3 4 -9 8 -15 8 -5 0 -9
-4 -9 -8z"/>
<path d="M6415 2600 c6 -30 16 -40 12 -12 -2 12 -6 24 -10 28 -3 4 -4 -4 -2
-16z"/>
<path d="M6466 2608 c3 -5 10 -6 15 -3 13 9 11 12 -6 12 -8 0 -12 -4 -9 -9z"/>
<path d="M6395 2570 c-3 -5 -1 -10 4 -10 6 0 11 5 11 10 0 6 -2 10 -4 10 -3 0
-8 -4 -11 -10z"/>
<path d="M6466 2571 c-3 -4 4 -7 14 -6 27 2 33 10 10 12 -11 1 -22 -2 -24 -6z"/>
<path d="M2057 2555 c-4 -8 -3 -16 1 -19 4 -3 9 4 9 15 2 23 -3 25 -10 4z"/>
<path d="M1985 2550 c-3 -6 1 -7 9 -4 18 7 21 14 7 14 -6 0 -13 -4 -16 -10z"/>
<path d="M6390 2531 c0 -6 4 -13 10 -16 6 -3 7 1 4 9 -7 18 -14 21 -14 7z"/>
<path d="M2095 2500 c-4 -6 1 -7 11 -3 13 5 15 3 9 -7 -5 -9 -4 -11 4 -6 6 4
9 12 6 17 -8 12 -22 12 -30 -1z"/>
<path d="M2013 2479 c-2 -23 3 -25 10 -4 4 8 3 16 -1 19 -4 3 -9 -4 -9 -15z"/>
<path d="M6420 2496 c0 -2 8 -10 18 -17 15 -13 16 -12 3 4 -13 16 -21 21 -21
13z"/>
<path d="M6380 2469 c-12 -9 -12 -10 4 -5 10 4 26 1 35 -6 14 -12 14 -11 2 5
-16 20 -21 21 -41 6z"/>
<path d="M2106 2453 c-6 -14 -5 -15 5 -6 7 7 10 15 7 18 -3 3 -9 -2 -12 -12z"/>
<path d="M6400 2430 c-9 -6 -10 -10 -3 -10 6 0 15 5 18 10 8 12 4 12 -15 0z"/>
<path d="M2123 2423 c9 -2 14 -9 11 -15 -4 -7 -2 -8 5 -4 15 10 4 26 -17 25
-15 -1 -15 -2 1 -6z"/>
<path d="M2056 2403 c-6 -14 -5 -15 5 -6 7 7 10 15 7 18 -3 3 -9 -2 -12 -12z"/>
<path d="M2095 2399 c-4 -6 -5 -12 -2 -15 2 -3 7 2 10 11 7 17 1 20 -8 4z"/>
<path d="M2155 2401 c-6 -11 13 -26 22 -17 4 3 1 6 -6 6 -7 0 -9 5 -6 10 3 6
4 10 1 10 -3 0 -7 -4 -11 -9z"/>
<path d="M6336 2394 c-4 -10 -2 -22 4 -28 8 -8 9 -5 4 9 l-7 20 24 -20 24 -20
-20 25 c-11 14 -20 26 -21 28 -1 2 -4 -5 -8 -14z"/>
<path d="M6395 2390 c3 -5 8 -10 11 -10 2 0 4 5 4 10 0 6 -5 10 -11 10 -5 0
-7 -4 -4 -10z"/>
<path d="M6313 2338 c-2 -18 0 -20 7 -8 12 18 13 30 2 30 -4 0 -9 -10 -9 -22z"/>
<path d="M2095 2330 c3 -5 8 -10 11 -10 2 0 4 5 4 10 0 6 -5 10 -11 10 -5 0
-7 -4 -4 -10z"/>
<path d="M6333 2315 c0 -8 4 -12 9 -9 5 3 6 10 3 15 -9 13 -12 11 -12 -6z"/>
<path d="M2190 2300 c-9 -6 -10 -10 -3 -10 6 0 15 5 18 10 8 12 4 12 -15 0z"/>
<path d="M6310 2301 c0 -7 -5 -9 -12 -5 -7 5 -8 3 -3 -5 5 -9 10 -10 18 -2 6
6 8 14 4 18 -4 3 -7 1 -7 -6z"/>
<path d="M6324 2268 l-19 -23 23 19 c21 18 27 26 19 26 -2 0 -12 -10 -23 -22z"/>
<path d="M2151 2277 c2 -1 13 -9 24 -17 19 -14 19 -14 6 3 -7 9 -18 17 -24 17
-6 0 -8 -1 -6 -3z"/>
<path d="M6275 2271 c-6 -11 13 -26 22 -17 4 3 1 6 -6 6 -7 0 -9 5 -6 10 3 6
4 10 1 10 -3 0 -7 -4 -11 -9z"/>
<path d="M6245 2240 c-3 -6 1 -7 9 -4 18 7 21 14 7 14 -6 0 -13 -4 -16 -10z"/>
<path d="M6355 2239 c-4 -6 -5 -12 -2 -15 2 -3 7 2 10 11 7 17 1 20 -8 4z"/>
<path d="M6273 2232 c-9 -5 -6 -12 10 -21 19 -13 21 -12 10 1 -7 8 -10 18 -6
21 9 9 1 8 -14 -1z"/>
<path d="M6313 2225 c0 -8 4 -12 9 -9 4 3 8 9 8 15 0 5 -4 9 -8 9 -5 0 -9 -7
-9 -15z"/>
<path d="M2126 2208 c3 -5 10 -6 15 -3 13 9 11 12 -6 12 -8 0 -12 -4 -9 -9z"/>
<path d="M2266 2197 c3 -10 9 -15 12 -12 3 3 0 11 -7 18 -10 9 -11 8 -5 -6z"/>
<path d="M2186 2188 c3 -4 9 -8 15 -8 5 0 9 4 9 8 0 5 -7 9 -15 9 -8 0 -12 -4
-9 -9z"/>
<path d="M6236 2192 c-3 -5 1 -9 9 -9 8 0 12 4 9 9 -3 4 -7 8 -9 8 -2 0 -6 -4
-9 -8z"/>
<path d="M2268 2162 c8 -5 13 -13 12 -18 -1 -5 4 -10 12 -12 11 -3 11 -2 0 6
-8 5 -13 13 -12 18 1 5 -4 10 -12 12 -11 3 -11 2 0 -6z"/>
<path d="M6227 2136 c-4 -10 -1 -13 8 -9 8 3 12 9 9 14 -7 12 -11 11 -17 -5z"/>
<path d="M6194 2132 c3 -5 0 -12 -6 -15 -7 -2 -10 -7 -7 -11 3 -4 12 0 18 8 9
11 9 16 0 22 -7 4 -9 3 -5 -4z"/>
<path d="M6286 2128 c3 -5 10 -6 15 -3 13 9 11 12 -6 12 -8 0 -12 -4 -9 -9z"/>
<path d="M2283 2108 c-9 -16 -16 -54 -7 -46 3 3 6 12 8 20 1 7 5 19 9 26 5 6
6 12 3 12 -3 0 -8 -6 -13 -12z"/>
<path d="M6190 2080 c-9 -6 -10 -10 -3 -10 6 0 15 5 18 10 8 12 4 12 -15 0z"/>
<path d="M2335 2069 c-4 -6 -5 -12 -2 -15 2 -3 7 2 10 11 7 17 1 20 -8 4z"/>
<path d="M6216 2063 c-6 -14 -5 -15 5 -6 7 7 10 15 7 18 -3 3 -9 -2 -12 -12z"/>
<path d="M2305 2029 c-3 -4 2 -6 10 -5 21 3 28 13 10 13 -9 0 -18 -4 -20 -8z"/>
<path d="M6180 2030 c-9 -6 -10 -10 -3 -10 6 0 15 5 18 10 8 12 4 12 -15 0z"/>
<path d="M2346 2011 c-4 -5 3 -7 14 -4 23 6 26 13 6 13 -8 0 -17 -4 -20 -9z"/>
<path d="M6117 1981 c-10 -14 -10 -14 3 -5 8 6 25 10 38 9 13 -1 25 1 27 5 9
14 -56 5 -68 -9z"/>
<path d="M2345 1950 c-3 -6 1 -7 9 -4 18 7 21 14 7 14 -6 0 -13 -4 -16 -10z"/>
<path d="M6103 1949 c9 -6 14 -15 11 -21 -4 -7 -2 -8 5 -4 14 9 -3 36 -23 36
-6 0 -3 -5 7 -11z"/>
<path d="M2360 1930 c-9 -6 -10 -10 -3 -10 6 0 15 5 18 10 8 12 4 12 -15 0z"/>
<path d="M2385 1910 c-3 -6 1 -7 9 -4 18 7 21 14 7 14 -6 0 -13 -4 -16 -10z"/>
<path d="M6055 1910 c-4 -6 1 -7 11 -3 13 5 15 3 9 -7 -5 -9 -4 -11 4 -6 6 4
9 12 6 17 -8 12 -22 12 -30 -1z"/>
<path d="M2420 1896 c0 -2 7 -9 15 -16 9 -7 15 -8 15 -2 0 5 -7 12 -15 16 -8
3 -15 4 -15 2z"/>
<path d="M6030 1891 c0 -6 4 -13 10 -16 6 -3 7 1 4 9 -7 18 -14 21 -14 7z"/>
<path d="M2395 1861 c-3 -5 -2 -12 3 -15 5 -3 9 1 9 9 0 17 -3 19 -12 6z"/>
<path d="M2455 1860 c-3 -6 1 -7 9 -4 18 7 21 14 7 14 -6 0 -13 -4 -16 -10z"/>
<path d="M6015 1849 c-4 -6 -5 -12 -2 -15 2 -3 7 2 10 11 7 17 1 20 -8 4z"/>
<path d="M2493 1836 c0 -8 5 -12 10 -9 7 4 8 -1 3 -13 -6 -15 -5 -17 5 -6 11
10 10 15 -2 28 -14 13 -16 13 -16 0z"/>
<path d="M6033 1825 c0 -8 4 -12 9 -9 5 3 6 10 3 15 -9 13 -12 11 -12 -6z"/>
<path d="M5957 1817 c-3 -8 1 -14 8 -14 7 0 11 6 8 14 -3 7 -6 13 -8 13 -2 0
-5 -6 -8 -13z"/>
<path d="M6000 1810 c-9 -6 -10 -10 -3 -10 6 0 15 5 18 10 8 12 4 12 -15 0z"/>
<path d="M2500 1776 c0 -2 8 -10 18 -17 15 -13 16 -12 3 4 -13 16 -21 21 -21
13z"/>
<path d="M5922 1750 c-15 -25 -15 -30 0 -30 6 0 8 3 5 7 -4 3 -2 12 5 20 6 7
9 15 7 18 -3 2 -10 -5 -17 -15z"/>
<path d="M2547 1749 c7 -7 15 -10 18 -7 3 3 -2 9 -12 12 -14 6 -15 5 -6 -5z"/>
<path d="M2515 1730 c3 -5 8 -10 11 -10 2 0 4 5 4 10 0 6 -5 10 -11 10 -5 0
-7 -4 -4 -10z"/>
<path d="M6013 1725 c0 -8 4 -12 9 -9 5 3 6 10 3 15 -9 13 -12 11 -12 -6z"/>
<path d="M5855 1690 c-6 -9 -4 -11 5 -5 10 6 12 4 7 -7 -7 -19 18 -18 33 0 7
9 7 9 -2 2 -7 -6 -15 -4 -23 7 -10 13 -14 13 -20 3z"/>
<path d="M2630 1686 c0 -3 9 -10 20 -16 11 -6 20 -8 20 -6 0 3 -9 10 -20 16
-11 6 -20 8 -20 6z"/>
<path d="M2649 1633 c-13 -16 -12 -17 4 -4 16 13 21 21 13 21 -2 0 -10 -8 -17
-17z"/>
<path d="M5795 1640 c-3 -5 -2 -18 4 -27 7 -14 9 -12 8 10 -2 30 -3 31 -12 17z"/>
<path d="M5830 1629 c0 -5 5 -7 10 -4 6 3 10 8 10 11 0 2 -4 4 -10 4 -5 0 -10
-5 -10 -11z"/>
<path d="M2706 1614 c-4 -10 -4 -15 0 -12 3 4 14 -2 24 -14 14 -17 17 -18 17
-5 0 10 -3 15 -6 12 -3 -3 -10 4 -16 16 -11 20 -12 20 -19 3z"/>
<path d="M5895 1611 c-3 -5 -2 -12 3 -15 5 -3 9 1 9 9 0 17 -3 19 -12 6z"/>
<path d="M5726 1587 c3 -10 9 -15 12 -12 3 3 0 11 -7 18 -10 9 -11 8 -5 -6z"/>
<path d="M2655 1570 c-3 -5 -1 -10 4 -10 6 0 11 5 11 10 0 6 -2 10 -4 10 -3 0
-8 -4 -11 -10z"/>
<path d="M2713 1565 c0 -8 4 -12 9 -9 5 3 6 10 3 15 -9 13 -12 11 -12 -6z"/>
<path d="M5670 1511 c0 -5 8 -8 18 -6 9 1 24 -2 32 -8 12 -9 13 -9 3 3 -15 16
-53 24 -53 11z"/>
<path d="M5790 1516 c0 -2 7 -7 16 -10 8 -3 12 -2 9 4 -6 10 -25 14 -25 6z"/>
<path d="M2736 1483 c-6 -14 -5 -15 5 -6 7 7 10 15 7 18 -3 3 -9 -2 -12 -12z"/>
<path d="M2790 1486 c7 -7 13 -7 20 0 6 6 3 10 -10 10 -13 0 -16 -4 -10 -10z"/>
<path d="M2833 1479 c-1 -11 2 -19 8 -19 5 0 8 6 7 13 -2 6 4 11 12 9 8 -2 11
0 7 4 -15 15 -33 11 -34 -7z"/>
<path d="M5636 1484 c-23 -23 -20 -30 4 -9 11 10 20 20 20 22 0 7 -9 2 -24
-13z"/>
<path d="M2790 1449 c0 -5 5 -7 10 -4 6 3 10 8 10 11 0 2 -4 4 -10 4 -5 0 -10
-5 -10 -11z"/>
<path d="M5686 1452 c-3 -5 1 -9 9 -9 8 0 12 4 9 9 -3 4 -7 8 -9 8 -2 0 -6 -4
-9 -8z"/>
<path d="M2915 1441 c-3 -5 0 -13 6 -17 7 -4 9 -3 5 4 -3 5 0 13 6 15 9 4 10
6 1 6 -6 1 -14 -3 -18 -8z"/>
<path d="M5615 1440 c-4 -6 -11 -8 -16 -5 -5 4 -9 1 -9 -4 0 -16 16 -13 30 4
7 8 10 15 7 15 -3 0 -9 -5 -12 -10z"/>
<path d="M5530 1436 c0 -2 7 -7 16 -10 8 -3 12 -2 9 4 -6 10 -25 14 -25 6z"/>
<path d="M2853 1415 c0 -8 4 -12 9 -9 5 3 6 10 3 15 -9 13 -12 11 -12 -6z"/>
<path d="M2960 1421 c0 -6 4 -13 10 -16 6 -3 7 1 4 9 -7 18 -14 21 -14 7z"/>
<path d="M2793 1395 c0 -8 4 -12 9 -9 5 3 6 10 3 15 -9 13 -12 11 -12 -6z"/>
<path d="M2924 1388 l-19 -23 23 19 c21 18 27 26 19 26 -2 0 -12 -10 -23 -22z"/>
<path d="M2986 1392 c-2 -4 4 -8 15 -8 10 0 19 4 19 8 0 4 -6 8 -14 8 -8 0
-17 -4 -20 -8z"/>
<path d="M5475 1390 c-3 -5 -1 -10 4 -10 6 0 11 5 11 10 0 6 -2 10 -4 10 -3 0
-8 -4 -11 -10z"/>
<path d="M5595 1390 c3 -5 8 -10 11 -10 2 0 4 5 4 10 0 6 -5 10 -11 10 -5 0
-7 -4 -4 -10z"/>
<path d="M2870 1376 c0 -2 7 -7 16 -10 8 -3 12 -2 9 4 -6 10 -25 14 -25 6z"/>
<path d="M3033 1358 c-2 -18 0 -20 7 -8 12 18 13 30 2 30 -4 0 -9 -10 -9 -22z"/>
<path d="M5390 1366 c-6 -9 -10 -21 -7 -28 4 -9 6 -7 6 4 1 9 7 18 14 21 6 2
9 7 6 11 -3 4 -12 0 -19 -8z"/>
<path d="M3076 1353 c-6 -14 -5 -15 5 -6 7 7 10 15 7 18 -3 3 -9 -2 -12 -12z"/>
<path d="M5435 1350 c3 -5 8 -10 11 -10 2 0 4 5 4 10 0 6 -5 10 -11 10 -5 0
-7 -4 -4 -10z"/>
<path d="M5336 1328 c3 -4 12 -8 20 -8 8 0 14 4 14 8 0 4 -9 8 -19 8 -11 0
-17 -4 -15 -8z"/>
<path d="M5490 1329 c0 -5 5 -7 10 -4 6 3 10 8 10 11 0 2 -4 4 -10 4 -5 0 -10
-5 -10 -11z"/>
<path d="M3059 1318 c10 -13 22 -16 44 -12 44 7 50 17 7 10 -20 -3 -41 0 -50
7 -13 11 -13 10 -1 -5z"/>
<path d="M3030 1310 c0 -5 5 -10 11 -10 5 0 7 5 4 10 -3 6 -8 10 -11 10 -2 0
-4 -4 -4 -10z"/>
<path d="M3197 1309 c7 -7 15 -10 18 -7 3 3 -2 9 -12 12 -14 6 -15 5 -6 -5z"/>
<path d="M5389 1307 c6 -8 7 -18 3 -22 -4 -5 -1 -5 6 -1 10 6 10 11 1 22 -6 8
-14 14 -16 14 -3 0 0 -6 6 -13z"/>
<path d="M3146 1293 c-6 -14 -5 -15 5 -6 7 7 10 15 7 18 -3 3 -9 -2 -12 -12z"/>
<path d="M5293 1285 c-3 -9 -3 -18 -1 -21 3 -3 8 4 11 16 6 23 -1 27 -10 5z"/>
<path d="M3205 1280 c-16 -7 -17 -9 -3 -9 9 -1 20 4 23 9 7 11 7 11 -20 0z"/>
<path d="M5260 1279 c0 -5 -4 -7 -10 -4 -5 3 -10 2 -10 -3 0 -19 26 -20 27 -1
1 10 0 19 -3 19 -2 0 -4 -5 -4 -11z"/>
<path d="M5314 1279 c-3 -6 -2 -15 3 -20 5 -5 9 -1 9 11 0 23 -2 24 -12 9z"/>
<path d="M3030 1266 c7 -7 13 -7 20 0 6 6 3 10 -10 10 -13 0 -16 -4 -10 -10z"/>
<path d="M3190 1256 c0 -2 7 -7 16 -10 8 -3 12 -2 9 4 -6 10 -25 14 -25 6z"/>
<path d="M5370 1250 c0 -5 5 -10 11 -10 5 0 7 5 4 10 -3 6 -8 10 -11 10 -2 0
-4 -4 -4 -10z"/>
<path d="M5290 1246 c0 -2 8 -10 18 -17 15 -13 16 -12 3 4 -13 16 -21 21 -21
13z"/>
<path d="M3246 1232 c-3 -5 1 -9 9 -9 8 0 12 4 9 9 -3 4 -7 8 -9 8 -2 0 -6 -4
-9 -8z"/>
<path d="M3296 1223 c-4 -11 -1 -11 14 -3 24 13 25 17 5 17 -8 0 -16 -6 -19
-14z"/>
<path d="M5196 1231 c9 -9 34 -9 34 -1 0 5 -9 8 -20 7 -10 -1 -17 -3 -14 -6z"/>
<path d="M5246 1228 c3 -5 10 -6 15 -3 13 9 11 12 -6 12 -8 0 -12 -4 -9 -9z"/>
<path d="M3320 1205 c-7 -8 -17 -12 -23 -8 -6 4 -7 1 -3 -6 6 -9 12 -9 25 3
10 9 21 13 26 9 4 -5 5 -2 1 5 -9 15 -11 15 -26 -3z"/>
<path d="M5075 1210 c-3 -5 -1 -10 4 -10 6 0 11 5 11 10 0 6 -2 10 -4 10 -3 0
-8 -4 -11 -10z"/>
<path d="M5333 1213 c4 -3 1 -13 -6 -22 -11 -14 -10 -14 5 -2 16 12 16 31 1
31 -4 0 -3 -3 0 -7z"/>
<path d="M5110 1200 c-9 -6 -10 -10 -3 -10 6 0 15 5 18 10 8 12 4 12 -15 0z"/>
<path d="M3371 1183 c0 -12 2 -13 6 -5 4 10 10 9 27 -5 l21 -18 -19 23 c-23
26 -36 28 -35 5z"/>
<path d="M3454 1172 c3 -6 -2 -15 -11 -21 -10 -6 -13 -11 -7 -11 20 0 37 27
23 36 -7 4 -9 3 -5 -4z"/>
<path d="M4955 1161 c-3 -5 0 -13 6 -17 7 -4 9 -3 5 4 -3 5 0 13 6 15 9 4 10
6 1 6 -6 1 -14 -3 -18 -8z"/>
<path d="M3311 1143 c7 -12 15 -20 18 -17 3 2 -3 12 -13 22 -17 16 -18 16 -5
-5z"/>
<path d="M3490 1151 c0 -6 4 -13 10 -16 6 -3 7 1 4 9 -7 18 -14 21 -14 7z"/>
<path d="M3547 1140 c-3 -11 -3 -20 -1 -20 2 0 8 9 14 20 6 11 7 20 2 20 -6 0
-12 -9 -15 -20z"/>
<path d="M4946 1127 c3 -10 9 -15 12 -12 3 3 0 11 -7 18 -10 9 -11 8 -5 -6z"/>
<path d="M5135 1130 c-3 -5 -1 -10 4 -10 6 0 11 5 11 10 0 6 -2 10 -4 10 -3 0
-8 -4 -11 -10z"/>
<path d="M3613 1105 c0 -8 4 -12 9 -9 4 3 8 9 8 15 0 5 -4 9 -8 9 -5 0 -9 -7
-9 -15z"/>
<path d="M3673 1102 c2 -12 6 -24 10 -28 3 -4 4 4 2 16 -6 30 -16 40 -12 12z"/>
<path d="M4781 1116 c2 -2 15 -9 29 -15 24 -11 24 -11 6 3 -16 13 -49 24 -35
12z"/>
<path d="M4973 1101 c0 -11 5 -18 9 -15 4 3 5 11 1 19 -7 21 -12 19 -10 -4z"/>
<path d="M5025 1110 c-3 -6 1 -7 9 -4 18 7 21 14 7 14 -6 0 -13 -4 -16 -10z"/>
<path d="M5239 1103 c-13 -16 -12 -17 4 -4 9 7 17 15 17 17 0 8 -8 3 -21 -13z"/>
<path d="M3455 1090 c-3 -5 -1 -10 4 -10 6 0 11 5 11 10 0 6 -2 10 -4 10 -3 0
-8 -4 -11 -10z"/>
<path d="M4710 1093 c0 -5 5 -15 10 -23 7 -12 9 -10 7 8 -1 19 -17 33 -17 15z"/>
<path d="M5035 1090 c-3 -5 -1 -10 4 -10 6 0 11 5 11 10 0 6 -2 10 -4 10 -3 0
-8 -4 -11 -10z"/>
<path d="M3786 1074 c-5 -14 -4 -15 9 -4 17 14 19 20 6 20 -5 0 -12 -7 -15
-16z"/>
<path d="M3857 1075 c-4 -8 -3 -16 1 -19 4 -3 9 4 9 15 2 23 -3 25 -10 4z"/>
<path d="M3540 1076 c0 -2 8 -10 18 -17 15 -13 16 -12 3 4 -13 16 -21 21 -21
13z"/>
<path d="M3726 1071 c-3 -4 6 -7 19 -7 14 0 22 2 19 5 -8 8 -34 10 -38 2z"/>
<path d="M4550 1072 c0 -5 7 -9 15 -9 8 0 12 4 9 9 -3 4 -9 8 -15 8 -5 0 -9
-4 -9 -8z"/>
<path d="M4673 1065 c0 -8 4 -12 9 -9 5 3 6 10 3 15 -9 13 -12 11 -12 -6z"/>
<path d="M3906 1053 c-6 -14 -5 -15 5 -6 7 7 10 15 7 18 -3 3 -9 -2 -12 -12z"/>
<path d="M3960 1061 c0 -6 4 -13 10 -16 6 -3 7 1 4 9 -7 18 -14 21 -14 7z"/>
<path d="M4070 1059 c0 -5 -5 -7 -12 -3 -7 4 -8 3 -4 -4 4 -6 13 -9 21 -6 8 4
12 10 9 15 -7 12 -14 11 -14 -2z"/>
<path d="M4209 1053 c-7 -10 -9 -15 -5 -11 5 4 15 0 23 -10 13 -15 13 -15 4 4
-6 12 -7 24 -4 28 3 3 4 6 1 6 -3 0 -12 -8 -19 -17z"/>
<path d="M4476 1057 c3 -10 9 -15 12 -12 3 3 0 11 -7 18 -10 9 -11 8 -5 -6z"/>
<path d="M3615 1050 c-3 -5 -1 -10 4 -10 6 0 11 5 11 10 0 6 -2 10 -4 10 -3 0
-8 -4 -11 -10z"/>
<path d="M3795 1051 c-3 -5 -2 -12 3 -15 5 -3 9 1 9 9 0 17 -3 19 -12 6z"/>
<path d="M4173 1040 c-1 -11 2 -20 7 -20 4 0 7 7 6 15 -3 23 -12 26 -13 5z"/>
<path d="M4455 1051 c6 -11 4 -13 -8 -8 -10 4 -14 2 -11 -7 6 -17 32 -16 30 0
-1 8 -6 17 -11 21 -4 5 -5 2 0 -6z"/>
<path d="M4639 1043 c-13 -16 -12 -17 4 -4 16 13 21 21 13 21 -2 0 -10 -8 -17
-17z"/>
<path d="M4750 1048 c0 -4 4 -8 9 -8 6 0 12 4 15 8 3 5 -1 9 -9 9 -8 0 -15 -4
-15 -9z"/>
<path d="M4855 1050 c3 -5 8 -10 11 -10 2 0 4 5 4 10 0 6 -5 10 -11 10 -5 0
-7 -4 -4 -10z"/>
<path d="M3877 1043 c-10 -9 -9 -23 1 -23 5 0 9 7 9 15 0 17 -1 18 -10 8z"/>
<path d="M4028 1043 c6 -2 9 -10 6 -15 -4 -7 -2 -8 5 -4 13 9 5 26 -12 25 -9
0 -8 -2 1 -6z"/>
<path d="M4264 1036 c-10 -8 -16 -18 -11 -22 4 -4 7 -1 7 6 0 9 7 7 22 -6 17
-14 20 -15 9 -2 -7 9 -10 22 -6 28 9 14 2 13 -21 -4z"/>
<path d="M4374 1028 c0 -11 4 -14 12 -8 6 6 13 8 16 5 2 -3 5 1 5 8 0 7 -8 13
-17 13 -8 0 -16 -8 -16 -18z"/>
<path d="M4695 1039 c-4 -6 -5 -12 -2 -15 2 -3 7 2 10 11 7 17 1 20 -8 4z"/>
<path d="M3690 1030 c0 -5 5 -10 11 -10 5 0 7 5 4 10 -3 6 -8 10 -11 10 -2 0
-4 -4 -4 -10z"/>
<path d="M4079 1023 c-12 -16 -12 -17 2 -6 9 7 19 10 22 6 4 -3 7 -1 7 5 0 17
-16 15 -31 -5z"/>
<path d="M4130 1030 c0 -5 5 -10 10 -10 6 0 10 5 10 10 0 6 -4 10 -10 10 -5 0
-10 -4 -10 -10z"/>
<path d="M4515 1031 c-3 -5 -2 -12 3 -15 5 -3 9 1 9 9 0 17 -3 19 -12 6z"/>
<path d="M4600 1030 c-9 -6 -10 -10 -3 -10 6 0 15 5 18 10 8 12 4 12 -15 0z"/>
<path d="M4916 1028 c3 -5 10 -6 15 -3 13 9 11 12 -6 12 -8 0 -12 -4 -9 -9z"/>
<path d="M3770 1016 c0 -2 7 -7 16 -10 8 -3 12 -2 9 4 -6 10 -25 14 -25 6z"/>
<path d="M3810 1009 c0 -5 5 -7 10 -4 6 3 10 8 10 11 0 2 -4 4 -10 4 -5 0 -10
-5 -10 -11z"/>
<path d="M4041 1006 c-9 -11 -9 -16 1 -22 7 -4 10 -4 6 1 -4 4 -3 14 3 22 6 7
9 13 6 13 -2 0 -10 -6 -16 -14z"/>
<path d="M4735 1010 c3 -5 8 -10 11 -10 2 0 4 5 4 10 0 6 -5 10 -11 10 -5 0
-7 -4 -4 -10z"/>
<path d="M4095 999 c-4 -6 -5 -12 -2 -15 2 -3 7 2 10 11 7 17 1 20 -8 4z"/>
<path d="M4313 995 c0 -8 4 -12 9 -9 5 3 6 10 3 15 -9 13 -12 11 -12 -6z"/>
<path d="M4000 970 c-8 -5 -10 -10 -5 -10 6 0 17 5 25 10 8 5 11 10 5 10 -5 0
-17 -5 -25 -10z"/>
<path d="M4135 970 c3 -5 8 -10 11 -10 2 0 4 5 4 10 0 6 -5 10 -11 10 -5 0 -7
-4 -4 -10z"/>
<path d="M4436 968 c3 -4 11 -5 19 -1 21 7 19 12 -4 10 -11 0 -18 -5 -15 -9z"/>
<path d="M4494 972 c4 -3 14 -7 22 -8 9 -1 13 0 10 4 -4 3 -14 7 -22 8 -9 1
-13 0 -10 -4z"/>
<path d="M4345 950 c-3 -6 1 -7 9 -4 18 7 21 14 7 14 -6 0 -13 -4 -16 -10z"/>
</g>
</svg>
